<?xml version="1.0" encoding="UTF-8" standalone="no"?>
<svg
   xmlns:dc="http://purl.org/dc/elements/1.1/"
   xmlns:cc="http://creativecommons.org/ns#"
   xmlns:rdf="http://www.w3.org/1999/02/22-rdf-syntax-ns#"
   xmlns:svg="http://www.w3.org/2000/svg"
   xmlns="http://www.w3.org/2000/svg"
   viewBox="0 0 612.73334 663.08002"
   height="663.08002"
   width="612.73334"
   xml:space="preserve"
   id="svg2"
   version="1.1"><metadata
     id="metadata8"><rdf:RDF><cc:Work
         rdf:about=""><dc:format>image/svg+xml</dc:format><dc:type
           rdf:resource="http://purl.org/dc/dcmitype/StillImage" /></cc:Work></rdf:RDF></metadata><defs
     id="defs6"><clipPath
       id="clipPath20"
       clipPathUnits="userSpaceOnUse"><path
         id="path18"
         d="M 4595.5,2639.14 C 4595.5,1370.11 3566.73,341.398 2297.74,341.398 1028.73,341.398 0,1370.11 0,2639.14 c 0,1269 1028.73,2297.72 2297.74,2297.72 1268.99,0 2297.76,-1028.72 2297.76,-2297.72 z" /></clipPath><radialGradient
       id="radialGradient28"
       spreadMethod="pad"
       gradientTransform="matrix(2297.74,0,0,-2297.74,2297.75,2639.13)"
       gradientUnits="userSpaceOnUse"
       r="1"
       cy="0"
       cx="0"
       fy="0"
       fx="0"><stop
         id="stop22"
         offset="0"
         style="stop-opacity:1;stop-color:#656263" /><stop
         id="stop24"
         offset="0.747191"
         style="stop-opacity:1;stop-color:#656263" /><stop
         id="stop26"
         offset="1"
         style="stop-opacity:1;stop-color:#ffffff" /></radialGradient><clipPath
       id="clipPath44"
       clipPathUnits="userSpaceOnUse"><path
         id="path42"
         d="m 2297.49,4921.64 320.52,-144.6 349.59,38.48 260.14,-236.61 344.34,-71.4 174.33,-305.42 305.41,-174.33 71.43,-344.34 236.57,-260.17 -38.49,-349.54 144.67,-320.57 -144.67,-320.54 38.49,-349.53 -236.57,-260.2 -71.43,-344.33 -305.41,-174.35 -174.33,-305.389 -344.34,-71.403 -260.14,-236.617 -349.59,38.508 -320.52,-144.637 -320.58,144.637 -349.55,-38.508 -260.16,236.617 -344.36,71.403 -174.293,305.389 -305.434,174.35 -71.414,344.33 -236.597,260.2 38.496,349.53 -144.614,320.54 144.614,320.57 -38.496,349.54 236.597,260.17 71.414,344.34 305.434,174.33 174.293,305.42 344.36,71.4 260.16,236.61 349.55,-38.48 z" /></clipPath><linearGradient
       id="linearGradient56"
       spreadMethod="pad"
       gradientTransform="matrix(4337.02,0,0,-4337.02,128.984,2753.14)"
       gradientUnits="userSpaceOnUse"
       y2="0"
       x2="1"
       y1="0"
       x1="0"><stop
         id="stop46"
         offset="0"
         style="stop-opacity:1;stop-color:#0d6aaa" /><stop
         id="stop48"
         offset="0.140449"
         style="stop-opacity:1;stop-color:#0d6aaa" /><stop
         id="stop50"
         offset="0.488764"
         style="stop-opacity:1;stop-color:#75d3f6" /><stop
         id="stop52"
         offset="0.910112"
         style="stop-opacity:1;stop-color:#0d6aaa" /><stop
         id="stop54"
         offset="1"
         style="stop-opacity:1;stop-color:#0d6aaa" /></linearGradient><clipPath
       id="clipPath66"
       clipPathUnits="userSpaceOnUse"><path
         id="path64"
         d="m 4351.19,2753.14 c 0,-1134.23 -919.47,-2053.73 -2053.7,-2053.73 -1134.25,0 -2053.74,919.5 -2053.74,2053.73 0,1134.24 919.49,2053.74 2053.74,2053.74 1134.23,0 2053.7,-919.5 2053.7,-2053.74 z" /></clipPath><radialGradient
       id="radialGradient78"
       spreadMethod="pad"
       gradientTransform="matrix(2053.73,0,0,-2053.73,2297.47,2753.14)"
       gradientUnits="userSpaceOnUse"
       r="1"
       cy="0"
       cx="0"
       fy="0"
       fx="0"><stop
         id="stop68"
         offset="0"
         style="stop-opacity:1;stop-color:#0d6aaa" /><stop
         id="stop70"
         offset="0.140449"
         style="stop-opacity:1;stop-color:#0d6aaa" /><stop
         id="stop72"
         offset="0.488764"
         style="stop-opacity:1;stop-color:#75d3f6" /><stop
         id="stop74"
         offset="0.910112"
         style="stop-opacity:1;stop-color:#0d6aaa" /><stop
         id="stop76"
         offset="1"
         style="stop-opacity:1;stop-color:#0d6aaa" /></radialGradient><clipPath
       id="clipPath88"
       clipPathUnits="userSpaceOnUse"><path
         id="path86"
         d="m 4318.3,2753.14 c 0,-1116.04 -904.73,-2020.82 -2020.81,-2020.82 -1116.08,0 -2020.853,904.78 -2020.853,2020.82 0,1116.07 904.773,2020.81 2020.853,2020.81 1116.08,0 2020.81,-904.74 2020.81,-2020.81 z" /></clipPath><radialGradient
       id="radialGradient96"
       spreadMethod="pad"
       gradientTransform="matrix(3128.01,0,0,-3128.01,1856.99,804.24)"
       gradientUnits="userSpaceOnUse"
       r="1"
       cy="0"
       cx="0"
       fy="0"
       fx="0"><stop
         id="stop90"
         offset="0"
         style="stop-opacity:1;stop-color:#fff542" /><stop
         id="stop92"
         offset="0.0449438"
         style="stop-opacity:1;stop-color:#fff542" /><stop
         id="stop94"
         offset="1"
         style="stop-opacity:1;stop-color:#f9a721" /></radialGradient><clipPath
       id="clipPath108"
       clipPathUnits="userSpaceOnUse"><path
         id="path106"
         d="m 2297.49,4773.95 c -1039.64,0 -1895.76,-785.13 -2008.17,-1794.75 410.996,182.53 924.49,322.42 1385.77,189.97 820.69,-235.64 1413.95,-781.44 2639.85,-531.59 2.16,38.26 3.36,76.75 3.36,115.56 0,1116.07 -904.73,2020.81 -2020.81,2020.81 z" /></clipPath><linearGradient
       id="linearGradient120"
       spreadMethod="pad"
       gradientTransform="matrix(-497.885,-1723.44,-1723.44,497.885,2818.02,4646.68)"
       gradientUnits="userSpaceOnUse"
       y2="0"
       x2="1"
       y1="0"
       x1="0"><stop
         id="stop110"
         offset="0"
         style="stop-opacity:1;stop-color:#fff42e" /><stop
         id="stop112"
         offset="0.0449438"
         style="stop-opacity:1;stop-color:#fff42e" /><stop
         id="stop114"
         offset="0.735955"
         style="stop-opacity:1;stop-color:#fbc262" /><stop
         id="stop116"
         offset="0.960674"
         style="stop-opacity:1;stop-color:#f9a721" /><stop
         id="stop118"
         offset="1"
         style="stop-opacity:1;stop-color:#f9a721" /></linearGradient><clipPath
       id="clipPath132"
       clipPathUnits="userSpaceOnUse"><path
         id="path130"
         d="m 4189.09,2753.14 c 0,-1044.69 -846.92,-1891.62 -1891.6,-1891.62 -1044.74,0 -1891.65,846.93 -1891.65,1891.62 0,1044.71 846.91,1891.63 1891.65,1891.63 1044.68,0 1891.6,-846.92 1891.6,-1891.63 z" /></clipPath><linearGradient
       id="linearGradient142"
       spreadMethod="pad"
       gradientTransform="matrix(240.296,2346.89,2346.89,-240.296,2110.67,928.84)"
       gradientUnits="userSpaceOnUse"
       y2="0"
       x2="1"
       y1="0"
       x1="0"><stop
         id="stop134"
         offset="0"
         style="stop-opacity:1;stop-color:#ffffff" /><stop
         id="stop136"
         offset="0.0449438"
         style="stop-opacity:1;stop-color:#ffffff" /><stop
         id="stop138"
         offset="0.882022"
         style="stop-opacity:1;stop-color:#918f90" /><stop
         id="stop140"
         offset="1"
         style="stop-opacity:1;stop-color:#918f90" /></linearGradient><clipPath
       id="clipPath152"
       clipPathUnits="userSpaceOnUse"><path
         id="path150"
         d="m 2297.49,4644.77 c -953.07,0 -1741.385,-704.87 -1872.385,-1621.67 385.047,155.8 842.835,259.96 1257.885,140.78 786.47,-225.82 1361.44,-740.08 2501.31,-544.51 3.11,44.2 4.79,88.79 4.79,133.77 0,1044.71 -846.92,1891.63 -1891.6,1891.63 z" /></clipPath><linearGradient
       id="linearGradient160"
       spreadMethod="pad"
       gradientTransform="matrix(-264.243,-1737.52,-1737.52,264.243,2576.71,4610.05)"
       gradientUnits="userSpaceOnUse"
       y2="0"
       x2="1"
       y1="0"
       x1="0"><stop
         id="stop154"
         offset="0"
         style="stop-opacity:1;stop-color:#ffffff" /><stop
         id="stop156"
         offset="0.0449438"
         style="stop-opacity:1;stop-color:#ffffff" /><stop
         id="stop158"
         offset="1"
         style="stop-opacity:1;stop-color:#bdbcbc" /></linearGradient><clipPath
       id="clipPath172"
       clipPathUnits="userSpaceOnUse"><path
         id="path170"
         d="m 3590.14,2753.14 c 0,-713.97 -578.71,-1292.68 -1292.65,-1292.68 -713.98,0 -1292.7,578.71 -1292.7,1292.68 0,713.94 578.72,1292.7 1292.7,1292.7 713.94,0 1292.65,-578.76 1292.65,-1292.7 z" /></clipPath><linearGradient
       id="linearGradient184"
       spreadMethod="pad"
       gradientTransform="matrix(2585.36,0,0,-2585.36,1004.79,2753.14)"
       gradientUnits="userSpaceOnUse"
       y2="0"
       x2="1"
       y1="0"
       x1="0"><stop
         id="stop174"
         offset="0"
         style="stop-opacity:1;stop-color:#0d6aaa" /><stop
         id="stop176"
         offset="0.140449"
         style="stop-opacity:1;stop-color:#0d6aaa" /><stop
         id="stop178"
         offset="0.488764"
         style="stop-opacity:1;stop-color:#75d3f6" /><stop
         id="stop180"
         offset="0.910112"
         style="stop-opacity:1;stop-color:#0d6aaa" /><stop
         id="stop182"
         offset="1"
         style="stop-opacity:1;stop-color:#0d6aaa" /></linearGradient><clipPath
       id="clipPath194"
       clipPathUnits="userSpaceOnUse"><path
         id="path192"
         d="m 3548.45,2753.14 c 0,-690.9 -560.09,-1250.98 -1250.96,-1250.98 -690.91,0 -1251.01,560.08 -1251.01,1250.98 0,181.61 38.72,354.16 108.3,509.89 195.17,436.77 631.04,601.72 1140.32,601.72 690.93,0 1253.35,-420.7 1253.35,-1111.61 z" /></clipPath><radialGradient
       id="radialGradient206"
       spreadMethod="pad"
       gradientTransform="matrix(1158.01,0,0,-1158.01,1631.46,2272.54)"
       gradientUnits="userSpaceOnUse"
       r="1"
       cy="0"
       cx="0"
       fy="0"
       fx="0"><stop
         id="stop196"
         offset="0"
         style="stop-opacity:1;stop-color:#fef5e5" /><stop
         id="stop198"
         offset="0.0449438"
         style="stop-opacity:1;stop-color:#fef5e5" /><stop
         id="stop200"
         offset="0.488764"
         style="stop-opacity:1;stop-color:#fccf82" /><stop
         id="stop202"
         offset="0.960674"
         style="stop-opacity:1;stop-color:#f9a721" /><stop
         id="stop204"
         offset="1"
         style="stop-opacity:1;stop-color:#f9a721" /></radialGradient><clipPath
       id="clipPath216"
       clipPathUnits="userSpaceOnUse"><path
         id="path214"
         d="m 2297.49,4004.14 c -527.84,0 -979.05,-327.1 -1162.72,-789.52 181.95,15.78 364.92,4.92 540.32,-45.45 625.52,-179.61 1118.98,-539.41 1861.06,-589.75 7.93,56.81 12.3,114.74 12.3,173.72 0,690.91 -560.09,1251 -1250.96,1251 z" /></clipPath><linearGradient
       id="linearGradient228"
       spreadMethod="pad"
       gradientTransform="matrix(-382.992,-1187.28,-1187.28,382.992,2659.02,3900.07)"
       gradientUnits="userSpaceOnUse"
       y2="0"
       x2="1"
       y1="0"
       x1="0"><stop
         id="stop218"
         offset="0"
         style="stop-opacity:1;stop-color:#fef6e7" /><stop
         id="stop220"
         offset="0.00561798"
         style="stop-opacity:1;stop-color:#fef6e7" /><stop
         id="stop222"
         offset="0.247191"
         style="stop-opacity:1;stop-color:#fbcb79" /><stop
         id="stop224"
         offset="0.865169"
         style="stop-opacity:1;stop-color:#f9a721" /><stop
         id="stop226"
         offset="1"
         style="stop-opacity:1;stop-color:#f9a721" /></linearGradient><clipPath
       id="clipPath240"
       clipPathUnits="userSpaceOnUse"><path
         id="path238"
         d="m 2272.71,1296.44 46.74,-143.91 h 151.31 l -122.42,-88.94 46.76,-143.891 -122.39,88.941 -122.4,-88.941 46.76,143.891 -122.41,88.94 h 151.28 z" /></clipPath><radialGradient
       id="radialGradient252"
       spreadMethod="pad"
       gradientTransform="matrix(231.335,0,0,-231.335,2273.59,1018.85)"
       gradientUnits="userSpaceOnUse"
       r="1"
       cy="0"
       cx="0"
       fy="0"
       fx="0"><stop
         id="stop242"
         offset="0"
         style="stop-opacity:1;stop-color:#fff42e" /><stop
         id="stop244"
         offset="0.0449438"
         style="stop-opacity:1;stop-color:#fff42e" /><stop
         id="stop246"
         offset="0.544944"
         style="stop-opacity:1;stop-color:#fbc568" /><stop
         id="stop248"
         offset="0.960674"
         style="stop-opacity:1;stop-color:#f9a721" /><stop
         id="stop250"
         offset="1"
         style="stop-opacity:1;stop-color:#f9a721" /></radialGradient><clipPath
       id="clipPath262"
       clipPathUnits="userSpaceOnUse"><path
         id="path260"
         d="m 2715.75,1279.59 33.37,-102.67 h 107.96 l -87.35,-63.48 33.37,-102.66 -87.35,63.46 -87.33,-63.46 33.35,102.66 -87.36,63.48 h 107.97 z" /></clipPath><radialGradient
       id="radialGradient274"
       spreadMethod="pad"
       gradientTransform="matrix(165.079,0,0,-165.079,2716.38,1081.52)"
       gradientUnits="userSpaceOnUse"
       r="1"
       cy="0"
       cx="0"
       fy="0"
       fx="0"><stop
         id="stop264"
         offset="0"
         style="stop-opacity:1;stop-color:#fff42e" /><stop
         id="stop266"
         offset="0.0449438"
         style="stop-opacity:1;stop-color:#fff42e" /><stop
         id="stop268"
         offset="0.544944"
         style="stop-opacity:1;stop-color:#fbc568" /><stop
         id="stop270"
         offset="0.960674"
         style="stop-opacity:1;stop-color:#f9a721" /><stop
         id="stop272"
         offset="1"
         style="stop-opacity:1;stop-color:#f9a721" /></radialGradient><clipPath
       id="clipPath284"
       clipPathUnits="userSpaceOnUse"><path
         id="path282"
         d="m 1840.59,1279.59 33.33,-102.67 h 107.95 l -87.33,-63.48 33.37,-102.66 -87.32,63.46 -87.36,-63.46 33.38,102.66 -87.33,63.48 h 107.95 z" /></clipPath><radialGradient
       id="radialGradient296"
       spreadMethod="pad"
       gradientTransform="matrix(165.047,0,0,-165.047,1841.2,1081.52)"
       gradientUnits="userSpaceOnUse"
       r="1"
       cy="0"
       cx="0"
       fy="0"
       fx="0"><stop
         id="stop286"
         offset="0"
         style="stop-opacity:1;stop-color:#fff42e" /><stop
         id="stop288"
         offset="0.0449438"
         style="stop-opacity:1;stop-color:#fff42e" /><stop
         id="stop290"
         offset="0.544944"
         style="stop-opacity:1;stop-color:#fbc568" /><stop
         id="stop292"
         offset="0.960674"
         style="stop-opacity:1;stop-color:#f9a721" /><stop
         id="stop294"
         offset="1"
         style="stop-opacity:1;stop-color:#f9a721" /></radialGradient><clipPath
       id="clipPath306"
       clipPathUnits="userSpaceOnUse"><path
         id="path304"
         d="m 4188.59,1636.98 c -462.21,365.56 -1211.74,562.13 -1858.87,571.69 -9.53,0.13 -19.1,0.13 -28.68,0.16 v 0.02 c -1.62,0 -3.21,0 -4.82,0 -1.62,0 -3.22,0 -4.87,0 v -0.02 c -9.52,-0.03 -19.07,-0.03 -28.63,-0.16 C 1615.59,2199.11 866.023,2002.54 403.852,1636.98 329.164,1570.67 269.965,1456.12 351.41,1361.87 523.137,1162.45 816.172,849.422 816.172,849.422 c -22.039,22.129 -20.957,96.289 57.633,157.828 391.045,288.13 929.285,418.33 1416.055,420.43 0.51,0 1.01,0 1.49,0 v -0.02 c 1.65,0 3.25,0 4.87,0 1.61,0 3.23,0 4.82,0 v 0.02 c 0.5,0 1.02,0 1.55,0 486.76,-2.1 1024.98,-132.3 1416,-420.43 78.64,-61.539 79.72,-135.699 57.69,-157.828 0,0 293.01,313.028 464.75,512.448 81.45,94.25 22.25,208.8 -52.44,275.11 z" /></clipPath><linearGradient
       id="linearGradient318"
       spreadMethod="pad"
       gradientTransform="matrix(3968.06,0,0,-3968.06,312.192,1529.13)"
       gradientUnits="userSpaceOnUse"
       y2="0"
       x2="1"
       y1="0"
       x1="0"><stop
         id="stop308"
         offset="0"
         style="stop-opacity:1;stop-color:#0d6aaa" /><stop
         id="stop310"
         offset="0.140449"
         style="stop-opacity:1;stop-color:#0d6aaa" /><stop
         id="stop312"
         offset="0.488764"
         style="stop-opacity:1;stop-color:#75d3f6" /><stop
         id="stop314"
         offset="0.910112"
         style="stop-opacity:1;stop-color:#0d6aaa" /><stop
         id="stop316"
         offset="1"
         style="stop-opacity:1;stop-color:#0d6aaa" /></linearGradient><clipPath
       id="clipPath328"
       clipPathUnits="userSpaceOnUse"><path
         id="path326"
         d="m 4133.77,1550.86 c -448.82,356.07 -1176.66,547.49 -1805.04,556.79 -9.28,0.13 -18.53,0.13 -27.84,0.16 v 0.06 c -1.55,0 -3.11,-0.02 -4.67,-0.02 -1.56,0 -3.13,0.02 -4.69,0.02 v -0.06 c -9.31,-0.03 -18.56,-0.03 -27.86,-0.16 -628.33,-9.3 -1356.197,-200.72 -1804.979,-556.79 -60.503,-53.95 -110.5,-140.56 -79.437,-221.09 14.523,-16.63 29.664,-33.89 45.258,-51.46 -19.285,76.67 29.062,170.11 84.429,218.85 437.176,342.41 1143.509,517.3 1755.589,526.18 9.04,0.13 18.07,0.13 27.12,0.18 v 0.07 c 1.5,0 3.05,0 4.57,0 1.48,0 3.07,0 4.58,0 v -0.07 c 9.03,-0.05 18.06,-0.05 27.1,-0.18 612.13,-8.88 1321.1,-193.02 1758.25,-535.43 55.32,-48.6 101.33,-134.3 82.05,-209.33 15.42,17.48 30.51,34.62 44.97,51.19 31.1,80.53 -18.94,167.14 -79.4,221.09 z M 3827.5,1173.22 c -373.99,291.03 -980.54,447.5 -1504.18,455.06 -7.74,0.17 -15.45,0.17 -23.2,0.19 v 0 c -1.28,0 -2.61,0 -3.9,0 -1.29,0 -2.6,0 -3.92,0 v 0 c -7.74,-0.02 -15.47,-0.02 -23.2,-0.19 -523.63,-7.56 -1130.18,-164.03 -1504.151,-455.06 -60.457,-52.8 -108.328,-143.97 -42.433,-218.939 6.839,-7.832 13.964,-15.89 21.214,-24.121 -32.406,65.602 9.547,137.8 60.836,182.01 364.304,279.85 955.174,430.35 1465.254,437.63 7.52,0.1 15.05,0.1 22.58,0.14 v 0.03 c 1.26,0 2.55,0 3.82,0 1.28,0 2.54,0 3.79,0 v -0.03 c 7.54,-0.04 15.08,-0.04 22.61,-0.14 510.06,-7.28 1100.95,-157.78 1465.27,-437.63 51.28,-44.21 93.19,-116.408 60.85,-181.99 7.25,8.211 14.36,16.269 21.19,24.101 65.91,74.969 17.98,166.139 -42.43,218.939 z" /></clipPath><linearGradient
       id="linearGradient340"
       spreadMethod="pad"
       gradientTransform="matrix(3852.92,0,0,-3852.92,369.756,1519.01)"
       gradientUnits="userSpaceOnUse"
       y2="0"
       x2="1"
       y1="0"
       x1="0"><stop
         id="stop330"
         offset="0"
         style="stop-opacity:1;stop-color:#9cdff9" /><stop
         id="stop332"
         offset="0.162921"
         style="stop-opacity:1;stop-color:#9cdff9" /><stop
         id="stop334"
         offset="0.52809"
         style="stop-opacity:1;stop-color:#ffffff" /><stop
         id="stop336"
         offset="0.837079"
         style="stop-opacity:1;stop-color:#9cdff9" /><stop
         id="stop338"
         offset="1"
         style="stop-opacity:1;stop-color:#9cdff9" /></linearGradient><clipPath
       id="clipPath464"
       clipPathUnits="userSpaceOnUse"><path
         id="path462"
         d="m 794.535,2229.1 -4.676,13.59 c -4.73,13.87 -9.824,22.78 -15.234,26.75 -5.441,3.96 -12.359,4.48 -20.785,1.62 -5,-1.73 -8.883,-4.5 -11.692,-8.34 -2.812,-3.85 -4.273,-8.24 -4.41,-13.13 -0.125,-4.84 1.805,-13.11 5.778,-24.66 l 4.078,-11.9 z m -74.461,-74.16 -15.797,46.09 c -8.668,25.27 -12.574,44.02 -11.718,56.25 0.82,12.3 5.355,23.47 13.578,33.56 8.242,10.1 19.515,17.61 33.804,22.54 15.039,5.12 28.825,5.83 41.399,2.08 12.562,-3.72 23.933,-11.96 34.086,-24.68 l 83.09,89 16.308,-47.55 -79.219,-84.62 1.368,-3.98 96.836,33.19 14.921,-43.53 z" /></clipPath><linearGradient
       id="linearGradient472"
       spreadMethod="pad"
       gradientTransform="matrix(256.289,0,0,-256.289,692.441,2267.36)"
       gradientUnits="userSpaceOnUse"
       y2="0"
       x2="1"
       y1="0"
       x1="0"><stop
         id="stop466"
         offset="0"
         style="stop-opacity:1;stop-color:#444141" /><stop
         id="stop468"
         offset="0.61236"
         style="stop-opacity:1;stop-color:#231f20" /><stop
         id="stop470"
         offset="1"
         style="stop-opacity:1;stop-color:#231f20" /></linearGradient><clipPath
       id="clipPath482"
       clipPathUnits="userSpaceOnUse"><path
         id="path480"
         d="m 658.316,2349.18 -27.789,128.97 44.008,9.5 18.176,-84.34 42.719,9.2 -18.16,84.32 43.214,9.32 18.161,-84.34 62.156,13.4 -18.168,84.34 44.168,9.51 27.801,-128.97 z" /></clipPath><linearGradient
       id="linearGradient490"
       spreadMethod="pad"
       gradientTransform="matrix(264.072,0,0,-264.072,630.527,2439.12)"
       gradientUnits="userSpaceOnUse"
       y2="0"
       x2="1"
       y1="0"
       x1="0"><stop
         id="stop484"
         offset="0"
         style="stop-opacity:1;stop-color:#444141" /><stop
         id="stop486"
         offset="0.61236"
         style="stop-opacity:1;stop-color:#231f20" /><stop
         id="stop488"
         offset="1"
         style="stop-opacity:1;stop-color:#231f20" /></linearGradient><clipPath
       id="clipPath500"
       clipPathUnits="userSpaceOnUse"><path
         id="path498"
         d="m 642.75,2660.11 33.367,-30.83 c -15.351,-13.58 -22.394,-26.56 -21.129,-38.88 0.61,-6.02 2.707,-10.77 6.325,-14.26 3.597,-3.49 7.417,-5.04 11.457,-4.63 4.031,0.41 7.71,2.16 11.035,5.27 4.402,4.21 13.562,16.46 27.449,36.72 12.812,18.98 20.941,30.49 24.371,34.58 8.438,10.25 16.738,17.75 24.883,22.48 8.152,4.75 17.308,7.67 27.43,8.7 19.722,2.01 36.726,-3.17 50.957,-15.48 14.265,-12.32 22.507,-29.45 24.757,-51.36 1.739,-17.12 -0.933,-32.47 -8.007,-46.03 -7.098,-13.58 -19.168,-25.8 -36.231,-36.7 l -27.148,36.1 c 20.074,13.75 29.339,28.14 27.797,43.2 -0.801,7.85 -3.77,14.21 -8.895,19.1 -5.117,4.88 -10.676,7.02 -16.664,6.41 -5.445,-0.57 -10.699,-3.14 -15.727,-7.74 -5.043,-4.6 -12.464,-14.32 -22.289,-29.24 -18.672,-28.36 -33.425,-46.98 -44.254,-55.8 -10.832,-8.84 -22.019,-13.83 -33.574,-15.01 -16.668,-1.71 -31.629,3.19 -44.836,14.69 -13.242,11.48 -20.816,26.55 -22.726,45.22 -1.211,11.98 0.39,23.7 4.824,35.14 4.465,11.41 13.398,24.22 26.828,38.35 z" /></clipPath><linearGradient
       id="linearGradient508"
       spreadMethod="pad"
       gradientTransform="matrix(253.457,0,0,-253.457,610.708,2603.03)"
       gradientUnits="userSpaceOnUse"
       y2="0"
       x2="1"
       y1="0"
       x1="0"><stop
         id="stop502"
         offset="0"
         style="stop-opacity:1;stop-color:#444141" /><stop
         id="stop504"
         offset="0.61236"
         style="stop-opacity:1;stop-color:#231f20" /><stop
         id="stop506"
         offset="1"
         style="stop-opacity:1;stop-color:#231f20" /></linearGradient><clipPath
       id="clipPath518"
       clipPathUnits="userSpaceOnUse"><path
         id="path516"
         d="m 648.617,2835.09 c -0.98,-22.36 5.973,-41.48 20.86,-57.39 14.871,-15.9 34.289,-24.38 58.253,-25.42 26.696,-1.17 48.227,7.47 64.618,25.98 12.804,14.37 19.621,31.18 20.457,50.46 0.957,21.82 -6.117,40.71 -21.203,56.76 -15.075,16.01 -34.18,24.54 -57.254,25.53 -22.993,1.02 -42.782,-5.85 -59.375,-20.6 -16.594,-14.75 -25.379,-33.2 -26.356,-55.32 z m -44.949,2.45 c 1.484,34.17 15.145,63 40.961,86.52 25.797,23.48 56.484,34.47 92.055,32.92 35.234,-1.56 64.523,-14.97 87.867,-40.31 23.344,-25.32 34.238,-55.28 32.738,-89.89 -1.586,-36.23 -15.43,-65.81 -41.543,-88.7 -26.117,-22.88 -56.383,-33.57 -90.867,-32.05 -23.094,0.99 -44.074,7.53 -62.961,19.53 -18.875,12.03 -33.559,28.04 -44.031,48.09 -10.465,20.04 -15.199,41.34 -14.219,63.89 z" /></clipPath><linearGradient
       id="linearGradient526"
       spreadMethod="pad"
       gradientTransform="matrix(253.887,0,0,-253.887,603.54,2831.51)"
       gradientUnits="userSpaceOnUse"
       y2="0"
       x2="1"
       y1="0"
       x1="0"><stop
         id="stop520"
         offset="0"
         style="stop-opacity:1;stop-color:#444141" /><stop
         id="stop522"
         offset="0.61236"
         style="stop-opacity:1;stop-color:#231f20" /><stop
         id="stop524"
         offset="1"
         style="stop-opacity:1;stop-color:#231f20" /></linearGradient><clipPath
       id="clipPath536"
       clipPathUnits="userSpaceOnUse"><path
         id="path534"
         d="m 626.656,3025.79 9.399,45.21 153.011,-31.85 c 13.18,-2.74 22.758,-3.52 28.704,-2.34 5.945,1.15 11.097,4.05 15.472,8.69 4.36,4.62 7.344,10.68 8.899,18.2 1.664,7.94 1.254,15.14 -1.2,21.63 -2.449,6.5 -6.25,11.45 -11.425,14.82 -5.168,3.36 -15.672,6.69 -31.536,10 l -147.398,30.66 9.406,45.2 141.082,-29.34 c 23.813,-4.97 40.043,-9.75 48.703,-14.34 8.672,-4.61 16.504,-11.57 23.504,-20.92 7.016,-9.36 11.547,-19.38 13.637,-30.12 2.07,-10.71 1.758,-22.63 -0.973,-35.7 -3.582,-17.16 -10.628,-31.26 -21.144,-42.34 -10.52,-11.07 -22.301,-18.1 -35.281,-21.11 -12.993,-3 -33.571,-1.57 -61.789,4.31 z" /></clipPath><linearGradient
       id="linearGradient544"
       spreadMethod="pad"
       gradientTransform="matrix(261.606,0,0,-261.606,626.655,3088.32)"
       gradientUnits="userSpaceOnUse"
       y2="0"
       x2="1"
       y1="0"
       x1="0"><stop
         id="stop538"
         offset="0"
         style="stop-opacity:1;stop-color:#444141" /><stop
         id="stop540"
         offset="0.61236"
         style="stop-opacity:1;stop-color:#231f20" /><stop
         id="stop542"
         offset="1"
         style="stop-opacity:1;stop-color:#231f20" /></linearGradient><clipPath
       id="clipPath554"
       clipPathUnits="userSpaceOnUse"><path
         id="path552"
         d="m 784.535,3266.99 4.766,13.62 c 4.859,13.79 6.383,23.95 4.566,30.41 -1.801,6.47 -6.894,11.2 -15.304,14.14 -4.977,1.74 -9.762,1.98 -14.344,0.69 -4.578,-1.29 -8.442,-3.8 -11.567,-7.58 -3.132,-3.75 -6.714,-11.42 -10.765,-22.95 l -4.16,-11.9 z m -104.363,-12.13 16.121,45.99 c 8.84,25.18 17.375,42.34 25.633,51.45 8.242,9.11 18.734,15.09 31.433,17.92 12.727,2.85 26.211,1.77 40.473,-3.23 15.016,-5.26 26.281,-13.24 33.824,-23.97 7.559,-10.71 11.399,-24.2 11.489,-40.5 l 120.351,18.48 -16.637,-47.46 -114.597,-17.42 -1.399,-3.98 96.61,-33.87 -15.227,-43.41 z" /></clipPath><linearGradient
       id="linearGradient562"
       spreadMethod="pad"
       gradientTransform="matrix(279.326,0,0,-279.326,680.171,3273.31)"
       gradientUnits="userSpaceOnUse"
       y2="0"
       x2="1"
       y1="0"
       x1="0"><stop
         id="stop556"
         offset="0"
         style="stop-opacity:1;stop-color:#444141" /><stop
         id="stop558"
         offset="0.61236"
         style="stop-opacity:1;stop-color:#231f20" /><stop
         id="stop560"
         offset="1"
         style="stop-opacity:1;stop-color:#231f20" /></linearGradient><clipPath
       id="clipPath572"
       clipPathUnits="userSpaceOnUse"><path
         id="path570"
         d="m 894.242,3629.89 12.11,-42.78 c -30.688,-8.56 -52.403,-24.94 -65.176,-49.14 -10.789,-20.43 -12.879,-41.32 -6.305,-62.66 6.582,-21.36 20.106,-37.44 40.563,-48.25 14.246,-7.52 28.543,-11.08 42.871,-10.73 14.324,0.35 27.629,4.52 39.883,12.53 12.3,7.99 22.093,18.92 29.406,32.75 6.215,11.8 9.715,23.77 10.453,35.87 0.762,12.1 -1.594,27.08 -7.055,44.93 l 43.348,12.4 c 7.08,-23.94 9.89,-44.49 8.43,-61.69 -1.45,-17.2 -6.93,-34.78 -16.46,-52.8 -17.51,-33.23 -42.415,-54.86 -74.654,-64.92 -32.254,-10.03 -64.832,-6.36 -97.777,11.02 -21.301,11.25 -37.707,26.07 -49.176,44.45 -11.476,18.38 -17.512,39.21 -18.101,62.52 -0.59,23.27 4.593,45.27 15.523,66.01 9.316,17.64 21.992,32.65 38.063,45.04 16.062,12.39 34.074,20.87 54.054,25.45 z" /></clipPath><linearGradient
       id="linearGradient580"
       spreadMethod="pad"
       gradientTransform="matrix(256.592,0,0,-256.592,786.558,3499.89)"
       gradientUnits="userSpaceOnUse"
       y2="0"
       x2="1"
       y1="0"
       x1="0"><stop
         id="stop574"
         offset="0"
         style="stop-opacity:1;stop-color:#444141" /><stop
         id="stop576"
         offset="0.61236"
         style="stop-opacity:1;stop-color:#231f20" /><stop
         id="stop578"
         offset="1"
         style="stop-opacity:1;stop-color:#231f20" /></linearGradient><clipPath
       id="clipPath590"
       clipPathUnits="userSpaceOnUse"><path
         id="path588"
         d="m 890.719,3696.64 77.347,106.92 36.484,-26.38 -50.581,-69.91 35.422,-25.6 50.569,69.87 35.82,-25.88 -50.57,-69.9 51.52,-37.26 50.56,69.89 36.59,-26.48 -77.33,-106.9 z" /></clipPath><linearGradient
       id="linearGradient598"
       spreadMethod="pad"
       gradientTransform="matrix(273.164,0,0,-273.164,890.718,3679.29)"
       gradientUnits="userSpaceOnUse"
       y2="0"
       x2="1"
       y1="0"
       x1="0"><stop
         id="stop592"
         offset="0"
         style="stop-opacity:1;stop-color:#444141" /><stop
         id="stop594"
         offset="0.61236"
         style="stop-opacity:1;stop-color:#231f20" /><stop
         id="stop596"
         offset="1"
         style="stop-opacity:1;stop-color:#231f20" /></linearGradient><clipPath
       id="clipPath608"
       clipPathUnits="userSpaceOnUse"><path
         id="path606"
         d="m 1111.26,3916.06 -0.56,-45.45 c -20.37,2.32 -34.71,-1.13 -43.04,-10.33 -4.06,-4.46 -6.19,-9.21 -6.36,-14.22 -0.19,-5.02 1.22,-8.89 4.22,-11.59 3.03,-2.74 6.77,-4.3 11.31,-4.68 6.06,-0.47 21.29,0.91 45.66,4.16 22.66,3.15 36.66,4.85 42.01,5.04 13.24,0.58 24.36,-0.57 33.36,-3.46 8.97,-2.87 17.25,-7.72 24.8,-14.58 14.7,-13.31 22.23,-29.38 22.62,-48.2 0.37,-18.84 -6.83,-36.45 -21.63,-52.78 -11.56,-12.76 -24.75,-21.04 -39.57,-24.85 -14.83,-3.79 -31.99,-3.03 -51.5,2.38 l 8.66,44.32 c 23.66,-5.71 40.54,-2.97 50.7,8.25 5.31,5.85 8.06,12.32 8.25,19.39 0.21,7.08 -1.92,12.64 -6.4,16.69 -4.06,3.67 -9.48,5.83 -16.26,6.5 -6.79,0.67 -19,-0.33 -36.65,-3.01 -33.59,-5.11 -57.29,-6.59 -71.09,-4.47 -13.79,2.14 -25,7.11 -33.6,14.91 -12.43,11.26 -18.8,25.62 -19.13,43.15 -0.3,17.53 5.85,33.24 18.41,47.14 8.1,8.94 17.88,15.59 29.34,19.93 11.48,4.33 26.96,6.24 46.45,5.76 z" /></clipPath><linearGradient
       id="linearGradient616"
       spreadMethod="pad"
       gradientTransform="matrix(228.247,0,0,-228.247,1017.05,3804.45)"
       gradientUnits="userSpaceOnUse"
       y2="0"
       x2="1"
       y1="0"
       x1="0"><stop
         id="stop610"
         offset="0"
         style="stop-opacity:1;stop-color:#444141" /><stop
         id="stop612"
         offset="0.61236"
         style="stop-opacity:1;stop-color:#231f20" /><stop
         id="stop614"
         offset="1"
         style="stop-opacity:1;stop-color:#231f20" /></linearGradient><clipPath
       id="clipPath626"
       clipPathUnits="userSpaceOnUse"><path
         id="path624"
         d="m 1270.34,3841.39 34.38,10.16 17.84,-78.32 -23.6,-7.5 z" /></clipPath><linearGradient
       id="linearGradient634"
       spreadMethod="pad"
       gradientTransform="matrix(52.2266,0,0,-52.2266,1270.34,3808.64)"
       gradientUnits="userSpaceOnUse"
       y2="0"
       x2="1"
       y1="0"
       x1="0"><stop
         id="stop628"
         offset="0"
         style="stop-opacity:1;stop-color:#444141" /><stop
         id="stop630"
         offset="0.61236"
         style="stop-opacity:1;stop-color:#231f20" /><stop
         id="stop632"
         offset="1"
         style="stop-opacity:1;stop-color:#231f20" /></linearGradient><clipPath
       id="clipPath644"
       clipPathUnits="userSpaceOnUse"><path
         id="path642"
         d="m 1265.68,4096 107.51,76.48 26.1,-36.68 -70.28,-50.01 25.33,-35.61 70.29,50 25.61,-36.01 -70.28,-50.01 36.84,-51.82 70.31,50.02 26.19,-36.82 -107.51,-76.49 z" /></clipPath><linearGradient
       id="linearGradient652"
       spreadMethod="pad"
       gradientTransform="matrix(247.617,0,0,-247.617,1265.68,4035.76)"
       gradientUnits="userSpaceOnUse"
       y2="0"
       x2="1"
       y1="0"
       x1="0"><stop
         id="stop646"
         offset="0"
         style="stop-opacity:1;stop-color:#444141" /><stop
         id="stop648"
         offset="0.61236"
         style="stop-opacity:1;stop-color:#231f20" /><stop
         id="stop650"
         offset="1"
         style="stop-opacity:1;stop-color:#231f20" /></linearGradient><clipPath
       id="clipPath662"
       clipPathUnits="userSpaceOnUse"><path
         id="path660"
         d="m 1483.08,4186.12 71.39,-134.73 18.88,10 c 18.58,9.84 30.94,19.12 37.04,27.81 6.12,8.71 9.16,19.5 9.15,32.4 -0.02,12.9 -3.92,26.71 -11.73,41.44 -12.01,22.67 -27.68,36.91 -46.96,42.68 -17.38,5.19 -38.71,1.1 -63.97,-12.29 z m -61.13,17.82 48.16,25.52 c 31.04,16.45 56.16,24.82 75.33,25.1 19.14,0.32 38.21,-5.63 57.15,-17.76 18.95,-12.16 34.55,-29.8 46.81,-52.93 8.73,-16.45 13.99,-33.03 15.83,-49.72 1.85,-16.69 0.36,-32.13 -4.41,-46.31 -4.82,-14.2 -11.91,-26.02 -21.27,-35.45 -9.39,-9.43 -27.89,-21.47 -55.56,-36.12 l -48.89,-25.91 z" /></clipPath><linearGradient
       id="linearGradient670"
       spreadMethod="pad"
       gradientTransform="matrix(244.053,0,0,-244.053,1421.95,4122.47)"
       gradientUnits="userSpaceOnUse"
       y2="0"
       x2="1"
       y1="0"
       x1="0"><stop
         id="stop664"
         offset="0"
         style="stop-opacity:1;stop-color:#444141" /><stop
         id="stop666"
         offset="0.61236"
         style="stop-opacity:1;stop-color:#231f20" /><stop
         id="stop668"
         offset="1"
         style="stop-opacity:1;stop-color:#231f20" /></linearGradient><clipPath
       id="clipPath680"
       clipPathUnits="userSpaceOnUse"><path
         id="path678"
         d="m 1647.59,4316.84 43.5,15.45 52.29,-147.29 c 4.52,-12.68 8.81,-21.26 12.88,-25.73 4.1,-4.48 9.26,-7.39 15.48,-8.71 6.22,-1.33 12.96,-0.72 20.18,1.84 7.64,2.73 13.58,6.81 17.87,12.27 4.28,5.47 6.52,11.3 6.7,17.46 0.2,6.16 -2.4,16.87 -7.83,32.15 l -50.38,141.86 43.53,15.47 48.19,-135.81 c 8.15,-22.92 12.5,-39.26 13.07,-49.06 0.57,-9.81 -1.33,-20.11 -5.65,-30.95 -4.36,-10.85 -10.57,-19.95 -18.65,-27.29 -8.09,-7.33 -18.45,-13.25 -31.03,-17.73 -16.52,-5.86 -32.22,-7.17 -47.16,-3.93 -14.92,3.26 -27.04,9.65 -36.36,19.18 -9.32,9.55 -18.79,27.87 -28.43,55.02 z" /></clipPath><linearGradient
       id="linearGradient688"
       spreadMethod="pad"
       gradientTransform="matrix(215.581,0,0,-215.581,1647.59,4238.36)"
       gradientUnits="userSpaceOnUse"
       y2="0"
       x2="1"
       y1="0"
       x1="0"><stop
         id="stop682"
         offset="0"
         style="stop-opacity:1;stop-color:#444141" /><stop
         id="stop684"
         offset="0.61236"
         style="stop-opacity:1;stop-color:#231f20" /><stop
         id="stop686"
         offset="1"
         style="stop-opacity:1;stop-color:#231f20" /></linearGradient><clipPath
       id="clipPath698"
       clipPathUnits="userSpaceOnUse"><path
         id="path696"
         d="m 2099.58,4391.81 -25.97,-36.05 c -25.79,18.68 -52.11,25.53 -79.02,20.47 -22.68,-4.24 -40.34,-15.6 -53,-34.03 -12.63,-18.43 -16.8,-39.01 -12.54,-61.76 2.96,-15.85 9.05,-29.26 18.24,-40.26 9.17,-10.99 20.73,-18.81 34.63,-23.45 13.91,-4.64 28.54,-5.53 43.92,-2.64 13.12,2.45 24.65,7.17 34.59,14.11 9.96,6.94 20.22,18.1 30.82,33.46 l 36.66,-26.25 c -14.34,-20.42 -28.7,-35.39 -43.06,-44.95 -14.36,-9.54 -31.57,-16.19 -51.59,-19.96 -36.95,-6.92 -69.37,-0.88 -97.28,18.14 -27.92,18.99 -45.3,46.79 -52.16,83.41 -4.45,23.68 -3.03,45.72 4.23,66.15 7.26,20.41 19.83,38.11 37.69,53.03 17.88,14.95 38.33,24.58 61.36,28.91 19.61,3.68 39.24,3.07 58.94,-1.8 19.7,-4.88 37.53,-13.71 53.54,-26.53 z" /></clipPath><linearGradient
       id="linearGradient706"
       spreadMethod="pad"
       gradientTransform="matrix(246.621,0,0,-246.621,1881.28,4295.12)"
       gradientUnits="userSpaceOnUse"
       y2="0"
       x2="1"
       y1="0"
       x1="0"><stop
         id="stop700"
         offset="0"
         style="stop-opacity:1;stop-color:#444141" /><stop
         id="stop702"
         offset="0.61236"
         style="stop-opacity:1;stop-color:#231f20" /><stop
         id="stop704"
         offset="1"
         style="stop-opacity:1;stop-color:#231f20" /></linearGradient><clipPath
       id="clipPath716"
       clipPathUnits="userSpaceOnUse"><path
         id="path714"
         d="m 2254.17,4376.14 -30.78,-83.6 64.66,1.26 z m -24.88,63.61 46.63,0.91 97.77,-239.81 -47.84,-0.94 -19.88,49.4 -98.6,-1.96 -18.67,-50.16 -47.81,-0.94 z" /></clipPath><linearGradient
       id="linearGradient724"
       spreadMethod="pad"
       gradientTransform="matrix(232.793,0,0,-232.793,2140.89,4318.46)"
       gradientUnits="userSpaceOnUse"
       y2="0"
       x2="1"
       y1="0"
       x1="0"><stop
         id="stop718"
         offset="0"
         style="stop-opacity:1;stop-color:#444141" /><stop
         id="stop720"
         offset="0.61236"
         style="stop-opacity:1;stop-color:#231f20" /><stop
         id="stop722"
         offset="1"
         style="stop-opacity:1;stop-color:#231f20" /></linearGradient><clipPath
       id="clipPath734"
       clipPathUnits="userSpaceOnUse"><path
         id="path732"
         d="m 2393.25,4438.48 132.88,-13.67 -4.62,-45.12 -43.83,4.51 -20.09,-195.32 -46.41,4.78 20.09,195.32 -42.66,4.38 z" /></clipPath><linearGradient
       id="linearGradient742"
       spreadMethod="pad"
       gradientTransform="matrix(137.52,0,0,-137.52,2388.61,4313.68)"
       gradientUnits="userSpaceOnUse"
       y2="0"
       x2="1"
       y1="0"
       x1="0"><stop
         id="stop736"
         offset="0"
         style="stop-opacity:1;stop-color:#444141" /><stop
         id="stop738"
         offset="0.61236"
         style="stop-opacity:1;stop-color:#231f20" /><stop
         id="stop740"
         offset="1"
         style="stop-opacity:1;stop-color:#231f20" /></linearGradient><clipPath
       id="clipPath752"
       clipPathUnits="userSpaceOnUse"><path
         id="path750"
         d="m 2554.04,4419.38 45.02,-7.86 -41.6,-238.1 -44.98,7.85 z" /></clipPath><linearGradient
       id="linearGradient760"
       spreadMethod="pad"
       gradientTransform="matrix(86.582,0,0,-86.582,2512.48,4296.39)"
       gradientUnits="userSpaceOnUse"
       y2="0"
       x2="1"
       y1="0"
       x1="0"><stop
         id="stop754"
         offset="0"
         style="stop-opacity:1;stop-color:#444141" /><stop
         id="stop756"
         offset="0.61236"
         style="stop-opacity:1;stop-color:#231f20" /><stop
         id="stop758"
         offset="1"
         style="stop-opacity:1;stop-color:#231f20" /></linearGradient><clipPath
       id="clipPath770"
       clipPathUnits="userSpaceOnUse"><path
         id="path768"
         d="m 2760.48,4331.86 c -21.42,6.46 -41.66,4.45 -60.75,-6.02 -19.09,-10.5 -32.07,-27.22 -39.03,-50.2 -7.72,-25.57 -4.65,-48.59 9.23,-69.03 10.78,-15.94 25.36,-26.7 43.86,-32.29 20.86,-6.3 40.94,-4.12 60.22,6.54 19.25,10.66 32.23,27.07 38.9,49.18 6.65,22.01 4.88,42.89 -5.31,62.64 -10.2,19.7 -25.9,32.78 -47.12,39.18 z m 13.48,42.95 c 32.77,-9.88 57.3,-30.21 73.72,-61.04 16.43,-30.81 19.46,-63.25 9.16,-97.34 -10.18,-33.75 -30.42,-58.82 -60.72,-75.2 -30.29,-16.36 -62.03,-19.54 -95.18,-9.53 -34.76,10.49 -59.98,31.2 -75.69,62.15 -15.76,30.95 -18.61,62.95 -8.65,95.98 6.67,22.12 18.15,40.86 34.49,56.19 16.26,15.32 35.44,25.59 57.46,30.78 22,5.2 43.8,4.54 65.41,-1.99 z" /></clipPath><linearGradient
       id="linearGradient778"
       spreadMethod="pad"
       gradientTransform="matrix(252.012,0,0,-252.012,2610.8,4253.13)"
       gradientUnits="userSpaceOnUse"
       y2="0"
       x2="1"
       y1="0"
       x1="0"><stop
         id="stop772"
         offset="0"
         style="stop-opacity:1;stop-color:#444141" /><stop
         id="stop774"
         offset="0.61236"
         style="stop-opacity:1;stop-color:#231f20" /><stop
         id="stop776"
         offset="1"
         style="stop-opacity:1;stop-color:#231f20" /></linearGradient><clipPath
       id="clipPath788"
       clipPathUnits="userSpaceOnUse"><path
         id="path786"
         d="m 2955.49,4304.72 39.36,-19.88 20.62,-188.59 71.71,141.96 41.05,-20.74 -108.95,-215.75 -39.51,19.97 -20.74,188.08 -71.46,-141.54 -41.04,20.75 z" /></clipPath><linearGradient
       id="linearGradient796"
       spreadMethod="pad"
       gradientTransform="matrix(281.699,0,0,-281.699,2846.53,4153.22)"
       gradientUnits="userSpaceOnUse"
       y2="0"
       x2="1"
       y1="0"
       x1="0"><stop
         id="stop790"
         offset="0"
         style="stop-opacity:1;stop-color:#444141" /><stop
         id="stop792"
         offset="0.61236"
         style="stop-opacity:1;stop-color:#231f20" /><stop
         id="stop794"
         offset="1"
         style="stop-opacity:1;stop-color:#231f20" /></linearGradient><clipPath
       id="clipPath806"
       clipPathUnits="userSpaceOnUse"><path
         id="path804"
         d="m 3089.11,4008.2 18.13,-30.95 -71.79,-36.09 -12.95,21.11 z" /></clipPath><linearGradient
       id="linearGradient814"
       spreadMethod="pad"
       gradientTransform="matrix(84.7363,0,0,-84.7363,3022.5,3974.68)"
       gradientUnits="userSpaceOnUse"
       y2="0"
       x2="1"
       y1="0"
       x1="0"><stop
         id="stop808"
         offset="0"
         style="stop-opacity:1;stop-color:#444141" /><stop
         id="stop810"
         offset="0.61236"
         style="stop-opacity:1;stop-color:#231f20" /><stop
         id="stop812"
         offset="1"
         style="stop-opacity:1;stop-color:#231f20" /></linearGradient><clipPath
       id="clipPath824"
       clipPathUnits="userSpaceOnUse"><path
         id="path822"
         d="m 3370.01,3958.42 -79.75,-39.71 47.94,-43.43 z m 25.55,63.36 34.59,-31.35 -93.45,-241.52 -35.42,32.1 19.4,49.6 -73.07,66.22 -47.99,-23.69 -35.46,32.1 z" /></clipPath><linearGradient
       id="linearGradient832"
       spreadMethod="pad"
       gradientTransform="matrix(265.996,0,0,-265.996,3164.16,3885.34)"
       gradientUnits="userSpaceOnUse"
       y2="0"
       x2="1"
       y1="0"
       x1="0"><stop
         id="stop826"
         offset="0"
         style="stop-opacity:1;stop-color:#444141" /><stop
         id="stop828"
         offset="0.61236"
         style="stop-opacity:1;stop-color:#231f20" /><stop
         id="stop830"
         offset="1"
         style="stop-opacity:1;stop-color:#231f20" /></linearGradient><clipPath
       id="clipPath842"
       clipPathUnits="userSpaceOnUse"><path
         id="path840"
         d="m 3530.94,3821.56 -118.74,-95.69 13.41,-16.63 c 13.22,-16.38 24.68,-26.76 34.37,-31.1 9.7,-4.34 20.89,-5.28 33.55,-2.82 12.68,2.47 25.46,8.93 38.44,19.41 19.99,16.08 30.97,34.17 33,54.22 1.76,18.03 -6.3,38.19 -24.25,60.45 z m 5.87,63.39 34.21,-42.43 c 22.04,-27.36 35.04,-50.4 38.96,-69.16 3.94,-18.75 1.74,-38.6 -6.59,-59.5 -8.32,-20.93 -22.68,-39.6 -43.05,-56.01 -14.53,-11.69 -29.77,-20.02 -45.82,-25.01 -16.02,-4.97 -31.48,-6.46 -46.32,-4.43 -14.85,2.01 -27.81,6.71 -38.83,14.13 -11.03,7.41 -26.4,23.29 -46.04,47.67 l -34.7,43.07 z" /></clipPath><linearGradient
       id="linearGradient850"
       spreadMethod="pad"
       gradientTransform="matrix(263.252,0,0,-263.252,3348.63,3756.24)"
       gradientUnits="userSpaceOnUse"
       y2="0"
       x2="1"
       y1="0"
       x1="0"><stop
         id="stop844"
         offset="0"
         style="stop-opacity:1;stop-color:#444141" /><stop
         id="stop846"
         offset="0.61236"
         style="stop-opacity:1;stop-color:#231f20" /><stop
         id="stop848"
         offset="1"
         style="stop-opacity:1;stop-color:#231f20" /></linearGradient><clipPath
       id="clipPath860"
       clipPathUnits="userSpaceOnUse"><path
         id="path858"
         d="m 3683.46,3698.33 23.78,-40.91 -117.9,-138.85 179.45,32.92 23.75,-40.84 -252.76,-46.13 -22.28,38.35 z" /></clipPath><linearGradient
       id="linearGradient868"
       spreadMethod="pad"
       gradientTransform="matrix(275.049,0,0,-275.049,3517.5,3581.42)"
       gradientUnits="userSpaceOnUse"
       y2="0"
       x2="1"
       y1="0"
       x1="0"><stop
         id="stop862"
         offset="0"
         style="stop-opacity:1;stop-color:#444141" /><stop
         id="stop864"
         offset="0.61236"
         style="stop-opacity:1;stop-color:#231f20" /><stop
         id="stop866"
         offset="1"
         style="stop-opacity:1;stop-color:#231f20" /></linearGradient><clipPath
       id="clipPath878"
       clipPathUnits="userSpaceOnUse"><path
         id="path876"
         d="m 3822.31,3335.52 c -7.81,20.98 -21.7,35.86 -41.59,44.7 -19.9,8.83 -41.08,9.07 -63.55,0.69 -25.09,-9.35 -41.51,-25.73 -49.35,-49.16 -6.21,-18.2 -5.91,-36.36 0.83,-54.46 7.64,-20.42 21.51,-35.07 41.66,-43.94 20.14,-8.87 41.06,-9.28 62.71,-1.19 21.54,8.04 37.09,22.1 46.59,42.16 9.56,20.05 10.43,40.45 2.7,61.2 z m 42.34,15.29 c 11.95,-32.05 10.65,-63.92 -3.94,-95.64 -14.58,-31.7 -38.59,-53.78 -71.89,-66.24 -33.09,-12.32 -65.29,-11.38 -96.68,2.84 -31.35,14.2 -53.07,37.54 -65.21,69.97 -12.7,34.01 -11.46,66.61 3.63,97.89 15.11,31.26 38.83,52.91 71.15,64.99 21.67,8.06 43.52,10.25 65.62,6.57 22.04,-3.7 41.83,-12.74 59.3,-27.11 17.45,-14.37 30.14,-32.11 38.02,-53.27 z" /></clipPath><linearGradient
       id="linearGradient886"
       spreadMethod="pad"
       gradientTransform="matrix(254.482,0,0,-254.482,3618.25,3306.63)"
       gradientUnits="userSpaceOnUse"
       y2="0"
       x2="1"
       y1="0"
       x1="0"><stop
         id="stop880"
         offset="0"
         style="stop-opacity:1;stop-color:#444141" /><stop
         id="stop882"
         offset="0.61236"
         style="stop-opacity:1;stop-color:#231f20" /><stop
         id="stop884"
         offset="1"
         style="stop-opacity:1;stop-color:#231f20" /></linearGradient><clipPath
       id="clipPath896"
       clipPathUnits="userSpaceOnUse"><path
         id="path894"
         d="m 3916.96,2936.63 -35.88,26.24 c 18.87,25.65 25.95,51.93 21.07,78.86 -4.06,22.74 -15.27,40.48 -33.62,53.25 -18.31,12.78 -38.87,17.12 -61.64,13.03 -15.9,-2.84 -29.35,-8.81 -40.43,-17.93 -11.04,-9.09 -18.93,-20.58 -23.71,-34.47 -4.72,-13.84 -5.7,-28.48 -2.94,-43.88 2.35,-13.13 6.94,-24.71 13.8,-34.71 6.89,-10 17.95,-20.34 33.22,-31.04 l -26.51,-36.46 c -20.31,14.48 -35.15,28.95 -44.61,43.38 -9.41,14.45 -15.96,31.7 -19.59,51.75 -6.6,36.97 -0.3,69.35 18.87,97.11 19.25,27.78 47.18,44.95 83.81,51.56 23.73,4.25 45.78,2.68 66.13,-4.75 20.37,-7.41 37.98,-20.11 52.78,-38.1 14.78,-17.99 24.28,-38.5 28.4,-61.59 3.53,-19.61 2.76,-39.25 -2.23,-58.91 -5.04,-19.66 -14,-37.44 -26.92,-53.34 z" /></clipPath><linearGradient
       id="linearGradient904"
       spreadMethod="pad"
       gradientTransform="matrix(254.717,0,0,-254.717,3693.58,3032.58)"
       gradientUnits="userSpaceOnUse"
       y2="0"
       x2="1"
       y1="0"
       x1="0"><stop
         id="stop898"
         offset="0"
         style="stop-opacity:1;stop-color:#444141" /><stop
         id="stop900"
         offset="0.61236"
         style="stop-opacity:1;stop-color:#231f20" /><stop
         id="stop902"
         offset="1"
         style="stop-opacity:1;stop-color:#231f20" /></linearGradient><clipPath
       id="clipPath914"
       clipPathUnits="userSpaceOnUse"><path
         id="path912"
         d="m 3900.07,2783.1 -83.49,31.08 1.04,-64.65 z m 63.7,24.67 0.76,-46.67 -240.16,-96.86 -0.8,47.81 49.47,19.71 -1.58,98.61 -50.08,18.87 -0.8,47.8 z" /></clipPath><linearGradient
       id="linearGradient922"
       spreadMethod="pad"
       gradientTransform="matrix(243.945,0,0,-243.945,3720.58,2780.64)"
       gradientUnits="userSpaceOnUse"
       y2="0"
       x2="1"
       y1="0"
       x1="0"><stop
         id="stop916"
         offset="0"
         style="stop-opacity:1;stop-color:#444141" /><stop
         id="stop918"
         offset="0.61236"
         style="stop-opacity:1;stop-color:#231f20" /><stop
         id="stop920"
         offset="1"
         style="stop-opacity:1;stop-color:#231f20" /></linearGradient><clipPath
       id="clipPath932"
       clipPathUnits="userSpaceOnUse"><path
         id="path930"
         d="m 3884.77,2395.17 -25.42,36.45 c 26.2,18.13 41.35,40.73 45.5,67.77 3.54,22.82 -1.33,43.24 -14.52,61.26 -13.23,18.03 -31.27,28.81 -54.14,32.33 -15.93,2.44 -30.61,1.15 -44.03,-3.87 -13.41,-5.02 -24.61,-13.32 -33.58,-24.9 -9,-11.57 -14.72,-25.11 -17.08,-40.58 -2.01,-13.18 -1.39,-25.62 1.87,-37.3 3.23,-11.67 10.38,-25.07 21.36,-40.17 l -36.88,-25.91 c -14.53,20.33 -23.9,38.84 -28.17,55.55 -4.25,16.74 -4.8,35.16 -1.74,55.29 5.72,37.13 22.14,65.72 49.34,85.76 27.16,20.04 59.17,27.23 95.99,21.59 23.83,-3.68 44.14,-12.31 61.03,-25.91 16.82,-13.62 29.36,-31.35 37.55,-53.15 8.14,-21.8 10.44,-44.31 6.9,-67.48 -3.01,-19.7 -10.09,-38.03 -21.24,-55 -11.11,-16.95 -25.36,-30.86 -42.74,-41.73 z" /></clipPath><linearGradient
       id="linearGradient940"
       spreadMethod="pad"
       gradientTransform="matrix(254.355,0,0,-254.355,3696,2517.73)"
       gradientUnits="userSpaceOnUse"
       y2="0"
       x2="1"
       y1="0"
       x1="0"><stop
         id="stop934"
         offset="0"
         style="stop-opacity:1;stop-color:#444141" /><stop
         id="stop936"
         offset="0.61236"
         style="stop-opacity:1;stop-color:#231f20" /><stop
         id="stop938"
         offset="1"
         style="stop-opacity:1;stop-color:#231f20" /></linearGradient><clipPath
       id="clipPath950"
       clipPathUnits="userSpaceOnUse"><path
         id="path948"
         d="m 3915.03,2346.62 -14.86,-47.12 -96.48,-16.82 69.41,-68.99 -14.69,-46.49 -109.39,108.71 -99.81,31.47 13.95,44.17 99.79,-31.49 z" /></clipPath><linearGradient
       id="linearGradient958"
       spreadMethod="pad"
       gradientTransform="matrix(265.82,0,0,-265.82,3649.21,2259.37)"
       gradientUnits="userSpaceOnUse"
       y2="0"
       x2="1"
       y1="0"
       x1="0"><stop
         id="stop952"
         offset="0"
         style="stop-opacity:1;stop-color:#444141" /><stop
         id="stop954"
         offset="0.61236"
         style="stop-opacity:1;stop-color:#231f20" /><stop
         id="stop956"
         offset="1"
         style="stop-opacity:1;stop-color:#231f20" /></linearGradient></defs><g
     transform="matrix(1.3333333,0,0,-1.3333333,0,663.08)"
     id="g10"><g
       transform="scale(0.1)"
       id="g12"><g
         id="g14"><g
           clip-path="url(#clipPath20)"
           id="g16"><path
             id="path30"
             style="fill:url(#radialGradient28);fill-opacity:1;fill-rule:nonzero;stroke:none"
             d="M 4595.5,2639.14 C 4595.5,1370.11 3566.73,341.398 2297.74,341.398 1028.73,341.398 0,1370.11 0,2639.14 c 0,1269 1028.73,2297.72 2297.74,2297.72 1268.99,0 2297.76,-1028.72 2297.76,-2297.72" /></g></g><path
         id="path32"
         style="fill:#06355a;fill-opacity:1;fill-rule:nonzero;stroke:none"
         d="m 816.172,849.422 c 0,0 31.644,-43.16 144.082,-18.32 112.446,24.738 360.196,121.949 360.196,121.949 l -205.83,261.079 c 0,0 -431.128,-201.55 -298.448,-364.708" /><path
         id="path34"
         style="fill:#06355a;fill-opacity:1;fill-rule:nonzero;stroke:none"
         d="m 3774.41,849.422 c 0,0 -31.63,-43.16 -144.09,-18.32 -112.44,24.738 -360.17,121.949 -360.17,121.949 l 205.81,261.079 c 0,0 431.15,-201.55 298.45,-364.708" /><path
         id="path36"
         style="fill:#0d6aaa;fill-opacity:1;fill-rule:nonzero;stroke:none"
         d="m 2297.49,4973.08 328.11,-148.04 357.87,39.39 266.31,-242.22 352.53,-73.1 178.47,-312.65 312.66,-178.47 73.11,-352.5 242.2,-266.35 -39.43,-357.84 148.08,-328.16 -148.08,-328.15 39.43,-357.81 -242.2,-266.39 -73.11,-352.49 -312.66,-178.44 -178.47,-312.649 -352.53,-73.16 -266.31,-242.199 -357.87,39.429 -328.11,-148.07 -328.16,148.07 -357.85,-39.429 -266.35,242.199 -352.493,73.16 -178.481,312.649 -312.652,178.44 -73.109,352.49 -242.227,266.39 39.434,357.81 -148.0707,328.15 148.0707,328.16 -39.434,357.84 242.227,266.35 73.109,352.5 312.652,178.47 178.481,312.65 352.493,73.1 266.35,242.22 357.85,-39.39 328.16,148.04" /><g
         id="g38"><g
           clip-path="url(#clipPath44)"
           id="g40"><path
             id="path58"
             style="fill:url(#linearGradient56);fill-opacity:1;fill-rule:nonzero;stroke:none"
             d="m 2297.49,4921.64 320.52,-144.6 349.59,38.48 260.14,-236.61 344.34,-71.4 174.33,-305.42 305.41,-174.33 71.43,-344.34 236.57,-260.17 -38.49,-349.54 144.67,-320.57 -144.67,-320.54 38.49,-349.53 -236.57,-260.2 -71.43,-344.33 -305.41,-174.35 -174.33,-305.389 -344.34,-71.403 -260.14,-236.617 -349.59,38.508 -320.52,-144.637 -320.58,144.637 -349.55,-38.508 -260.16,236.617 -344.36,71.403 -174.293,305.389 -305.434,174.35 -71.414,344.33 -236.597,260.2 38.496,349.53 -144.614,320.54 144.614,320.57 -38.496,349.54 236.597,260.17 71.414,344.34 305.434,174.33 174.293,305.42 344.36,71.4 260.16,236.61 349.55,-38.48 320.58,144.6" /></g></g><g
         id="g60"><g
           clip-path="url(#clipPath66)"
           id="g62"><path
             id="path80"
             style="fill:url(#radialGradient78);fill-opacity:1;fill-rule:nonzero;stroke:none"
             d="m 4351.19,2753.14 c 0,-1134.23 -919.47,-2053.73 -2053.7,-2053.73 -1134.25,0 -2053.74,919.5 -2053.74,2053.73 0,1134.24 919.49,2053.74 2053.74,2053.74 1134.23,0 2053.7,-919.5 2053.7,-2053.74" /></g></g><g
         id="g82"><g
           clip-path="url(#clipPath88)"
           id="g84"><path
             id="path98"
             style="fill:url(#radialGradient96);fill-opacity:1;fill-rule:nonzero;stroke:none"
             d="m 4318.3,2753.14 c 0,-1116.04 -904.73,-2020.82 -2020.81,-2020.82 -1116.08,0 -2020.853,904.78 -2020.853,2020.82 0,1116.07 904.773,2020.81 2020.853,2020.81 1116.08,0 2020.81,-904.74 2020.81,-2020.81" /></g></g><path
         id="path100"
         style="fill:#cf820c;fill-opacity:1;fill-rule:nonzero;stroke:none"
         d="m 2301.04,2076.05 v 0.07 c -1.62,0 -3.21,-0.04 -4.82,-0.04 -1.62,0 -3.22,0.04 -4.87,0.04 v -0.07 c -9.52,-0.04 -19.07,-0.04 -28.63,-0.15 -558.89,-8.25 -1194.06,-156.12 -1654.634,-431.74 152.535,-231.93 351.519,-430.55 583.734,-582.63 339.11,158.23 733.06,231.81 1098.04,233.38 0.51,0 1.01,0 1.49,0 v -0.02 c 1.65,0 3.25,0 4.87,0 1.61,0 3.23,0 4.82,0 v 0.02 c 0.5,0 1.02,0 1.55,0 365.53,-1.57 760.06,-75.39 1099.49,-234.08 232.33,151.97 431.4,350.43 584.08,582.24 -460.72,276.33 -1096.86,424.58 -1656.44,432.83 -9.53,0.11 -19.1,0.11 -28.68,0.15" /><g
         id="g102"><g
           clip-path="url(#clipPath108)"
           id="g104"><path
             id="path122"
             style="fill:url(#linearGradient120);fill-opacity:1;fill-rule:nonzero;stroke:none"
             d="m 2297.49,4773.95 c -1039.64,0 -1895.76,-785.13 -2008.17,-1794.75 410.996,182.53 924.49,322.42 1385.77,189.97 820.69,-235.64 1413.95,-781.44 2639.85,-531.59 2.16,38.26 3.36,76.75 3.36,115.56 0,1116.07 -904.73,2020.81 -2020.81,2020.81" /></g></g><path
         id="path124"
         style="fill:#ffffff;fill-opacity:1;fill-rule:nonzero;stroke:none"
         d="m 2297.49,4676.31 c -1060.46,0 -1923.189,-862.74 -1923.189,-1923.17 0,-1060.41 862.729,-1923.148 1923.189,-1923.148 1060.44,0 1923.14,862.738 1923.14,1923.148 0,1060.43 -862.7,1923.17 -1923.14,1923.17" /><g
         id="g126"><g
           clip-path="url(#clipPath132)"
           id="g128"><path
             id="path144"
             style="fill:url(#linearGradient142);fill-opacity:1;fill-rule:nonzero;stroke:none"
             d="m 4189.09,2753.14 c 0,-1044.69 -846.92,-1891.62 -1891.6,-1891.62 -1044.74,0 -1891.65,846.93 -1891.65,1891.62 0,1044.71 846.91,1891.63 1891.65,1891.63 1044.68,0 1891.6,-846.92 1891.6,-1891.63" /></g></g><g
         id="g146"><g
           clip-path="url(#clipPath152)"
           id="g148"><path
             id="path162"
             style="fill:url(#linearGradient160);fill-opacity:1;fill-rule:nonzero;stroke:none"
             d="m 2297.49,4644.77 c -953.07,0 -1741.385,-704.87 -1872.385,-1621.67 385.047,155.8 842.835,259.96 1257.885,140.78 786.47,-225.82 1361.44,-740.08 2501.31,-544.51 3.11,44.2 4.79,88.79 4.79,133.77 0,1044.71 -846.92,1891.63 -1891.6,1891.63" /></g></g><path
         id="path164"
         style="fill:#b2b1b1;fill-opacity:1;fill-rule:nonzero;stroke:none"
         d="m 3894.8,1694.97 c -451.18,242.98 -1041.59,373.2 -1565.08,380.93 -9.53,0.11 -19.1,0.11 -28.68,0.15 v 0.07 c -1.62,0 -3.21,-0.04 -4.82,-0.04 -1.62,0 -3.22,0.04 -4.87,0.04 v -0.07 c -9.52,-0.04 -19.07,-0.04 -28.63,-0.15 -522.78,-7.73 -1112.27,-137.61 -1563.208,-379.94 157.074,-236.99 365.398,-437 609.238,-584.17 310.86,123.49 657.32,181.73 981.11,183.12 h 1.49 v -0.02 c 1.65,0 3.25,0 4.87,0 1.61,0 3.23,0 4.82,0 v 0.02 h 1.55 c 324.28,-1.39 671.34,-59.81 982.58,-183.77 243.95,147.05 452.36,346.96 609.63,583.83" /><g
         id="g166"><g
           clip-path="url(#clipPath172)"
           id="g168"><path
             id="path186"
             style="fill:url(#linearGradient184);fill-opacity:1;fill-rule:nonzero;stroke:none"
             d="m 3590.14,2753.14 c 0,-713.97 -578.71,-1292.68 -1292.65,-1292.68 -713.98,0 -1292.7,578.71 -1292.7,1292.68 0,713.94 578.72,1292.7 1292.7,1292.7 713.94,0 1292.65,-578.76 1292.65,-1292.7" /></g></g><g
         id="g188"><g
           clip-path="url(#clipPath194)"
           id="g190"><path
             id="path208"
             style="fill:url(#radialGradient206);fill-opacity:1;fill-rule:nonzero;stroke:none"
             d="m 3548.45,2753.14 c 0,-690.9 -560.09,-1250.98 -1250.96,-1250.98 -690.91,0 -1251.01,560.08 -1251.01,1250.98 0,181.61 38.72,354.16 108.3,509.89 195.17,436.77 631.04,601.72 1140.32,601.72 690.93,0 1253.35,-420.7 1253.35,-1111.61" /></g></g><g
         id="g210"><g
           clip-path="url(#clipPath216)"
           id="g212"><path
             id="path230"
             style="fill:url(#linearGradient228);fill-opacity:1;fill-rule:nonzero;stroke:none"
             d="m 2297.49,4004.14 c -527.84,0 -979.05,-327.1 -1162.72,-789.52 181.95,15.78 364.92,4.92 540.32,-45.45 625.52,-179.61 1118.98,-539.41 1861.06,-589.75 7.93,56.81 12.3,114.74 12.3,173.72 0,690.91 -560.09,1251 -1250.96,1251" /></g></g><path
         id="path232"
         style="fill:#0d6aaa;fill-opacity:1;fill-rule:nonzero;stroke:none"
         d="m 1981.87,1201.8 h -89.85 l -27.79,85.45 c -3.33,10.27 -12.88,17.19 -23.64,17.19 -10.77,0 -20.36,-6.92 -23.68,-17.19 l -27.77,-85.45 h -89.86 c -10.79,0 -20.34,-6.97 -23.7,-17.25 -3.33,-10.21 0.37,-21.42 9.06,-27.77 l 72.72,-52.85 -27.78,-85.44 c -3.32,-10.29 0.32,-21.502 9.03,-27.83 8.72,-6.359 20.51,-6.359 29.25,0 l 72.73,52.81 72.7,-52.81 c 8.73,-6.359 20.52,-6.359 29.26,0 8.71,6.328 12.36,17.54 9.03,27.83 l -27.78,85.44 72.72,52.85 c 8.73,6.35 12.37,17.56 9.02,27.77 -3.3,10.28 -12.87,17.25 -23.67,17.25 z m 898.87,-17.25 c -3.31,10.28 -12.91,17.25 -23.66,17.25 h -89.9 l -27.75,85.45 c -3.35,10.27 -12.91,17.19 -23.68,17.19 -10.76,0 -20.33,-6.92 -23.69,-17.19 l -27.75,-85.45 h -89.9 c -10.74,0 -20.3,-6.97 -23.62,-17.25 -3.33,-10.21 0.3,-21.42 9.03,-27.77 l 72.69,-52.85 -27.75,-85.44 c -3.35,-10.29 0.32,-21.502 9,-27.83 8.77,-6.359 20.56,-6.359 29.28,0 l 72.71,52.81 72.73,-52.81 c 8.69,-6.359 20.52,-6.359 29.24,0 8.73,6.328 12.36,17.54 9.04,27.83 l -27.79,85.44 72.7,52.85 c 8.73,6.35 12.43,17.56 9.07,27.77 z m -409.98,-7.13 h -133.22 l -41.16,126.68 c -3.35,10.27 -12.89,17.2 -23.67,17.2 -10.76,0 -20.33,-6.93 -23.64,-17.2 l -41.19,-126.68 h -133.22 c -10.79,0 -20.33,-6.96 -23.68,-17.2 -3.31,-10.25 0.32,-21.48 9.06,-27.81 l 107.77,-78.3 -41.15,-126.712 c -3.33,-10.25 0.31,-21.488 9.02,-27.816 8.72,-6.371 20.53,-6.371 29.25,0 l 107.78,78.289 107.77,-78.289 c 8.72,-6.371 20.53,-6.371 29.28,0 8.68,6.328 12.35,17.566 9.02,27.816 l -41.19,126.712 107.79,78.3 c 8.73,6.33 12.38,17.56 9.07,27.81 -3.36,10.24 -12.93,17.2 -23.69,17.2" /><g
         id="g234"><g
           clip-path="url(#clipPath240)"
           id="g236"><path
             id="path254"
             style="fill:url(#radialGradient252);fill-opacity:1;fill-rule:nonzero;stroke:none"
             d="m 2272.71,1296.44 46.74,-143.91 h 151.31 l -122.42,-88.94 46.76,-143.891 -122.39,88.941 -122.4,-88.941 46.76,143.891 -122.41,88.94 h 151.28 l 46.77,143.91" /></g></g><g
         id="g256"><g
           clip-path="url(#clipPath262)"
           id="g258"><path
             id="path276"
             style="fill:url(#radialGradient274);fill-opacity:1;fill-rule:nonzero;stroke:none"
             d="m 2715.75,1279.59 33.37,-102.67 h 107.96 l -87.35,-63.48 33.37,-102.66 -87.35,63.46 -87.33,-63.46 33.35,102.66 -87.36,63.48 h 107.97 l 33.37,102.67" /></g></g><g
         id="g278"><g
           clip-path="url(#clipPath284)"
           id="g280"><path
             id="path298"
             style="fill:url(#radialGradient296);fill-opacity:1;fill-rule:nonzero;stroke:none"
             d="m 1840.59,1279.59 33.33,-102.67 h 107.95 l -87.33,-63.48 33.37,-102.66 -87.32,63.46 -87.36,-63.46 33.38,102.66 -87.33,63.48 h 107.95 l 33.36,102.67" /></g></g><g
         id="g300"><g
           clip-path="url(#clipPath306)"
           id="g302"><path
             id="path320"
             style="fill:url(#linearGradient318);fill-opacity:1;fill-rule:nonzero;stroke:none"
             d="m 4188.59,1636.98 c -462.21,365.56 -1211.74,562.13 -1858.87,571.69 -9.53,0.13 -19.1,0.13 -28.68,0.16 v 0.02 c -1.62,0 -3.21,0 -4.82,0 -1.62,0 -3.22,0 -4.87,0 v -0.02 c -9.52,-0.03 -19.07,-0.03 -28.63,-0.16 C 1615.59,2199.11 866.023,2002.54 403.852,1636.98 329.164,1570.67 269.965,1456.12 351.41,1361.87 523.137,1162.45 816.172,849.422 816.172,849.422 c -22.039,22.129 -20.957,96.289 57.633,157.828 391.045,288.13 929.285,418.33 1416.055,420.43 0.51,0 1.01,0 1.49,0 v -0.02 c 1.65,0 3.25,0 4.87,0 1.61,0 3.23,0 4.82,0 v 0.02 c 0.5,0 1.02,0 1.55,0 486.76,-2.1 1024.98,-132.3 1416,-420.43 78.64,-61.539 79.72,-135.699 57.69,-157.828 0,0 293.01,313.028 464.75,512.448 81.45,94.25 22.25,208.8 -52.44,275.11" /></g></g><g
         id="g322"><g
           clip-path="url(#clipPath328)"
           id="g324"><path
             id="path342"
             style="fill:url(#linearGradient340);fill-opacity:1;fill-rule:nonzero;stroke:none"
             d="m 4133.77,1550.86 c -448.82,356.07 -1176.66,547.49 -1805.04,556.79 -9.28,0.13 -18.53,0.13 -27.84,0.16 v 0.06 c -1.55,0 -3.11,-0.02 -4.67,-0.02 -1.56,0 -3.13,0.02 -4.69,0.02 v -0.06 c -9.31,-0.03 -18.56,-0.03 -27.86,-0.16 -628.33,-9.3 -1356.197,-200.72 -1804.979,-556.79 -60.503,-53.95 -110.5,-140.56 -79.437,-221.09 14.523,-16.63 29.664,-33.89 45.258,-51.46 -19.285,76.67 29.062,170.11 84.429,218.85 437.176,342.41 1143.509,517.3 1755.589,526.18 9.04,0.13 18.07,0.13 27.12,0.18 v 0.07 c 1.5,0 3.05,0 4.57,0 1.48,0 3.07,0 4.58,0 v -0.07 c 9.03,-0.05 18.06,-0.05 27.1,-0.18 612.13,-8.88 1321.1,-193.02 1758.25,-535.43 55.32,-48.6 101.33,-134.3 82.05,-209.33 15.42,17.48 30.51,34.62 44.97,51.19 31.1,80.53 -18.94,167.14 -79.4,221.09 z M 3827.5,1173.22 c -373.99,291.03 -980.54,447.5 -1504.18,455.06 -7.74,0.17 -15.45,0.17 -23.2,0.19 v 0 c -1.28,0 -2.61,0 -3.9,0 -1.29,0 -2.6,0 -3.92,0 v 0 c -7.74,-0.02 -15.47,-0.02 -23.2,-0.19 -523.63,-7.56 -1130.18,-164.03 -1504.151,-455.06 -60.457,-52.8 -108.328,-143.97 -42.433,-218.939 6.839,-7.832 13.964,-15.89 21.214,-24.121 -32.406,65.602 9.547,137.8 60.836,182.01 364.304,279.85 955.174,430.35 1465.254,437.63 7.52,0.1 15.05,0.1 22.58,0.14 v 0.03 c 1.26,0 2.55,0 3.82,0 1.28,0 2.54,0 3.79,0 v -0.03 c 7.54,-0.04 15.08,-0.04 22.61,-0.14 510.06,-7.28 1100.95,-157.78 1465.27,-437.63 51.28,-44.21 93.19,-116.408 60.85,-181.99 7.25,8.211 14.36,16.269 21.19,24.101 65.91,74.969 17.98,166.139 -42.43,218.939" /></g></g><g
         transform="scale(10)"
         id="g344"><text
           id="text348"
           style="font-variant:normal;font-weight:bold;font-size:33.65009308px;font-family:'Century Schoolbook L';-inkscape-font-specification:CenturyGothic-Bold;writing-mode:lr-tb;fill:#918f90;fill-opacity:1;fill-rule:nonzero;stroke:none"
           transform="matrix(-0.324195,0.94599,0.94599,0.324195,97.4059,219.879)"><tspan
             id="tspan346"
             y="0"
             x="0">R</tspan></text>
<text
           id="text352"
           style="font-variant:normal;font-weight:bold;font-size:33.65010834px;font-family:'Century Schoolbook L';-inkscape-font-specification:CenturyGothic-Bold;writing-mode:lr-tb;fill:#918f90;fill-opacity:1;fill-rule:nonzero;stroke:none"
           transform="matrix(-0.210626,0.977567,0.977567,0.210626,91.5828,236.753)"><tspan
             id="tspan350"
             y="0"
             x="0">E</tspan></text>
<text
           id="text356"
           style="font-variant:normal;font-weight:bold;font-size:33.65010071px;font-family:'Century Schoolbook L';-inkscape-font-specification:CenturyGothic-Bold;writing-mode:lr-tb;fill:#918f90;fill-opacity:1;fill-rule:nonzero;stroke:none"
           transform="matrix(-0.101623,0.994823,0.994823,0.101623,88.1566,252.226)"><tspan
             id="tspan354"
             y="0"
             x="0">S</tspan></text>
<text
           id="text360"
           style="font-variant:normal;font-weight:bold;font-size:33.65018463px;font-family:'Century Schoolbook L';-inkscape-font-specification:CenturyGothic-Bold;writing-mode:lr-tb;fill:#918f90;fill-opacity:1;fill-rule:nonzero;stroke:none"
           transform="matrix(0.0437068,0.999044,0.999044,-0.0437068,86.0391,267.972)"><tspan
             id="tspan358"
             y="0"
             x="0">O</tspan></text>
<text
           id="text364"
           style="font-variant:normal;font-weight:bold;font-size:33.65011597px;font-family:'Century Schoolbook L';-inkscape-font-specification:CenturyGothic-Bold;writing-mode:lr-tb;fill:#918f90;fill-opacity:1;fill-rule:nonzero;stroke:none"
           transform="matrix(0.203728,0.979028,0.979028,-0.203728,87.3375,294.572)"><tspan
             id="tspan362"
             y="0"
             x="0">U</tspan></text>
<text
           id="text368"
           style="font-variant:normal;font-weight:bold;font-size:33.65011215px;font-family:'Century Schoolbook L';-inkscape-font-specification:CenturyGothic-Bold;writing-mode:lr-tb;fill:#918f90;fill-opacity:1;fill-rule:nonzero;stroke:none"
           transform="matrix(0.330932,0.943655,0.943655,-0.330932,91.3445,314.044)"><tspan
             id="tspan366"
             y="0"
             x="0">R</tspan></text>
<text
           id="text372"
           style="font-variant:normal;font-weight:bold;font-size:33.65008926px;font-family:'Century Schoolbook L';-inkscape-font-specification:CenturyGothic-Bold;writing-mode:lr-tb;fill:#918f90;fill-opacity:1;fill-rule:nonzero;stroke:none"
           transform="matrix(0.466822,0.884351,0.884351,-0.466822,96.9211,331.059)"><tspan
             id="tspan370"
             y="0"
             x="0">C</tspan></text>
<text
           id="text376"
           style="font-variant:normal;font-weight:bold;font-size:33.65021133px;font-family:'Century Schoolbook L';-inkscape-font-specification:CenturyGothic-Bold;writing-mode:lr-tb;fill:#918f90;fill-opacity:1;fill-rule:nonzero;stroke:none"
           transform="matrix(0.586078,0.810255,0.810255,-0.586078,108.565,352.707)"><tspan
             id="tspan374"
             y="0"
             x="0">E</tspan></text>
<text
           id="text380"
           style="font-variant:normal;font-weight:bold;font-size:33.65009308px;font-family:'Century Schoolbook L';-inkscape-font-specification:CenturyGothic-Bold;writing-mode:lr-tb;fill:#918f90;fill-opacity:1;fill-rule:nonzero;stroke:none"
           transform="matrix(0.67121,0.741267,0.741267,-0.67121,117.778,365.597)"><tspan
             id="tspan378"
             y="0"
             x="0">S</tspan></text>
<text
           id="text384"
           style="font-variant:normal;font-weight:bold;font-size:33.65011215px;font-family:'Century Schoolbook L';-inkscape-font-specification:CenturyGothic-Bold;writing-mode:lr-tb;fill:#918f90;fill-opacity:1;fill-rule:nonzero;stroke:none"
           transform="matrix(0.729264,0.684233,0.684233,-0.729264,128.461,377.253)"><tspan
             id="tspan382"
             y="0"
             x="0">,</tspan></text>
<text
           id="text388"
           style="font-variant:normal;font-weight:bold;font-size:33.65010452px;font-family:'Century Schoolbook L';-inkscape-font-specification:CenturyGothic-Bold;writing-mode:lr-tb;fill:#918f90;fill-opacity:1;fill-rule:nonzero;stroke:none"
           transform="matrix(0.814838,0.579689,0.579689,-0.814838,139.853,387.753)"><tspan
             id="tspan386"
             y="0"
             x="0">E</tspan></text>
<text
           id="text392"
           style="font-variant:normal;font-weight:bold;font-size:33.65009308px;font-family:'Century Schoolbook L';-inkscape-font-specification:CenturyGothic-Bold;writing-mode:lr-tb;fill:#918f90;fill-opacity:1;fill-rule:nonzero;stroke:none"
           transform="matrix(0.883644,0.468159,0.468159,-0.883644,152.594,397.195)"><tspan
             id="tspan390"
             y="0"
             x="0">D</tspan></text>
<text
           id="text396"
           style="font-variant:normal;font-weight:bold;font-size:33.65008545px;font-family:'Century Schoolbook L';-inkscape-font-specification:CenturyGothic-Bold;writing-mode:lr-tb;fill:#918f90;fill-opacity:1;fill-rule:nonzero;stroke:none"
           transform="matrix(0.942434,0.334391,0.334391,-0.942434,171.96,407.508)"><tspan
             id="tspan394"
             y="0"
             x="0">U</tspan></text>
<text
           id="text400"
           style="font-variant:normal;font-weight:bold;font-size:33.65011215px;font-family:'Century Schoolbook L';-inkscape-font-specification:CenturyGothic-Bold;writing-mode:lr-tb;fill:#918f90;fill-opacity:1;fill-rule:nonzero;stroke:none"
           transform="matrix(0.982864,0.184334,0.184334,-0.982864,190.619,414.456)"><tspan
             id="tspan398"
             y="0"
             x="0">C</tspan></text>
<text
           id="text404"
           style="font-variant:normal;font-weight:bold;font-size:33.65009308px;font-family:'Century Schoolbook L';-inkscape-font-specification:CenturyGothic-Bold;writing-mode:lr-tb;fill:#918f90;fill-opacity:1;fill-rule:nonzero;stroke:none"
           transform="matrix(0.999804,0.0197856,0.0197856,-0.999804,214.813,419.066)"><tspan
             id="tspan402"
             y="0"
             x="0">A</tspan></text>
<text
           id="text408"
           style="font-variant:normal;font-weight:bold;font-size:33.65008926px;font-family:'Century Schoolbook L';-inkscape-font-specification:CenturyGothic-Bold;writing-mode:lr-tb;fill:#918f90;fill-opacity:1;fill-rule:nonzero;stroke:none"
           transform="matrix(0.994742,-0.102409,-0.102409,-0.994742,238.011,419.302)"><tspan
             id="tspan406"
             y="0"
             x="0">T</tspan></text>
<text
           id="text412"
           style="font-variant:normal;font-weight:bold;font-size:33.65009689px;font-family:'Century Schoolbook L';-inkscape-font-specification:CenturyGothic-Bold;writing-mode:lr-tb;fill:#918f90;fill-opacity:1;fill-rule:nonzero;stroke:none"
           transform="matrix(0.985101,-0.171976,-0.171976,-0.985101,250.391,418.004)"><tspan
             id="tspan410"
             y="0"
             x="0">I</tspan></text>
<text
           id="text416"
           style="font-variant:normal;font-weight:bold;font-size:33.65010834px;font-family:'Century Schoolbook L';-inkscape-font-specification:CenturyGothic-Bold;writing-mode:lr-tb;fill:#918f90;fill-opacity:1;fill-rule:nonzero;stroke:none"
           transform="matrix(0.957323,-0.289021,-0.289021,-0.957323,258.207,417.315)"><tspan
             id="tspan414"
             y="0"
             x="0">O</tspan></text>
<text
           id="text420"
           style="font-variant:normal;font-weight:bold;font-size:33.65011215px;font-family:'Century Schoolbook L';-inkscape-font-specification:CenturyGothic-Bold;writing-mode:lr-tb;fill:#918f90;fill-opacity:1;fill-rule:nonzero;stroke:none"
           transform="matrix(0.892632,-0.450787,-0.450787,-0.892632,283.71,409.607)"><tspan
             id="tspan418"
             y="0"
             x="0">N</tspan></text>
<text
           id="text424"
           style="font-variant:normal;font-weight:bold;font-size:33.65009689px;font-family:'Century Schoolbook L';-inkscape-font-specification:CenturyGothic-Bold;writing-mode:lr-tb;fill:#918f90;fill-opacity:1;fill-rule:nonzero;stroke:none"
           transform="matrix(0.839004,-0.544125,-0.544125,-0.839004,304.263,398.863)"><tspan
             id="tspan422"
             y="0"
             x="0">,</tspan></text>
<text
           id="text428"
           style="font-variant:normal;font-weight:bold;font-size:33.65009308px;font-family:'Century Schoolbook L';-inkscape-font-specification:CenturyGothic-Bold;writing-mode:lr-tb;fill:#918f90;fill-opacity:1;fill-rule:nonzero;stroke:none"
           transform="matrix(0.740901,-0.671614,-0.671614,-0.740901,317.375,390.512)"><tspan
             id="tspan426"
             y="0"
             x="0">A</tspan></text>
<text
           id="text432"
           style="font-variant:normal;font-weight:bold;font-size:33.65009689px;font-family:'Century Schoolbook L';-inkscape-font-specification:CenturyGothic-Bold;writing-mode:lr-tb;fill:#918f90;fill-opacity:1;fill-rule:nonzero;stroke:none"
           transform="matrix(0.627549,-0.778577,-0.778577,-0.627549,334.658,374.947)"><tspan
             id="tspan430"
             y="0"
             x="0">D</tspan></text>
<text
           id="text436"
           style="font-variant:normal;font-weight:bold;font-size:33.65009308px;font-family:'Century Schoolbook L';-inkscape-font-specification:CenturyGothic-Bold;writing-mode:lr-tb;fill:#918f90;fill-opacity:1;fill-rule:nonzero;stroke:none"
           transform="matrix(0.502414,-0.864627,-0.864627,-0.502414,348.52,357.949)"><tspan
             id="tspan434"
             y="0"
             x="0">V</tspan></text>
<text
           id="text440"
           style="font-variant:normal;font-weight:bold;font-size:33.65010834px;font-family:'Century Schoolbook L';-inkscape-font-specification:CenturyGothic-Bold;writing-mode:lr-tb;fill:#918f90;fill-opacity:1;fill-rule:nonzero;stroke:none"
           transform="matrix(0.34944,-0.936959,-0.936959,-0.34944,359.848,339.128)"><tspan
             id="tspan438"
             y="0"
             x="0">O</tspan></text>
<text
           id="text444"
           style="font-variant:normal;font-weight:bold;font-size:33.65010834px;font-family:'Century Schoolbook L';-inkscape-font-specification:CenturyGothic-Bold;writing-mode:lr-tb;fill:#918f90;fill-opacity:1;fill-rule:nonzero;stroke:none"
           transform="matrix(0.176806,-0.984246,-0.984246,-0.176806,369.208,314.18)"><tspan
             id="tspan442"
             y="0"
             x="0">C</tspan></text>
<text
           id="text448"
           style="font-variant:normal;font-weight:bold;font-size:33.65011215px;font-family:'Century Schoolbook L';-inkscape-font-specification:CenturyGothic-Bold;writing-mode:lr-tb;fill:#918f90;fill-opacity:1;fill-rule:nonzero;stroke:none"
           transform="matrix(0.0162111,-0.999869,-0.999869,-0.0162111,373.583,289.975)"><tspan
             id="tspan446"
             y="0"
             x="0">A</tspan></text>
<text
           id="text452"
           style="font-variant:normal;font-weight:bold;font-size:33.65008926px;font-family:'Century Schoolbook L';-inkscape-font-specification:CenturyGothic-Bold;writing-mode:lr-tb;fill:#918f90;fill-opacity:1;fill-rule:nonzero;stroke:none"
           transform="matrix(-0.151832,-0.988406,-0.988406,0.151832,374.117,266.683)"><tspan
             id="tspan450"
             y="0"
             x="0">C</tspan></text>
<text
           id="text456"
           style="font-variant:normal;font-weight:bold;font-size:33.65011597px;font-family:'Century Schoolbook L';-inkscape-font-specification:CenturyGothic-Bold;writing-mode:lr-tb;fill:#918f90;fill-opacity:1;fill-rule:nonzero;stroke:none"
           transform="matrix(-0.300891,-0.953659,-0.953659,0.300891,370.305,242.386)"><tspan
             id="tspan454"
             y="0"
             x="0">Y</tspan></text>
</g><g
         id="g458"><g
           clip-path="url(#clipPath464)"
           id="g460"><path
             id="path474"
             style="fill:url(#linearGradient472);fill-opacity:1;fill-rule:nonzero;stroke:none"
             d="m 794.535,2229.1 -4.676,13.59 c -4.73,13.87 -9.824,22.78 -15.234,26.75 -5.441,3.96 -12.359,4.48 -20.785,1.62 -5,-1.73 -8.883,-4.5 -11.692,-8.34 -2.812,-3.85 -4.273,-8.24 -4.41,-13.13 -0.125,-4.84 1.805,-13.11 5.778,-24.66 l 4.078,-11.9 z m -74.461,-74.16 -15.797,46.09 c -8.668,25.27 -12.574,44.02 -11.718,56.25 0.82,12.3 5.355,23.47 13.578,33.56 8.242,10.1 19.515,17.61 33.804,22.54 15.039,5.12 28.825,5.83 41.399,2.08 12.562,-3.72 23.933,-11.96 34.086,-24.68 l 83.09,89 16.308,-47.55 -79.219,-84.62 1.368,-3.98 96.836,33.19 14.921,-43.53 -228.656,-78.35" /></g></g><g
         id="g476"><g
           clip-path="url(#clipPath482)"
           id="g478"><path
             id="path492"
             style="fill:url(#linearGradient490);fill-opacity:1;fill-rule:nonzero;stroke:none"
             d="m 658.316,2349.18 -27.789,128.97 44.008,9.5 18.176,-84.34 42.719,9.2 -18.16,84.32 43.214,9.32 18.161,-84.34 62.156,13.4 -18.168,84.34 44.168,9.51 27.801,-128.97 -236.286,-50.91" /></g></g><g
         id="g494"><g
           clip-path="url(#clipPath500)"
           id="g496"><path
             id="path510"
             style="fill:url(#linearGradient508);fill-opacity:1;fill-rule:nonzero;stroke:none"
             d="m 642.75,2660.11 33.367,-30.83 c -15.351,-13.58 -22.394,-26.56 -21.129,-38.88 0.61,-6.02 2.707,-10.77 6.325,-14.26 3.597,-3.49 7.417,-5.04 11.457,-4.63 4.031,0.41 7.71,2.16 11.035,5.27 4.402,4.21 13.562,16.46 27.449,36.72 12.812,18.98 20.941,30.49 24.371,34.58 8.438,10.25 16.738,17.75 24.883,22.48 8.152,4.75 17.308,7.67 27.43,8.7 19.722,2.01 36.726,-3.17 50.957,-15.48 14.265,-12.32 22.507,-29.45 24.757,-51.36 1.739,-17.12 -0.933,-32.47 -8.007,-46.03 -7.098,-13.58 -19.168,-25.8 -36.231,-36.7 l -27.148,36.1 c 20.074,13.75 29.339,28.14 27.797,43.2 -0.801,7.85 -3.77,14.21 -8.895,19.1 -5.117,4.88 -10.676,7.02 -16.664,6.41 -5.445,-0.57 -10.699,-3.14 -15.727,-7.74 -5.043,-4.6 -12.464,-14.32 -22.289,-29.24 -18.672,-28.36 -33.425,-46.98 -44.254,-55.8 -10.832,-8.84 -22.019,-13.83 -33.574,-15.01 -16.668,-1.71 -31.629,3.19 -44.836,14.69 -13.242,11.48 -20.816,26.55 -22.726,45.22 -1.211,11.98 0.39,23.7 4.824,35.14 4.465,11.41 13.398,24.22 26.828,38.35" /></g></g><g
         id="g512"><g
           clip-path="url(#clipPath518)"
           id="g514"><path
             id="path528"
             style="fill:url(#linearGradient526);fill-opacity:1;fill-rule:nonzero;stroke:none"
             d="m 648.617,2835.09 c -0.98,-22.36 5.973,-41.48 20.86,-57.39 14.871,-15.9 34.289,-24.38 58.253,-25.42 26.696,-1.17 48.227,7.47 64.618,25.98 12.804,14.37 19.621,31.18 20.457,50.46 0.957,21.82 -6.117,40.71 -21.203,56.76 -15.075,16.01 -34.18,24.54 -57.254,25.53 -22.993,1.02 -42.782,-5.85 -59.375,-20.6 -16.594,-14.75 -25.379,-33.2 -26.356,-55.32 z m -44.949,2.45 c 1.484,34.17 15.145,63 40.961,86.52 25.797,23.48 56.484,34.47 92.055,32.92 35.234,-1.56 64.523,-14.97 87.867,-40.31 23.344,-25.32 34.238,-55.28 32.738,-89.89 -1.586,-36.23 -15.43,-65.81 -41.543,-88.7 -26.117,-22.88 -56.383,-33.57 -90.867,-32.05 -23.094,0.99 -44.074,7.53 -62.961,19.53 -18.875,12.03 -33.559,28.04 -44.031,48.09 -10.465,20.04 -15.199,41.34 -14.219,63.89" /></g></g><g
         id="g530"><g
           clip-path="url(#clipPath536)"
           id="g532"><path
             id="path546"
             style="fill:url(#linearGradient544);fill-opacity:1;fill-rule:nonzero;stroke:none"
             d="m 626.656,3025.79 9.399,45.21 153.011,-31.85 c 13.18,-2.74 22.758,-3.52 28.704,-2.34 5.945,1.15 11.097,4.05 15.472,8.69 4.36,4.62 7.344,10.68 8.899,18.2 1.664,7.94 1.254,15.14 -1.2,21.63 -2.449,6.5 -6.25,11.45 -11.425,14.82 -5.168,3.36 -15.672,6.69 -31.536,10 l -147.398,30.66 9.406,45.2 141.082,-29.34 c 23.813,-4.97 40.043,-9.75 48.703,-14.34 8.672,-4.61 16.504,-11.57 23.504,-20.92 7.016,-9.36 11.547,-19.38 13.637,-30.12 2.07,-10.71 1.758,-22.63 -0.973,-35.7 -3.582,-17.16 -10.628,-31.26 -21.144,-42.34 -10.52,-11.07 -22.301,-18.1 -35.281,-21.11 -12.993,-3 -33.571,-1.57 -61.789,4.31 l -141.071,29.34" /></g></g><g
         id="g548"><g
           clip-path="url(#clipPath554)"
           id="g550"><path
             id="path564"
             style="fill:url(#linearGradient562);fill-opacity:1;fill-rule:nonzero;stroke:none"
             d="m 784.535,3266.99 4.766,13.62 c 4.859,13.79 6.383,23.95 4.566,30.41 -1.801,6.47 -6.894,11.2 -15.304,14.14 -4.977,1.74 -9.762,1.98 -14.344,0.69 -4.578,-1.29 -8.442,-3.8 -11.567,-7.58 -3.132,-3.75 -6.714,-11.42 -10.765,-22.95 l -4.16,-11.9 z m -104.363,-12.13 16.121,45.99 c 8.84,25.18 17.375,42.34 25.633,51.45 8.242,9.11 18.734,15.09 31.433,17.92 12.727,2.85 26.211,1.77 40.473,-3.23 15.016,-5.26 26.281,-13.24 33.824,-23.97 7.559,-10.71 11.399,-24.2 11.489,-40.5 l 120.351,18.48 -16.637,-47.46 -114.597,-17.42 -1.399,-3.98 96.61,-33.87 -15.227,-43.41 -228.074,80" /></g></g><g
         id="g566"><g
           clip-path="url(#clipPath572)"
           id="g568"><path
             id="path582"
             style="fill:url(#linearGradient580);fill-opacity:1;fill-rule:nonzero;stroke:none"
             d="m 894.242,3629.89 12.11,-42.78 c -30.688,-8.56 -52.403,-24.94 -65.176,-49.14 -10.789,-20.43 -12.879,-41.32 -6.305,-62.66 6.582,-21.36 20.106,-37.44 40.563,-48.25 14.246,-7.52 28.543,-11.08 42.871,-10.73 14.324,0.35 27.629,4.52 39.883,12.53 12.3,7.99 22.093,18.92 29.406,32.75 6.215,11.8 9.715,23.77 10.453,35.87 0.762,12.1 -1.594,27.08 -7.055,44.93 l 43.348,12.4 c 7.08,-23.94 9.89,-44.49 8.43,-61.69 -1.45,-17.2 -6.93,-34.78 -16.46,-52.8 -17.51,-33.23 -42.415,-54.86 -74.654,-64.92 -32.254,-10.03 -64.832,-6.36 -97.777,11.02 -21.301,11.25 -37.707,26.07 -49.176,44.45 -11.476,18.38 -17.512,39.21 -18.101,62.52 -0.59,23.27 4.593,45.27 15.523,66.01 9.316,17.64 21.992,32.65 38.063,45.04 16.062,12.39 34.074,20.87 54.054,25.45" /></g></g><g
         id="g584"><g
           clip-path="url(#clipPath590)"
           id="g586"><path
             id="path600"
             style="fill:url(#linearGradient598);fill-opacity:1;fill-rule:nonzero;stroke:none"
             d="m 890.719,3696.64 77.347,106.92 36.484,-26.38 -50.581,-69.91 35.422,-25.6 50.569,69.87 35.82,-25.88 -50.57,-69.9 51.52,-37.26 50.56,69.89 36.59,-26.48 -77.33,-106.9 -195.831,141.63" /></g></g><g
         id="g602"><g
           clip-path="url(#clipPath608)"
           id="g604"><path
             id="path618"
             style="fill:url(#linearGradient616);fill-opacity:1;fill-rule:nonzero;stroke:none"
             d="m 1111.26,3916.06 -0.56,-45.45 c -20.37,2.32 -34.71,-1.13 -43.04,-10.33 -4.06,-4.46 -6.19,-9.21 -6.36,-14.22 -0.19,-5.02 1.22,-8.89 4.22,-11.59 3.03,-2.74 6.77,-4.3 11.31,-4.68 6.06,-0.47 21.29,0.91 45.66,4.16 22.66,3.15 36.66,4.85 42.01,5.04 13.24,0.58 24.36,-0.57 33.36,-3.46 8.97,-2.87 17.25,-7.72 24.8,-14.58 14.7,-13.31 22.23,-29.38 22.62,-48.2 0.37,-18.84 -6.83,-36.45 -21.63,-52.78 -11.56,-12.76 -24.75,-21.04 -39.57,-24.85 -14.83,-3.79 -31.99,-3.03 -51.5,2.38 l 8.66,44.32 c 23.66,-5.71 40.54,-2.97 50.7,8.25 5.31,5.85 8.06,12.32 8.25,19.39 0.21,7.08 -1.92,12.64 -6.4,16.69 -4.06,3.67 -9.48,5.83 -16.26,6.5 -6.79,0.67 -19,-0.33 -36.65,-3.01 -33.59,-5.11 -57.29,-6.59 -71.09,-4.47 -13.79,2.14 -25,7.11 -33.6,14.91 -12.43,11.26 -18.8,25.62 -19.13,43.15 -0.3,17.53 5.85,33.24 18.41,47.14 8.1,8.94 17.88,15.59 29.34,19.93 11.48,4.33 26.96,6.24 46.45,5.76" /></g></g><g
         id="g620"><g
           clip-path="url(#clipPath626)"
           id="g622"><path
             id="path636"
             style="fill:url(#linearGradient634);fill-opacity:1;fill-rule:nonzero;stroke:none"
             d="m 1270.34,3841.39 34.38,10.16 17.84,-78.32 -23.6,-7.5 -28.62,75.66" /></g></g><g
         id="g638"><g
           clip-path="url(#clipPath644)"
           id="g640"><path
             id="path654"
             style="fill:url(#linearGradient652);fill-opacity:1;fill-rule:nonzero;stroke:none"
             d="m 1265.68,4096 107.51,76.48 26.1,-36.68 -70.28,-50.01 25.33,-35.61 70.29,50 25.61,-36.01 -70.28,-50.01 36.84,-51.82 70.31,50.02 26.19,-36.82 -107.51,-76.49 -140.11,196.95" /></g></g><g
         id="g656"><g
           clip-path="url(#clipPath662)"
           id="g658"><path
             id="path672"
             style="fill:url(#linearGradient670);fill-opacity:1;fill-rule:nonzero;stroke:none"
             d="m 1483.08,4186.12 71.39,-134.73 18.88,10 c 18.58,9.84 30.94,19.12 37.04,27.81 6.12,8.71 9.16,19.5 9.15,32.4 -0.02,12.9 -3.92,26.71 -11.73,41.44 -12.01,22.67 -27.68,36.91 -46.96,42.68 -17.38,5.19 -38.71,1.1 -63.97,-12.29 z m -61.13,17.82 48.16,25.52 c 31.04,16.45 56.16,24.82 75.33,25.1 19.14,0.32 38.21,-5.63 57.15,-17.76 18.95,-12.16 34.55,-29.8 46.81,-52.93 8.73,-16.45 13.99,-33.03 15.83,-49.72 1.85,-16.69 0.36,-32.13 -4.41,-46.31 -4.82,-14.2 -11.91,-26.02 -21.27,-35.45 -9.39,-9.43 -27.89,-21.47 -55.56,-36.12 l -48.89,-25.91 -113.15,213.58" /></g></g><g
         id="g674"><g
           clip-path="url(#clipPath680)"
           id="g676"><path
             id="path690"
             style="fill:url(#linearGradient688);fill-opacity:1;fill-rule:nonzero;stroke:none"
             d="m 1647.59,4316.84 43.5,15.45 52.29,-147.29 c 4.52,-12.68 8.81,-21.26 12.88,-25.73 4.1,-4.48 9.26,-7.39 15.48,-8.71 6.22,-1.33 12.96,-0.72 20.18,1.84 7.64,2.73 13.58,6.81 17.87,12.27 4.28,5.47 6.52,11.3 6.7,17.46 0.2,6.16 -2.4,16.87 -7.83,32.15 l -50.38,141.86 43.53,15.47 48.19,-135.81 c 8.15,-22.92 12.5,-39.26 13.07,-49.06 0.57,-9.81 -1.33,-20.11 -5.65,-30.95 -4.36,-10.85 -10.57,-19.95 -18.65,-27.29 -8.09,-7.33 -18.45,-13.25 -31.03,-17.73 -16.52,-5.86 -32.22,-7.17 -47.16,-3.93 -14.92,3.26 -27.04,9.65 -36.36,19.18 -9.32,9.55 -18.79,27.87 -28.43,55.02 l -48.2,135.8" /></g></g><g
         id="g692"><g
           clip-path="url(#clipPath698)"
           id="g694"><path
             id="path708"
             style="fill:url(#linearGradient706);fill-opacity:1;fill-rule:nonzero;stroke:none"
             d="m 2099.58,4391.81 -25.97,-36.05 c -25.79,18.68 -52.11,25.53 -79.02,20.47 -22.68,-4.24 -40.34,-15.6 -53,-34.03 -12.63,-18.43 -16.8,-39.01 -12.54,-61.76 2.96,-15.85 9.05,-29.26 18.24,-40.26 9.17,-10.99 20.73,-18.81 34.63,-23.45 13.91,-4.64 28.54,-5.53 43.92,-2.64 13.12,2.45 24.65,7.17 34.59,14.11 9.96,6.94 20.22,18.1 30.82,33.46 l 36.66,-26.25 c -14.34,-20.42 -28.7,-35.39 -43.06,-44.95 -14.36,-9.54 -31.57,-16.19 -51.59,-19.96 -36.95,-6.92 -69.37,-0.88 -97.28,18.14 -27.92,18.99 -45.3,46.79 -52.16,83.41 -4.45,23.68 -3.03,45.72 4.23,66.15 7.26,20.41 19.83,38.11 37.69,53.03 17.88,14.95 38.33,24.58 61.36,28.91 19.61,3.68 39.24,3.07 58.94,-1.8 19.7,-4.88 37.53,-13.71 53.54,-26.53" /></g></g><g
         id="g710"><g
           clip-path="url(#clipPath716)"
           id="g712"><path
             id="path726"
             style="fill:url(#linearGradient724);fill-opacity:1;fill-rule:nonzero;stroke:none"
             d="m 2254.17,4376.14 -30.78,-83.6 64.66,1.26 z m -24.88,63.61 46.63,0.91 97.77,-239.81 -47.84,-0.94 -19.88,49.4 -98.6,-1.96 -18.67,-50.16 -47.81,-0.94 88.4,243.5" /></g></g><g
         id="g728"><g
           clip-path="url(#clipPath734)"
           id="g730"><path
             id="path744"
             style="fill:url(#linearGradient742);fill-opacity:1;fill-rule:nonzero;stroke:none"
             d="m 2393.25,4438.48 132.88,-13.67 -4.62,-45.12 -43.83,4.51 -20.09,-195.32 -46.41,4.78 20.09,195.32 -42.66,4.38 4.64,45.12" /></g></g><g
         id="g746"><g
           clip-path="url(#clipPath752)"
           id="g748"><path
             id="path762"
             style="fill:url(#linearGradient760);fill-opacity:1;fill-rule:nonzero;stroke:none"
             d="m 2554.04,4419.38 45.02,-7.86 -41.6,-238.1 -44.98,7.85 41.56,238.11" /></g></g><g
         id="g764"><g
           clip-path="url(#clipPath770)"
           id="g766"><path
             id="path780"
             style="fill:url(#linearGradient778);fill-opacity:1;fill-rule:nonzero;stroke:none"
             d="m 2760.48,4331.86 c -21.42,6.46 -41.66,4.45 -60.75,-6.02 -19.09,-10.5 -32.07,-27.22 -39.03,-50.2 -7.72,-25.57 -4.65,-48.59 9.23,-69.03 10.78,-15.94 25.36,-26.7 43.86,-32.29 20.86,-6.3 40.94,-4.12 60.22,6.54 19.25,10.66 32.23,27.07 38.9,49.18 6.65,22.01 4.88,42.89 -5.31,62.64 -10.2,19.7 -25.9,32.78 -47.12,39.18 z m 13.48,42.95 c 32.77,-9.88 57.3,-30.21 73.72,-61.04 16.43,-30.81 19.46,-63.25 9.16,-97.34 -10.18,-33.75 -30.42,-58.82 -60.72,-75.2 -30.29,-16.36 -62.03,-19.54 -95.18,-9.53 -34.76,10.49 -59.98,31.2 -75.69,62.15 -15.76,30.95 -18.61,62.95 -8.65,95.98 6.67,22.12 18.15,40.86 34.49,56.19 16.26,15.32 35.44,25.59 57.46,30.78 22,5.2 43.8,4.54 65.41,-1.99" /></g></g><g
         id="g782"><g
           clip-path="url(#clipPath788)"
           id="g784"><path
             id="path798"
             style="fill:url(#linearGradient796);fill-opacity:1;fill-rule:nonzero;stroke:none"
             d="m 2955.49,4304.72 39.36,-19.88 20.62,-188.59 71.71,141.96 41.05,-20.74 -108.95,-215.75 -39.51,19.97 -20.74,188.08 -71.46,-141.54 -41.04,20.75 108.96,215.74" /></g></g><g
         id="g800"><g
           clip-path="url(#clipPath806)"
           id="g802"><path
             id="path816"
             style="fill:url(#linearGradient814);fill-opacity:1;fill-rule:nonzero;stroke:none"
             d="m 3089.11,4008.2 18.13,-30.95 -71.79,-36.09 -12.95,21.11 66.61,45.93" /></g></g><g
         id="g818"><g
           clip-path="url(#clipPath824)"
           id="g820"><path
             id="path834"
             style="fill:url(#linearGradient832);fill-opacity:1;fill-rule:nonzero;stroke:none"
             d="m 3370.01,3958.42 -79.75,-39.71 47.94,-43.43 z m 25.55,63.36 34.59,-31.35 -93.45,-241.52 -35.42,32.1 19.4,49.6 -73.07,66.22 -47.99,-23.69 -35.46,32.1 231.4,116.54" /></g></g><g
         id="g836"><g
           clip-path="url(#clipPath842)"
           id="g838"><path
             id="path852"
             style="fill:url(#linearGradient850);fill-opacity:1;fill-rule:nonzero;stroke:none"
             d="m 3530.94,3821.56 -118.74,-95.69 13.41,-16.63 c 13.22,-16.38 24.68,-26.76 34.37,-31.1 9.7,-4.34 20.89,-5.28 33.55,-2.82 12.68,2.47 25.46,8.93 38.44,19.41 19.99,16.08 30.97,34.17 33,54.22 1.76,18.03 -6.3,38.19 -24.25,60.45 z m 5.87,63.39 34.21,-42.43 c 22.04,-27.36 35.04,-50.4 38.96,-69.16 3.94,-18.75 1.74,-38.6 -6.59,-59.5 -8.32,-20.93 -22.68,-39.6 -43.05,-56.01 -14.53,-11.69 -29.77,-20.02 -45.82,-25.01 -16.02,-4.97 -31.48,-6.46 -46.32,-4.43 -14.85,2.01 -27.81,6.71 -38.83,14.13 -11.03,7.41 -26.4,23.29 -46.04,47.67 l -34.7,43.07 188.18,151.67" /></g></g><g
         id="g854"><g
           clip-path="url(#clipPath860)"
           id="g856"><path
             id="path870"
             style="fill:url(#linearGradient868);fill-opacity:1;fill-rule:nonzero;stroke:none"
             d="m 3683.46,3698.33 23.78,-40.91 -117.9,-138.85 179.45,32.92 23.75,-40.84 -252.76,-46.13 -22.28,38.35 165.96,195.46" /></g></g><g
         id="g872"><g
           clip-path="url(#clipPath878)"
           id="g874"><path
             id="path888"
             style="fill:url(#linearGradient886);fill-opacity:1;fill-rule:nonzero;stroke:none"
             d="m 3822.31,3335.52 c -7.81,20.98 -21.7,35.86 -41.59,44.7 -19.9,8.83 -41.08,9.07 -63.55,0.69 -25.09,-9.35 -41.51,-25.73 -49.35,-49.16 -6.21,-18.2 -5.91,-36.36 0.83,-54.46 7.64,-20.42 21.51,-35.07 41.66,-43.94 20.14,-8.87 41.06,-9.28 62.71,-1.19 21.54,8.04 37.09,22.1 46.59,42.16 9.56,20.05 10.43,40.45 2.7,61.2 z m 42.34,15.29 c 11.95,-32.05 10.65,-63.92 -3.94,-95.64 -14.58,-31.7 -38.59,-53.78 -71.89,-66.24 -33.09,-12.32 -65.29,-11.38 -96.68,2.84 -31.35,14.2 -53.07,37.54 -65.21,69.97 -12.7,34.01 -11.46,66.61 3.63,97.89 15.11,31.26 38.83,52.91 71.15,64.99 21.67,8.06 43.52,10.25 65.62,6.57 22.04,-3.7 41.83,-12.74 59.3,-27.11 17.45,-14.37 30.14,-32.11 38.02,-53.27" /></g></g><g
         id="g890"><g
           clip-path="url(#clipPath896)"
           id="g892"><path
             id="path906"
             style="fill:url(#linearGradient904);fill-opacity:1;fill-rule:nonzero;stroke:none"
             d="m 3916.96,2936.63 -35.88,26.24 c 18.87,25.65 25.95,51.93 21.07,78.86 -4.06,22.74 -15.27,40.48 -33.62,53.25 -18.31,12.78 -38.87,17.12 -61.64,13.03 -15.9,-2.84 -29.35,-8.81 -40.43,-17.93 -11.04,-9.09 -18.93,-20.58 -23.71,-34.47 -4.72,-13.84 -5.7,-28.48 -2.94,-43.88 2.35,-13.13 6.94,-24.71 13.8,-34.71 6.89,-10 17.95,-20.34 33.22,-31.04 l -26.51,-36.46 c -20.31,14.48 -35.15,28.95 -44.61,43.38 -9.41,14.45 -15.96,31.7 -19.59,51.75 -6.6,36.97 -0.3,69.35 18.87,97.11 19.25,27.78 47.18,44.95 83.81,51.56 23.73,4.25 45.78,2.68 66.13,-4.75 20.37,-7.41 37.98,-20.11 52.78,-38.1 14.78,-17.99 24.28,-38.5 28.4,-61.59 3.53,-19.61 2.76,-39.25 -2.23,-58.91 -5.04,-19.66 -14,-37.44 -26.92,-53.34" /></g></g><g
         id="g908"><g
           clip-path="url(#clipPath914)"
           id="g910"><path
             id="path924"
             style="fill:url(#linearGradient922);fill-opacity:1;fill-rule:nonzero;stroke:none"
             d="m 3900.07,2783.1 -83.49,31.08 1.04,-64.65 z m 63.7,24.67 0.76,-46.67 -240.16,-96.86 -0.8,47.81 49.47,19.71 -1.58,98.61 -50.08,18.87 -0.8,47.8 243.19,-89.27" /></g></g><g
         id="g926"><g
           clip-path="url(#clipPath932)"
           id="g928"><path
             id="path942"
             style="fill:url(#linearGradient940);fill-opacity:1;fill-rule:nonzero;stroke:none"
             d="m 3884.77,2395.17 -25.42,36.45 c 26.2,18.13 41.35,40.73 45.5,67.77 3.54,22.82 -1.33,43.24 -14.52,61.26 -13.23,18.03 -31.27,28.81 -54.14,32.33 -15.93,2.44 -30.61,1.15 -44.03,-3.87 -13.41,-5.02 -24.61,-13.32 -33.58,-24.9 -9,-11.57 -14.72,-25.11 -17.08,-40.58 -2.01,-13.18 -1.39,-25.62 1.87,-37.3 3.23,-11.67 10.38,-25.07 21.36,-40.17 l -36.88,-25.91 c -14.53,20.33 -23.9,38.84 -28.17,55.55 -4.25,16.74 -4.8,35.16 -1.74,55.29 5.72,37.13 22.14,65.72 49.34,85.76 27.16,20.04 59.17,27.23 95.99,21.59 23.83,-3.68 44.14,-12.31 61.03,-25.91 16.82,-13.62 29.36,-31.35 37.55,-53.15 8.14,-21.8 10.44,-44.31 6.9,-67.48 -3.01,-19.7 -10.09,-38.03 -21.24,-55 -11.11,-16.95 -25.36,-30.86 -42.74,-41.73" /></g></g><g
         id="g944"><g
           clip-path="url(#clipPath950)"
           id="g946"><path
             id="path960"
             style="fill:url(#linearGradient958);fill-opacity:1;fill-rule:nonzero;stroke:none"
             d="m 3915.03,2346.62 -14.86,-47.12 -96.48,-16.82 69.41,-68.99 -14.69,-46.49 -109.39,108.71 -99.81,31.47 13.95,44.17 99.79,-31.49 152.08,26.56" /></g></g><path
         id="path962"
         style="fill:#231f20;fill-opacity:1;fill-rule:nonzero;stroke:none"
         d="m 1254.56,3112.52 v -580.29 h 206.88 v 198.09 h 129.73 v -199.86 h 199.86 v 580.29 h -199.86 v -196.33 h -135 v 199.86 l -201.61,-1.76" /><path
         id="path964"
         style="fill:#231f20;fill-opacity:1;fill-rule:nonzero;stroke:none"
         d="m 3016.5,3110.75 v -576.78 h 215.65 v 203.36 h 152.52 v 147.28 h -152.52 v 61.36 h 173.54 v 166.55 l -389.19,-1.77" /><path
         id="path966"
         style="fill:#231f20;fill-opacity:1;fill-rule:nonzero;stroke:none"
         d="m 2291.76,2543.56 c -38.59,-15.2 -81.01,-23.62 -125.55,-23.62 -178.16,0 -322.59,134.62 -322.59,300.66 0,166.08 144.43,300.68 322.59,300.68 44.05,0 86.05,-8.23 124.29,-23.14 l 0.17,-220.54 c -35.07,36.82 -74.36,54.35 -103.44,54.35 -82.3,0 -133.24,-42.29 -133.24,-109.59 0,-67.28 56.65,-126.95 138.5,-118.34 33.33,3.51 75.4,21.06 99.94,50.86 l -0.67,-211.32" /><path
         id="path968"
         style="fill:#231f20;fill-opacity:1;fill-rule:nonzero;stroke:none"
         d="m 2631.34,2607.62 v -78.9 h 52.59 v 80.65 z m 24.52,264.72 -150.77,-122.71 v -224.41 l 305.05,3.5 v 219.16 l -56.09,45.58 v 78.88 h -40.31 v -43.83 l -57.88,43.83 m -151.29,-341.88 -171.82,3.51 203.36,576.78 h 234.95 l 208.62,-576.78 h -170.07 l -305.04,-3.51" /><path
         id="path970"
         style="fill:#ffffff;fill-opacity:1;fill-rule:nonzero;stroke:none"
         d="m 1246.29,3109.67 v -580.31 h 206.87 v 198.11 h 129.73 v -199.86 h 199.88 v 580.28 H 1582.89 V 2911.57 H 1447.9 v 199.85 l -201.61,-1.75" /><path
         id="path972"
         style="fill:#ffffff;fill-opacity:1;fill-rule:nonzero;stroke:none"
         d="m 3008.21,3107.89 v -576.78 h 215.65 v 203.37 h 152.52 v 147.27 h -152.52 v 61.36 h 173.56 v 166.56 l -389.21,-1.78" /><path
         id="path974"
         style="fill:#ffffff;fill-opacity:1;fill-rule:nonzero;stroke:none"
         d="m 2283.49,2540.71 c -38.59,-15.21 -81,-23.62 -125.57,-23.62 -178.14,0 -322.57,134.61 -322.57,300.66 0,166.07 144.43,300.67 322.57,300.67 44.07,0 86.07,-8.23 124.3,-23.12 l 0.18,-220.56 c -35.06,36.83 -74.36,54.34 -103.43,54.34 -82.31,0 -133.25,-42.27 -133.25,-109.57 0,-67.29 56.64,-126.95 138.48,-118.35 33.33,3.52 75.41,21.06 99.96,50.86 l -0.67,-211.31" /><path
         id="path976"
         style="fill:#ffffff;fill-opacity:1;fill-rule:nonzero;stroke:none"
         d="m 2623.05,2604.76 v -78.89 h 52.63 v 80.64 z m 24.56,264.73 -150.81,-122.71 v -224.42 l 305.09,3.51 v 219.15 l -56.13,45.58 v 78.89 h -40.32 v -43.84 l -57.83,43.84 m -151.31,-341.88 -171.82,3.5 203.36,576.78 h 234.93 l 208.62,-576.78 h -170.07 l -305.02,-3.5" /><g
         transform="scale(10)"
         id="g978"><text
           id="text982"
           style="font-variant:normal;font-weight:bold;font-size:38.84099579px;font-family:'Century Schoolbook L';-inkscape-font-specification:CenturyGothic-Bold;writing-mode:lr-tb;fill:#231f20;fill-opacity:1;fill-rule:nonzero;stroke:none"
           transform="matrix(0.971204,0.238249,0.238249,-0.971204,130.061,153.665)"><tspan
             id="tspan980"
             y="0"
             x="0">M</tspan></text>
<text
           id="text986"
           style="font-variant:normal;font-weight:bold;font-size:38.84100723px;font-family:'Century Schoolbook L';-inkscape-font-specification:CenturyGothic-Bold;writing-mode:lr-tb;fill:#231f20;fill-opacity:1;fill-rule:nonzero;stroke:none"
           transform="matrix(0.991613,0.129244,0.129244,-0.991613,171.761,162.967)"><tspan
             id="tspan984"
             y="0"
             x="0">E</tspan></text>
<text
           id="text990"
           style="font-variant:normal;font-weight:bold;font-size:38.84099579px;font-family:'Century Schoolbook L';-inkscape-font-specification:CenturyGothic-Bold;writing-mode:lr-tb;fill:#231f20;fill-opacity:1;fill-rule:nonzero;stroke:none"
           transform="matrix(0.999454,0.0330385,0.0330385,-0.999454,199.513,166.537)"><tspan
             id="tspan988"
             y="0"
             x="0">M</tspan></text>
<text
           id="text994"
           style="font-variant:normal;font-weight:bold;font-size:38.84099197px;font-family:'Century Schoolbook L';-inkscape-font-specification:CenturyGothic-Bold;writing-mode:lr-tb;fill:#231f20;fill-opacity:1;fill-rule:nonzero;stroke:none"
           transform="matrix(0.998066,-0.0621596,-0.0621596,-0.998066,242.233,167.289)"><tspan
             id="tspan992"
             y="0"
             x="0">B</tspan></text>
<text
           id="text998"
           style="font-variant:normal;font-weight:bold;font-size:38.8409996px;font-family:'Century Schoolbook L';-inkscape-font-specification:CenturyGothic-Bold;writing-mode:lr-tb;fill:#231f20;fill-opacity:1;fill-rule:nonzero;stroke:none"
           transform="matrix(0.989699,-0.143164,-0.143164,-0.989699,272.463,165.059)"><tspan
             id="tspan996"
             y="0"
             x="0">E</tspan></text>
<text
           id="text1002"
           style="font-variant:normal;font-weight:bold;font-size:38.84101486px;font-family:'Century Schoolbook L';-inkscape-font-specification:CenturyGothic-Bold;writing-mode:lr-tb;fill:#231f20;fill-opacity:1;fill-rule:nonzero;stroke:none"
           transform="matrix(0.972337,-0.233584,-0.233584,-0.972337,300.113,160.788)"><tspan
             id="tspan1000"
             y="0"
             x="0">R</tspan></text>
</g></g></g></svg>