<?xml version="1.0" encoding="UTF-8" standalone="no"?>
<!-- Created with Inkscape (http://www.inkscape.org/) -->

<svg
   xmlns:dc="http://purl.org/dc/elements/1.1/"
   xmlns:cc="http://creativecommons.org/ns#"
   xmlns:rdf="http://www.w3.org/1999/02/22-rdf-syntax-ns#"
   xmlns:svg="http://www.w3.org/2000/svg"
   xmlns="http://www.w3.org/2000/svg"
   xmlns:sodipodi="http://sodipodi.sourceforge.net/DTD/sodipodi-0.dtd"
   xmlns:inkscape="http://www.inkscape.org/namespaces/inkscape"
   id="svg2"
   version="1.1"
   inkscape:version="0.91 r13725"
   xml:space="preserve"
   width="697.42499"
   height="191.83749"
   viewBox="0 0 697.42499 191.83749"
   sodipodi:docname="Logo.svg"><metadata
     id="metadata8"><rdf:RDF><cc:Work
         rdf:about=""><dc:format>image/svg+xml</dc:format><dc:type
           rdf:resource="http://purl.org/dc/dcmitype/StillImage" /><dc:title></dc:title></cc:Work></rdf:RDF></metadata><defs
     id="defs6" /><sodipodi:namedview
     pagecolor="#ffffff"
     bordercolor="#666666"
     borderopacity="1"
     objecttolerance="10"
     gridtolerance="10"
     guidetolerance="10"
     inkscape:pageopacity="0"
     inkscape:pageshadow="2"
     inkscape:window-width="988"
     inkscape:window-height="655"
     id="namedview4"
     showgrid="false"
     inkscape:zoom="0.51188301"
     inkscape:cx="348.71249"
     inkscape:cy="95.918747"
     inkscape:window-x="24"
     inkscape:window-y="43"
     inkscape:window-maximized="0"
     inkscape:current-layer="g12" /><g
     id="g10"
     inkscape:groupmode="layer"
     inkscape:label="ink_ext_XXXXXX"
     transform="matrix(1.25,0,0,-1.25,0,191.8375)"><g
       id="g12"
       transform="scale(0.1,0.1)"><path
         d="m 3859.86,1104.17 c 0,-24.86 3.27,-40.27 9.81,-46.23 6.53,-5.97 21.46,-9.46 44.75,-10.47 1.64,-2.26 2.5,-6.15 2.6,-11.68 0.11,-5.53 -0.76,-9.2 -2.6,-11 -41.96,0.91 -69.03,1.35 -81.23,1.35 -13.43,0 -40.52,-0.44 -81.24,-1.35 -2.05,1.8 -3.06,5.47 -3.06,11 0,5.53 1.01,9.42 3.04,11.68 23.25,0.81 38.05,4.25 44.42,10.31 6.37,6.07 9.56,21.53 9.56,46.39 l 0,248.93 c 0,24.85 -3.19,40.28 -9.56,46.23 -6.37,5.97 -21.17,9.35 -44.42,10.17 -2.03,1.77 -3.04,5.44 -3.04,11 0,5.55 1.01,9.45 3.06,11.68 41.73,-0.89 68.61,-1.34 80.62,-1.34 13.65,0 40.92,0.45 81.85,1.34 1.64,-2.23 2.5,-6.07 2.6,-11.52 0.11,-5.44 -0.76,-9.17 -2.6,-11.16 -23.5,-0.82 -38.47,-4.2 -44.91,-10.17 -6.43,-5.95 -9.65,-21.38 -9.65,-46.23 l 0,-248.93"
         style="fill:#f9a72b;fill-opacity:1;fill-rule:nonzero;stroke:none"
         id="path14"
         inkscape:connector-curvature="0" /><path
         d="m 4289.93,1346.43 c 0,14.54 -0.66,25.61 -2,33.2 -1.32,7.57 -4.49,13.54 -9.5,17.89 -5,4.34 -10.22,7.12 -15.62,8.34 -5.43,1.2 -14.57,2.42 -27.44,3.64 -2.05,1.77 -3.12,5.44 -3.22,11 -0.11,5.55 0.96,9.45 3.22,11.68 41.88,-0.89 65.08,-1.34 69.58,-1.34 5.93,0 29.32,0.45 70.19,1.34 1.64,-2.23 2.46,-6.07 2.46,-11.52 0,-5.44 -0.82,-9.17 -2.46,-11.16 -23.5,-2.44 -38.46,-6.94 -44.9,-13.5 -6.44,-6.57 -9.65,-23.1 -9.65,-49.57 l 0,-305.73 c 0,-13.88 -4.81,-20.82 -14.41,-20.82 -9.2,0 -17.58,5.37 -25.14,16.08 l -219.17,274.99 c -10.84,13.75 -17.94,20.57 -21.3,20.47 -3.38,-0.1 -5.07,-10.26 -5.07,-30.47 l 0,-190.11 c 0,-14.55 0.66,-25.62 2,-33.2 1.32,-7.58 4.49,-13.54 9.5,-17.89 5,-4.34 10.21,-7.13 15.64,-8.33 5.41,-1.22 14.55,-2.54 27.43,-3.95 1.64,-2.26 2.5,-6.15 2.61,-11.68 0.1,-5.53 -0.77,-9.2 -2.61,-11 -41.89,0.91 -65.09,1.35 -69.59,1.35 -5.93,0 -29.32,-0.44 -70.19,-1.35 -2.05,1.8 -3.12,5.47 -3.22,11 -0.1,5.53 0.97,9.42 3.22,11.68 23.5,2.43 38.47,6.97 44.91,13.65 6.43,6.67 9.66,23.24 9.66,49.72 l 0,258.93 c -2.05,9.1 -7.67,17.79 -16.87,26.08 -9.2,8.28 -20.13,12.83 -32.79,13.65 -2.05,1.77 -3.07,5.44 -3.07,11 0,5.55 1.02,9.45 3.07,11.68 l 84.91,-1.23 215.18,-276.31 c 2.86,-3.67 5.98,-7.84 9.35,-12.52 3.37,-4.68 5.93,-8.03 7.67,-10.06 1.73,-2.01 3.52,-4.08 5.36,-6.21 1.84,-2.13 3.37,-3.59 4.6,-4.4 1.22,-0.81 2.25,-1.2 3.06,-1.2 2.87,0 4.4,6.25 4.6,18.8 l 0,207.38"
         style="fill:#f9a72b;fill-opacity:1;fill-rule:nonzero;stroke:none"
         id="path16"
         inkscape:connector-curvature="0" /><path
         d="m 3822.92,839.008 0,-145.344 c 7.55,-2.023 23.46,-3.035 47.72,-3.035 31,0 54.29,7.601 69.89,22.801 15.6,15.207 23.4,39.125 23.4,71.758 0,36.082 -7.95,60.71 -23.86,73.882 -15.9,13.172 -36.8,19.762 -62.7,19.762 -36.3,0 -54.45,-13.269 -54.45,-39.824 z m -53.94,-19.356 c 0,24.883 -3.19,40.313 -9.56,46.282 -6.37,5.968 -21.18,9.347 -44.42,10.144 -2.03,1.637 -3.04,5.188 -3.04,10.66 0,5.473 1.01,9.375 3.06,11.723 41.73,-0.828 68.61,-1.227 80.62,-1.227 9.22,0 24.72,0.711 46.53,2.141 21.82,1.434 35.08,2.141 39.79,2.141 26.31,0 48.96,-3.551 67.96,-10.661 19,-7.105 33.13,-16.492 42.44,-28.125 9.3,-11.644 15.87,-22.82 19.73,-33.527 3.86,-10.719 5.8,-21.644 5.8,-32.769 0,-14.789 -2.44,-29.219 -7.3,-43.286 -4.85,-14.078 -12.43,-27.746 -22.74,-40.988 -10.3,-13.25 -25.31,-23.937 -45.03,-32.047 -19.73,-8.121 -42.76,-12.168 -69.12,-12.168 -20.8,0 -37.73,2.188 -50.78,6.571 l 0,-104.571 c 0,-24.242 3.96,-39.316 11.85,-45.215 7.9,-5.91 25.11,-9.57 51.64,-10.98 2.02,-2.262 3.04,-6.148 3.04,-11.68 0,-5.531 -0.87,-9.199 -2.59,-11 -41.98,0.91 -72.17,1.352 -90.6,1.352 -13.44,0 -40.52,-0.442 -81.24,-1.352 -2.05,1.801 -3.06,5.469 -3.06,11 0,5.532 1.01,9.418 3.04,11.68 23.24,0.809 38.05,4.25 44.42,10.32 6.37,6.071 9.56,21.547 9.56,46.434 l 0,249.148"
         style="fill:#f9a72b;fill-opacity:1;fill-rule:nonzero;stroke:none"
         id="path18"
         inkscape:connector-curvature="0" /><path
         d="m 4147.54,492.301 c -33.8,-0.41 -60.88,-0.821 -81.24,-1.231 -2.04,1.801 -3.06,5.469 -3.06,11 0,5.532 1.02,9.418 3.04,11.68 23.25,0.809 38.06,4.25 44.42,10.309 6.37,6.07 9.56,21.531 9.56,46.394 l 0,248.926 c 0,24.855 -3.19,40.277 -9.56,46.234 -6.36,5.969 -21.17,9.348 -44.42,10.164 -2.02,1.774 -3.04,5.442 -3.04,11 0,5.559 1.02,9.453 3.06,11.684 41.74,-0.895 68.62,-1.344 80.62,-1.344 13.52,0 40.78,0.449 81.76,1.344 1.28,-2.231 1.94,-6.066 1.94,-11.52 0,-5.441 -0.81,-9.168 -2.43,-11.164 -23.25,-0.828 -38.05,-4.246 -44.43,-10.269 -6.37,-6.039 -9.55,-21.613 -9.55,-46.75 l 0,-272.508 c 0,-9.609 2.6,-17.219 7.81,-22.84 5.2,-5.629 12.38,-8.43 21.57,-8.43 l 45.9,0 c 30.59,0 53.5,7.2 68.7,21.614 15.19,14.406 26.36,34.578 33.51,60.535 7.14,1.226 13.99,0.203 20.54,-3.059 -4.1,-35.746 -9.51,-70.07 -16.25,-103 -38.63,0.821 -63.56,1.231 -74.8,1.231 l -133.65,0"
         style="fill:#f9a72b;fill-opacity:1;fill-rule:nonzero;stroke:none"
         id="path20"
         inkscape:connector-curvature="0" /><path
         d="m 4550.33,670.086 110.96,0 -58.85,170.738 -3.98,0 -64.07,-162.465 c -0.61,-1.226 -0.82,-2.343 -0.61,-3.367 0.2,-1.023 0.61,-1.84 1.23,-2.453 0.61,-0.613 1.63,-1.129 3.06,-1.527 1.42,-0.418 3.12,-0.672 5.05,-0.77 1.95,-0.109 4.35,-0.156 7.21,-0.156 z m -68.05,-126.473 c -0.41,-4.031 -1.02,-7.593 -1.84,-10.715 -0.82,-3.109 0.36,-5.726 3.52,-7.828 3.18,-2.121 5.68,-3.781 7.52,-4.992 1.84,-1.207 5.3,-2.308 10.41,-3.308 5.12,-1.008 9.1,-1.598 11.96,-1.809 2.86,-0.199 6.84,-0.602 11.96,-1.211 1.63,-2.262 2.45,-6.148 2.45,-11.68 0,-5.531 -0.82,-9.199 -2.45,-11 -31.07,0.91 -57.83,1.352 -80.31,1.352 -6.34,0 -25.04,-0.442 -56.1,-1.352 -2.04,1.801 -3.07,5.469 -3.07,11 0,5.532 1.03,9.418 3.07,11.68 15.94,1.219 28.51,4.469 37.71,9.762 9.19,5.277 17.57,16.859 25.13,34.742 l 142.54,334.687 c 9.19,0 20.74,4.184 34.64,12.567 l 129.35,-357.301 c 2.46,-7.523 5.47,-13.566 9.05,-18.148 3.57,-4.579 8.48,-7.969 14.71,-10.207 6.23,-2.231 10.93,-3.563 14.11,-3.961 3.16,-0.411 9.34,-1.121 18.54,-2.141 2.04,-2.262 3.06,-6.148 3.06,-11.68 0,-5.531 -1.02,-9.199 -3.06,-11 -31.06,0.91 -54.97,1.352 -71.73,1.352 -23.91,0 -51.29,-0.442 -82.16,-1.352 -1.63,1.801 -2.45,5.469 -2.45,11 0,5.532 0.82,9.418 2.45,11.68 2.46,0 5.68,0.148 9.66,0.449 3.98,0.301 7.05,0.563 9.2,0.762 2.14,0.211 4.91,0.508 8.28,0.91 3.36,0.399 5.87,0.789 7.5,1.199 1.64,0.399 3.58,1.008 5.83,1.801 2.24,0.809 3.83,1.82 4.75,3.02 0.92,1.211 1.69,2.668 2.3,4.379 0.62,1.71 0.81,3.57 0.62,5.57 -0.21,2.019 -0.72,4.433 -1.54,7.246 l -36.48,104.637 -132.42,0 c -7.57,0 -12.72,-0.75 -15.48,-2.258 -2.76,-1.512 -4.96,-4.274 -6.59,-8.297 l -34.64,-89.555"
         style="fill:#f9a72b;fill-opacity:1;fill-rule:nonzero;stroke:none"
         id="path22"
         inkscape:connector-curvature="0" /><path
         d="m 5021.03,486.16 c -42.5,0 -79.1,10.141 -109.82,30.399 -30.71,20.257 -53.07,45.484 -67.06,75.671 -13.99,30.18 -20.99,62.872 -20.99,98.075 0,67.34 21.84,121.324 65.55,161.941 38.27,35.504 82.58,53.262 132.93,53.262 30.08,0 59.49,-4.555 88.23,-13.649 28.74,-9.101 45.26,-13.851 49.56,-14.254 7.14,-44.011 11.74,-76.453 13.79,-97.332 -7.97,-4.101 -14.92,-5.121 -20.85,-3.07 -21.27,70.41 -67.1,105.621 -137.47,105.621 -36.63,0 -70.08,-18.633 -100.36,-55.883 -11.87,-14.531 -21.07,-32.339 -27.62,-53.425 -6.54,-21.086 -9.81,-44.832 -9.81,-71.235 0,-32.34 5,-62.543 15.03,-90.578 10.03,-28.051 26.19,-51.734 48.48,-71.082 22.31,-19.34 48.9,-29.012 79.8,-29.012 29.25,0 55.32,5.371 78.24,16.11 22.92,10.754 45.42,28.304 67.51,52.664 6.33,0 11.13,-3.172 14.4,-9.52 -43.14,-56.465 -96.33,-84.703 -159.54,-84.703"
         style="fill:#f9a72b;fill-opacity:1;fill-rule:nonzero;stroke:none"
         id="path24"
         inkscape:connector-curvature="0" /><path
         d="m 5377.21,717.906 c 25.48,0 41.11,2.551 46.93,7.66 5.81,5.106 9.12,17.145 9.94,36.11 1.63,2.086 5,3.125 10.11,3.125 5.1,0 8.68,-1.02 10.73,-3.086 -0.82,-25.34 -1.23,-43.586 -1.23,-54.711 0,-7.555 0.41,-25.938 1.23,-55.133 -2.05,-2.367 -5.57,-3.543 -10.57,-3.543 -5.02,0 -8.43,1.031 -10.27,3.125 -0.82,11.457 -2.05,19.695 -3.67,24.699 -1.64,5.004 -6.63,9.434 -14.99,13.289 -8.35,3.856 -21.09,5.782 -38.21,5.782 l -56.86,0 0,-152.993 c 0,-18.171 7.43,-27.25 22.31,-27.25 l 85.24,0 c 39.72,0 67.01,27.668 81.89,82.997 7.55,1.652 14.91,0.621 22.07,-3.098 -5.11,-32.777 -12.87,-67.391 -23.3,-103.809 -33.47,0.821 -60.2,1.231 -80.2,1.231 l -134.67,0 c -33.81,-0.41 -60.99,-0.821 -81.55,-1.231 -1.64,1.801 -2.45,5.469 -2.45,11 0,5.532 0.81,9.418 2.43,11.68 23.24,0.809 38.1,4.25 44.57,10.309 6.47,6.07 9.71,21.531 9.71,46.394 l 0,248.926 c 0,24.855 -3.27,40.277 -9.81,46.234 -6.54,5.969 -21.57,9.348 -45.06,10.164 -1.64,1.782 -2.45,5.469 -2.45,11.059 0,5.59 0.81,9.465 2.45,11.625 l 81.23,-1.227 160.02,0 c 10.82,0 21.04,0.809 30.64,2.454 1.64,0 2.46,-0.614 2.46,-1.84 3.27,-14.164 7.97,-44.192 14.1,-90.082 -6.74,-3.348 -13.69,-4.391 -20.85,-3.137 -7.93,25.711 -16.28,43.793 -25.04,54.238 -8.75,10.453 -23.92,15.684 -45.49,15.684 l -65.96,0 c -7.13,0 -12.62,-2.668 -16.49,-7.992 -3.87,-5.329 -5.8,-12.063 -5.8,-20.211 l 0,-128.442 56.86,0"
         style="fill:#f9a72b;fill-opacity:1;fill-rule:nonzero;stroke:none"
         id="path26"
         inkscape:connector-curvature="0" /><path
         d="m 77.3867,536.645 c -0.6601,4.941 -0.3359,9.218 0.9922,12.847 1.3125,3.621 3.457,7.567 6.4219,11.86 2.9648,4.277 5.7656,10.378 8.4062,18.289 0,126.543 1.3125,254.879 3.9532,385.035 2.6289,130.144 1.3164,257.504 -3.9532,382.064 -3.3086,7.91 -6.4257,14.17 -9.3945,18.78 -2.9648,4.61 -5.9297,8.73 -8.8945,12.36 -2.9649,3.62 -5.7774,7.07 -8.4063,10.38 -2.6406,3.28 -4.9375,7.58 -6.9179,12.85 5.9375,8.57 13.1796,14.82 21.75,18.78 8.5546,3.95 17.7929,6.27 27.6762,6.93 9.89,0.64 20.269,0.31 31.144,-1 10.871,-1.32 21.899,-3.3 33.109,-5.93 8.563,0 21.582,1 39.055,2.96 17.445,1.99 36.074,3.62 55.848,4.95 19.765,1.31 39.047,1.64 57.832,1 18.781,-0.68 33.437,-3.32 43.988,-7.91 0,-11.87 0.152,-23.91 0.488,-36.09 0.332,-12.2 1.149,-24.57 2.477,-37.07 -5.281,-5.28 -12.199,-7.91 -20.766,-7.91 -9.882,0 -19.937,2.8 -30.144,8.4 -10.227,5.6 -19.617,9.72 -28.172,12.36 -30.316,1.98 -53.727,3.29 -70.191,3.96 -16.477,0.65 -28.668,0.98 -36.571,0.98 -8.574,0 -14.504,-0.49 -17.793,-1.48 -3.308,-0.99 -6.594,-1.82 -9.89,-2.47 -3.301,-63.26 -5.11,-117.64 -5.434,-163.11 -0.344,-45.47 0.152,-83.37 1.48,-113.67 1.313,-30.32 3.122,-53.06 5.442,-68.22 2.301,-15.16 4.449,-24.058 6.422,-26.683 17.133,3.285 34.754,3.945 52.886,1.98 18.122,-1.98 36.083,-2.328 53.875,-0.992 15.821,7.234 28.172,9.545 37.071,6.918 8.894,-2.641 14.98,-8.082 18.289,-16.305 3.289,-8.258 4.277,-18.793 2.965,-31.64 -1.328,-12.848 -4.293,-25.551 -8.899,-38.055 -10.547,0 -18.457,0.645 -23.722,1.98 -5.286,1.305 -9.391,2.957 -12.356,4.938 -2.969,1.98 -5.437,4.105 -7.414,6.418 -1.98,2.309 -4.945,4.117 -8.898,5.441 -15.168,0 -26.86,0.5 -35.09,1.477 -8.25,0.992 -15.664,1.808 -22.246,2.484 -6.594,0.645 -13.344,0.817 -20.262,0.489 -6.918,-0.344 -16.652,-1.825 -29.164,-4.45 -5.281,-28.34 -8.402,-57.007 -9.387,-86.004 -0.992,-28.996 -1.164,-58.324 -0.496,-87.984 0.645,-29.644 1.801,-59.301 3.461,-88.957 1.637,-29.66 2.469,-59.316 2.469,-88.977 9.222,-11.21 14.828,-19.765 16.801,-25.695 1.984,-5.93 2.476,-10.883 1.488,-14.828 -0.992,-3.945 -2.965,-7.574 -5.93,-10.863 -2.972,-3.321 -4.797,-7.602 -5.441,-12.864 -9.239,-1.328 -16.801,-1.66 -22.739,-1 -5.929,0.672 -11.707,1.153 -17.296,1.5 -5.606,0.313 -11.536,0.641 -17.793,0.993 -6.27,0.308 -14.0121,0.14 -23.2269,-0.5 -5.2852,9.23 -8.25,16.3 -8.9024,21.254"
         style="fill:#3871c1;fill-opacity:1;fill-rule:nonzero;stroke:none"
         id="path28"
         inkscape:connector-curvature="0" /><path
         d="m 679.898,495.129 c -22.093,2.312 -45.32,3.461 -69.695,3.461 -23.723,0 -47.129,-0.5 -70.183,-1.488 -23.075,-0.993 -43.668,-1.313 -61.786,-0.993 -18.136,0.34 -32.793,2.153 -43.992,5.442 -11.211,3.301 -16.801,8.898 -16.801,16.808 0,15.141 2.297,24.215 6.918,27.172 4.602,2.973 9.227,4.449 13.84,4.449 3.953,0 6.582,0.333 7.91,0.993 0.645,65.89 1.141,132.468 1.481,199.679 0.328,67.227 0.492,135.43 0.492,204.637 0,69.841 0.16,138.711 0.496,206.601 0.324,67.87 0.496,135.08 0.496,201.66 -7.258,7.24 -12.031,13.5 -14.336,18.78 -2.316,5.27 -3.457,9.89 -3.457,13.84 0,5.26 0.817,9.23 2.469,11.87 1.637,2.61 2.477,5.25 2.477,7.89 15.152,9.23 29.156,14.34 42.007,15.34 12.852,0.99 28.821,-4.14 47.942,-15.34 0,-9.23 -1.156,-17.95 -3.461,-26.18 -2.309,-8.25 -7.414,-15.99 -15.317,-23.24 l 0,-800.709 c 1.973,-2.641 4.106,-5.598 6.426,-8.899 2.305,-3.3 4.449,-6.257 6.422,-8.886 l 60.301,0 c 11.863,0 21.746,0 29.656,0 8.559,0 17.125,0.144 25.703,0.488 8.559,0.328 17.793,0.816 27.68,1.476 9.883,0.665 22.391,1.637 37.566,2.973 6.575,2.629 13.004,5.758 19.274,9.391 6.258,3.617 12.508,6.918 18.781,9.89 6.254,2.957 13.008,4.766 20.262,5.426 7.25,0.66 14.832,-0.976 22.742,-4.937 0,-18.461 -2.969,-35.762 -8.902,-51.895 -5.93,-16.137 -17.465,-29.488 -34.598,-40.039 -17.145,7.262 -36.742,12.031 -58.813,14.34"
         style="fill:#3871c1;fill-opacity:1;fill-rule:nonzero;stroke:none"
         id="path30"
         inkscape:connector-curvature="0" /><path
         d="m 1801.86,498.09 c -15.49,0.988 -29.82,4.789 -43,11.371 -13.18,6.57 -25.7,17.301 -37.56,32.125 -11.86,14.828 -23.72,35.742 -35.59,62.773 -13.19,62.606 -21.25,125.207 -24.21,187.825 -2.98,62.589 -3.96,125.191 -2.98,187.808 1,62.608 2.63,125.378 4.95,188.308 2.3,62.94 2.47,126.38 0.5,190.3 -5.29,3.96 -9.57,7.74 -12.85,11.37 -3.31,3.62 -7.27,7.08 -11.87,10.38 l 0,35.58 c 11.2,3.3 24.87,5.77 41.02,7.43 16.15,1.63 29.82,0.99 41.03,-1.98 11.2,-2.96 17.46,-9.4 18.78,-19.28 1.32,-9.88 -6.92,-24.39 -24.71,-43.5 0,-16.48 -0.34,-43.65 -0.99,-81.55 -0.67,-37.9 -1.16,-81.23 -1.48,-129.99 -0.34,-48.78 -0.17,-100.5 0.49,-155.193 0.65,-54.711 2.13,-107.437 4.45,-158.168 2.3,-50.761 5.76,-96.726 10.38,-137.91 4.6,-41.187 11.2,-72.996 19.77,-95.391 12.51,-17.14 29.98,-30.804 52.39,-41.011 22.4,-10.239 46.12,-15.332 71.18,-15.332 25.03,0 49.25,6.258 72.66,18.789 23.38,12.504 41.67,32.617 54.85,60.293 5.94,10.535 11.04,28.668 15.33,54.379 4.28,25.695 7.74,56.66 10.38,92.922 2.62,36.23 4.45,76.929 5.44,122.074 0.98,45.133 1.14,92.922 0.49,143.338 -0.66,50.42 -2.31,102.31 -4.94,155.7 -2.64,53.37 -5.93,106.41 -9.89,159.15 -9.23,10.53 -15.49,18.61 -18.78,24.22 -3.31,5.58 -4.94,11.69 -4.94,18.29 l 0,16.79 c 4.6,3.29 11.19,5.61 19.77,6.93 8.56,1.32 17.79,1.98 27.68,1.98 10.53,0 21.08,-0.18 31.63,-0.49 10.54,-0.35 19.43,-0.51 26.69,-0.51 5.27,-5.28 7.91,-14.18 7.91,-26.68 0,-5.28 -1.82,-10.73 -5.44,-16.31 -3.63,-5.61 -10.05,-11.05 -19.28,-16.32 -2.64,-69.19 -2.31,-139.38 0.99,-210.55 3.29,-71.17 5.59,-139.56 6.92,-205.12 1.32,-65.59 0.16,-126.528 -3.46,-182.871 -3.63,-56.36 -13.51,-104.969 -29.66,-145.825 -16.15,-40.867 -40.2,-72.004 -72.15,-93.406 -31.98,-21.406 -75.63,-29.488 -130.99,-24.219 -18.45,0 -35.43,0.493 -50.91,1.481"
         style="fill:#3871c1;fill-opacity:1;fill-rule:nonzero;stroke:none"
         id="path32"
         inkscape:connector-curvature="0" /><path
         d="m 2276.35,978.516 c 14.17,7.562 29.49,17.8 45.98,30.644 16.46,12.85 32.45,28.5 47.94,46.96 15.47,18.43 26.34,39.86 32.62,64.26 6.26,24.37 6.26,52.05 0,83.03 -6.28,30.96 -22.91,65.24 -49.92,102.81 -9.89,8.55 -19.77,16.64 -29.66,24.21 -9.88,7.57 -20.11,13.5 -30.64,17.79 -10.55,4.28 -21.1,6.43 -31.63,6.43 -9.89,0 -19.78,-2.97 -29.66,-8.9 1.31,-6.59 2.63,-19.61 3.95,-39.05 1.32,-19.43 2.3,-41.86 2.97,-67.21 0.64,-25.38 1.48,-52.56 2.47,-81.56 0.99,-29 1.81,-56.52 2.47,-82.55 0.65,-26.04 1.48,-49.26 2.47,-69.68 0.99,-20.438 2.47,-34.591 4.45,-42.501 3.29,2.625 12.02,7.739 26.19,15.317 z m -86.98,-465.118 c -2.32,0.672 -4.45,1.993 -6.43,3.973 -1.98,1.981 -3.8,5.09 -5.44,9.391 -1.65,4.269 -2.47,10.703 -2.47,19.273 5.93,3.285 10.04,7.25 12.36,11.856 2.3,4.609 3.61,9.39 3.95,14.343 0.32,4.938 0.32,10.032 0,15.317 -0.34,5.265 -0.17,10.207 0.5,14.828 -0.67,14.484 -0.84,34.426 -0.5,59.805 0.32,25.367 0.65,54.031 0.99,86 0.33,31.957 0.65,66.394 0.99,103.3 0.33,36.911 0.49,74.461 0.49,112.704 0,38.872 -0.16,77.102 -0.49,114.652 -0.34,37.57 -1.16,72.83 -2.47,105.79 -1.33,32.94 -2.97,62.92 -4.94,89.95 -1.98,27.01 -4.3,49.42 -6.92,67.22 -1.98,11.2 -4.45,17.79 -7.42,19.77 -2.97,1.98 -6.76,4.28 -11.36,6.92 0,13.84 3.45,24.05 10.37,30.65 6.92,6.57 15.82,10.86 26.69,12.84 10.87,1.99 22.74,2.81 35.59,2.47 12.85,-0.34 24.87,-0.48 36.08,-0.48 38.21,-11.21 70.83,-28.53 97.87,-51.91 27.01,-23.4 47.77,-50.42 62.28,-81.05 14.48,-30.65 22.24,-63.94 23.22,-99.84 0.99,-35.93 -5.43,-72.34 -19.27,-109.24 -15.17,-29.65 -34.77,-58 -58.82,-85.016 -24.07,-27.031 -50.91,-48.105 -80.56,-63.266 5.93,-12.515 14.98,-29.156 27.18,-49.914 12.19,-20.754 26.35,-43.668 42.51,-68.703 16.14,-25.051 33.93,-50.586 53.38,-76.613 19.43,-26.039 39.2,-50.414 59.31,-73.152 20.09,-22.743 39.87,-42.68 59.31,-59.805 19.43,-17.141 37.72,-28.668 54.87,-34.598 8.55,-1.336 16.63,-1.648 24.21,-0.992 7.57,0.649 14,0.16 19.28,-1.476 5.26,-1.653 9.39,-5.11 12.36,-10.379 2.96,-5.282 4.45,-14.516 4.45,-27.696 -8.57,-7.89 -16.81,-12.84 -24.72,-14.808 -7.91,-1.981 -17.14,-1.492 -27.67,1.476 -10.55,2.961 -22.74,8.403 -36.58,16.313 -13.84,7.91 -30.99,18.109 -51.41,30.644 -16.48,10.535 -33.28,25.207 -50.41,43.985 -17.14,18.789 -33.95,39.375 -50.42,61.785 -16.48,22.394 -32.62,45.621 -48.43,69.691 -15.82,24.047 -30.65,46.785 -44.49,68.203 -13.84,21.418 -26.54,40.856 -38.06,58.329 -11.54,17.453 -20.93,30.472 -28.17,39.042 -1.98,-3.3 -3.46,-9.875 -4.45,-19.765 -0.99,-9.891 -1.82,-22.094 -2.47,-36.578 -0.66,-14.496 -1.16,-30.489 -1.48,-47.946 -0.34,-17.468 -0.5,-35.086 -0.5,-52.886 l 0,-69.192 c 0,-20.441 0.32,-37.91 0.99,-52.394 0.65,-14.5 1.32,-22.41 1.98,-23.731 1.98,-5.929 4.77,-12.519 8.4,-19.765 3.62,-7.266 7.08,-13.84 10.38,-19.77 3.29,-5.93 6.09,-11.039 8.41,-15.316 2.29,-4.309 3.45,-6.778 3.45,-7.426 -3.3,-7.902 -7.9,-13.352 -13.83,-16.301 -5.94,-2.969 -12.54,-4.449 -19.78,-4.449 -7.25,0 -14.99,0.641 -23.22,1.98 -8.25,1.297 -16,1.297 -23.24,0 -1.33,0.637 -3.14,1.297 -5.43,1.957"
         style="fill:#3871c1;fill-opacity:1;fill-rule:nonzero;stroke:none"
         id="path34"
         inkscape:connector-curvature="0" /><path
         d="m 2725.64,503.531 c -7.25,0 -13.51,0 -18.77,0 -9.89,0 -17.31,-0.16 -22.25,-0.5 -4.94,-0.32 -8.4,-0.492 -10.38,-0.492 l -1.98,0 c -1.97,2.641 -3.62,6.762 -4.93,12.359 -1.33,5.582 -2.32,11.512 -2.97,17.782 -0.67,6.261 -0.67,12.019 0,17.3 0.65,5.27 2.62,9.235 5.93,11.875 1.31,1.305 2.79,3.114 4.45,5.426 1.64,2.313 4.44,4.782 8.4,7.422 0.65,68.531 1.63,134.938 2.96,199.192 1.32,64.253 2.31,128.007 2.97,191.269 0.65,63.276 0.99,126.546 0.99,189.806 0,63.91 -0.34,129.82 -0.99,197.7 -25.7,23.73 -29.01,44.49 -9.89,62.29 l 74.15,0 c 9.21,-12.53 12.67,-23.73 10.38,-33.62 -2.32,-9.88 -7.09,-23.4 -14.34,-40.53 -3.95,-79.08 -5.93,-333.8 -5.93,-764.126 5.93,-3.317 10.71,-8.414 14.33,-15.332 3.62,-6.918 5.76,-14.168 6.43,-21.75 0.65,-7.582 -0.17,-14.981 -2.47,-22.231 -2.32,-7.269 -5.77,-12.191 -10.38,-14.832 -9.24,0.66 -17.8,0.992 -25.71,0.992"
         style="fill:#3871c1;fill-opacity:1;fill-rule:nonzero;stroke:none"
         id="path36"
         inkscape:connector-curvature="0" /><path
         d="m 2859.1,539.113 c -9.23,0 -15.66,0.317 -19.27,0.992 -3.64,0.649 -8.41,1.637 -14.34,2.958 0,9.89 0.33,20.757 0.99,32.628 0.65,11.86 1.64,23.387 2.97,34.598 1.31,11.195 3.28,21.746 5.93,31.641 2.62,9.875 5.92,18.113 9.88,24.703 9.89,3.289 20.1,4.937 30.65,4.937 5.93,-10.55 10.53,-21.086 13.84,-31.625 3.28,-10.55 7.24,-21.101 11.86,-31.636 4.6,-10.551 10.87,-20.43 18.78,-29.661 7.91,-9.23 19.43,-17.468 34.6,-24.703 44.8,-5.285 79.23,-0.832 103.3,13.336 24.05,14.168 41.02,33.274 50.91,57.332 9.89,24.063 14.49,50.746 13.84,80.075 -0.67,29.316 -3.63,57.003 -8.9,83.046 -5.28,26.028 -11.04,47.934 -17.3,65.735 -6.27,17.785 -9.73,27.015 -10.38,27.676 -13.19,23.726 -28.34,47.113 -45.47,70.179 -17.14,23.071 -34.28,46.297 -51.4,69.696 -17.15,23.39 -33.29,46.96 -48.44,70.69 -15.17,23.71 -27.68,48.09 -37.57,73.14 -9.88,25.04 -15.98,50.74 -18.28,77.11 -2.32,26.34 0.81,54.02 9.38,83.03 10.54,15.82 20.92,30.65 31.15,44.49 10.2,13.84 23.06,24.86 38.55,33.12 15.47,8.22 34.75,12.67 57.83,13.33 23.06,0.66 53.04,-4.29 89.96,-14.82 2.62,-7.9 5.93,-17.3 9.88,-28.17 3.95,-10.88 7.24,-21.92 9.88,-33.12 2.63,-11.21 3.79,-22.23 3.46,-33.12 -0.33,-10.86 -3.46,-20.59 -9.39,-29.15 l -18.78,0 c -7.91,11.86 -14.83,25.35 -20.76,40.52 -5.93,15.16 -13.51,28.01 -22.74,38.56 -37.56,0 -65.23,-7.59 -83.03,-22.74 -17.8,-15.17 -28.34,-34.1 -31.64,-56.84 -3.3,-22.74 -0.66,-47.62 7.91,-74.64 8.56,-27.03 20.76,-52.38 36.58,-76.11 52.05,-59.98 91.93,-115.66 119.61,-167.066 27.68,-51.406 46.79,-98.359 57.33,-140.867 10.54,-42.504 14.67,-80.058 12.36,-112.687 -2.31,-32.617 -7.09,-60.293 -14.33,-83.032 -7.26,-22.738 -14.83,-39.878 -22.74,-51.406 -7.9,-11.543 -12.52,-17.297 -13.84,-17.297 0,-6.605 -4.29,-13.84 -12.84,-21.746 -8.58,-7.91 -19.78,-15.008 -33.62,-21.258 -13.84,-6.25 -29.66,-11.203 -47.45,-14.832 -17.79,-3.609 -35.75,-4.769 -53.87,-3.461 -18.13,1.332 -35.93,5.442 -53.38,12.364 -17.47,6.918 -32.79,18.289 -45.97,34.101 l -25.7,0"
         style="fill:#3871c1;fill-opacity:1;fill-rule:nonzero;stroke:none"
         id="path38"
         inkscape:connector-curvature="0" /><path
         d="m 3236.73,510.941 c -1.98,1.629 -3.96,2.797 -5.94,3.457 0,7.243 0,13.172 0,17.801 0,5.266 0.5,9.715 1.49,13.332 0.98,3.617 2.47,7.078 4.45,10.395 1.97,3.289 4.6,7.566 7.9,12.847 0,26.34 0.32,60.938 0.99,103.79 0.65,42.835 1.14,89.792 1.49,140.867 0.32,51.062 0.32,104.449 0,160.148 -0.35,55.682 -1.17,109.712 -2.48,162.112 -1.33,52.4 -3.63,101.16 -6.92,146.31 -3.3,45.13 -7.58,82.86 -12.85,113.18 3.29,10.53 5.59,21.41 6.92,32.62 8.56,0 17.3,0.16 26.2,0.49 8.89,0.34 17.13,-0.49 24.71,-2.47 7.57,-1.98 13.84,-6.27 18.78,-12.84 4.94,-6.61 7.41,-16.81 7.41,-30.65 -1.32,-22.41 -2.47,-46.96 -3.46,-73.64 -0.98,-26.69 -1.97,-53.39 -2.96,-80.08 -0.99,-26.68 -1.82,-52.72 -2.47,-78.09 -0.67,-25.38 -0.99,-47.95 -0.99,-67.72 0,-19.12 0.16,-34.76 0.5,-46.95 0.32,-12.2 1.48,-18.63 3.46,-19.28 26.34,-2.64 54.86,-3.8 85.5,-3.46 30.65,0.33 61.45,1.48 92.43,3.46 3.29,3.29 5.93,13.18 7.91,29.66 1.98,16.47 3.62,36.23 4.94,59.32 1.32,23.05 2.14,48.09 2.47,75.12 0.33,27.01 0.5,52.39 0.5,76.12 0,25.04 -0.5,46.61 -1.49,64.75 -0.98,18.11 -1.82,30.8 -2.47,38.05 -3.31,7.25 -5.93,13.18 -7.91,17.8 -1.97,4.59 -3.46,8.56 -4.45,11.86 -0.98,3.29 -1.48,6.92 -1.48,10.88 0,3.95 0,8.89 0,14.83 24.38,11.86 42.34,15.47 53.88,10.86 11.52,-4.62 18.93,-13.84 22.24,-27.67 3.29,-13.84 3.96,-30.49 1.98,-49.93 -1.98,-19.44 -3.64,-38.38 -4.95,-56.83 0,-58.67 -0.49,-118.3 -1.48,-178.93 -0.99,-60.63 -2.14,-121.585 -3.46,-182.882 -1.32,-61.281 -2.32,-122.422 -2.96,-183.375 -0.67,-60.949 -0.99,-120.437 -0.99,-178.422 5.27,-7.261 10.2,-12.847 14.83,-16.808 4.6,-3.95 6.92,-10.551 6.92,-19.762 0,-3.313 -0.34,-6.59 -0.99,-9.902 -0.66,-3.297 -1.98,-7.571 -3.96,-12.84 -5.28,-1.309 -12.52,-2.469 -21.75,-3.457 -9.23,-0.992 -18.45,-1.481 -27.67,-1.481 -8.57,0 -16.48,0.489 -23.73,1.481 -7.26,0.988 -13.19,4.117 -17.79,9.386 4.6,9.231 7.9,18.442 9.88,27.672 1.98,9.235 4.61,18.45 7.91,27.696 0,11.855 0.5,30.3 1.48,55.351 0.99,25.035 2.31,52.887 3.96,83.535 1.63,30.633 2.96,61.614 3.95,92.918 0.99,31.297 1.49,59.461 1.49,84.512 0,33.621 -1.98,58.973 -5.94,76.125 -15.16,0 -31.13,0.16 -47.94,0.488 -16.81,0.332 -33.78,0.504 -50.91,0.504 -17.15,0 -33.12,-0.832 -47.94,-2.484 -14.83,-1.652 -28.18,-5.11 -40.04,-10.379 -2.64,-56.676 -4.29,-101.16 -4.94,-133.445 -0.67,-32.301 -0.99,-59.317 -0.99,-81.067 0,-21.746 0.32,-46.453 0.99,-74.129 0.65,-27.675 2.3,-57.019 4.94,-87.984 8.56,-21.746 13,-37.41 13.35,-46.949 0.32,-9.571 -2.48,-15.672 -8.41,-18.293 -5.92,-2.629 -14.5,-3.617 -25.7,-2.957 -11.21,0.66 -24.71,0.66 -40.52,0 -2.65,1.968 -4.95,3.789 -6.92,5.429"
         style="fill:#3871c1;fill-opacity:1;fill-rule:nonzero;stroke:none"
         id="path40"
         inkscape:connector-curvature="0" /><path
         d="m 1096.92,1088.88 c -0.11,-15.93 12.88,-29.06 28.71,-29.03 15.45,0.03 28.63,13.04 28.93,28.55 0.3,15.53 -12.93,29.04 -28.7,29.33 -15.64,0.28 -28.84,-12.88 -28.94,-28.85 z m 396.58,159.19 c 12.69,-11.67 30.01,-13.62 43.69,-5.11 13.45,8.38 21.01,21.49 27.73,35.23 1.27,2.59 0.06,3.67 -2.13,4.62 -6.44,2.78 -13.15,4.81 -19.97,6.24 -22.8,4.82 -44.49,-0.38 -51.69,-26.07 -0.84,-3.01 -1.17,-2.92 -0.37,-5.95 4.89,4.68 9.14,10.06 15.84,12.23 -4.9,-4.02 -9.26,-8.54 -14.18,-13.81 7.59,0.03 13.27,4.45 19.91,4.79 -5.25,-4.34 -12.25,-5.18 -18.3,-9.5 6.1,-1.05 11.44,-1.36 16.79,-1.78 -5.55,-1.7 -11.24,-0.8 -17.32,-0.89 z m -450.19,215.11 c 1.02,1.39 1.46,1.9 1.79,2.46 1.14,1.91 2.39,3.76 3.33,5.76 6.08,12.84 6.19,25.34 -2.42,37.21 -9.06,12.48 -21.93,19.68 -35.65,25.73 -2.22,0.98 -2.66,-0.44 -3.33,-1.83 -2.71,-5.56 -4.06,-11.57 -5.5,-17.52 -2.78,-11.48 -3.331,-22.9 1.2,-34.17 4.61,-11.44 19.7,-21.52 31.43,-20.69 -0.6,1.58 -3.03,1.94 -2.68,4.01 1.9,1.24 2.7,-1.82 4.8,-1.02 -4.55,12.08 -9.08,24.11 -13.61,36.14 3.3,-5.54 5.95,-11.36 8.59,-17.17 2.68,-5.91 5.37,-11.83 8.34,-18.39 2.31,6.25 0.83,12 1.65,18.68 2.75,-6.61 1.33,-12.47 2.06,-19.2 z M 818.348,1018.76 c -24.914,-7.3 -48.903,-14.33 -72.895,-21.358 -0.058,0.18 -0.113,0.364 -0.172,0.543 23.293,8.375 46.586,16.745 69.879,25.115 -15.988,5.3 -31.797,5.49 -47.68,1.19 16.223,6.77 32.95,7.16 50.344,3.82 -3.433,3.81 -7.332,6.27 -11.121,8.82 -21.695,14.6 -43.777,14.84 -65.527,0.58 -17.426,-11.43 -29.418,-27.68 -39.371,-45.556 -5.434,-9.766 -5.305,-10.133 4.73,-14.949 19.789,-9.496 40.481,-15.18 62.703,-13.617 29.125,2.047 47.571,24.429 52.082,51.832 -11.25,-11.49 -23.472,-20.617 -38.781,-24.785 13.856,6.515 26.047,15.085 35.809,28.365 z m 284.642,419.69 c 0.54,-8.84 1.33,-16.23 3.75,-23.22 2.49,-7.2 5.2,-14.38 10.46,-21.59 1.43,23.19 2.8,45.43 4.17,67.68 0.29,0 0.58,0 0.87,-0.01 0,-22.24 0,-44.49 0,-66.74 9,10.54 13.56,22.77 16.85,35.61 -0.18,-14.06 -5.73,-26.52 -12.47,-39.41 4.78,2.05 8.03,4.54 11.25,6.97 19.68,14.86 29.14,34.17 23.78,58.88 -5.29,24.42 -19.46,43.96 -36.26,61.82 -1.85,1.97 -3,1.11 -4.56,-0.4 -15.84,-15.31 -29.67,-32.02 -37.19,-53.13 -7.75,-21.76 -4.66,-41.61 10.96,-58.98 5.02,-5.58 10.75,-10.47 18.05,-14.54 -9.96,26.91 -11.26,33.04 -9.66,47.06 z m 263.35,-312.9 c 4.7,-6.59 9.67,-10.98 14.77,-15.12 24.33,-19.73 50.78,-24.46 79.63,-10.68 27.18,12.99 46.58,34.51 63.93,58.32 2.73,3.75 1.82,5.56 -1.67,7.93 -17.59,11.96 -36.15,21.9 -56.6,28 -16.59,4.94 -33.48,6.93 -50.46,2.5 -20.99,-5.48 -35.04,-19.61 -45.17,-38.09 -2.67,-4.88 -5.71,-9.7 -6.87,-15.97 28.9,19.2 45.42,25.88 62.75,25.58 -22.53,-3.76 -41.93,-13.52 -57.77,-30.42 30.61,4.48 61.22,8.96 91.83,13.44 0.04,-0.25 0.08,-0.5 0.12,-0.75 -30.38,-6.4 -60.75,-12.79 -92.29,-19.42 21.35,-9.86 42.57,-12.11 64.58,-8.95 -10.79,-3.2 -21.76,-4.29 -32.89,-3.57 -11.2,0.73 -22.09,3.13 -33.89,7.2 z m -485.027,5.72 c -13.965,2.83 -27.946,5.57 -41.887,8.51 -13.992,2.95 -27.938,6.11 -41.906,9.18 14.343,-1.03 28.48,-3.14 42.625,-5.21 14.128,-2.06 28.265,-4.08 43.835,-6.32 -15.406,14.97 -32.167,24.24 -51.203,29.59 20.446,-2.61 37.981,-11.77 54.328,-24.03 -5.07,13.84 -11.937,26.42 -22.445,36.66 -18.32,17.86 -40.664,21.94 -64.953,17.79 -26.762,-4.57 -50.219,-16.92 -72.387,-32.05 -3.035,-2.07 -3.285,-3.79 -1.058,-6.94 15.097,-21.4 32.621,-40.29 55.16,-54.02 13.516,-8.25 28.23,-13.34 44.137,-12.48 24.765,1.33 43.242,14.68 59.894,33.71 -21.051,-6.94 -41.191,-9.85 -61.906,-4.77 20.18,-2.2 39.363,1.29 57.766,10.38 z m 240.327,26.94 c 1.14,37.25 2.28,74.49 3.43,111.74 0.36,0 0.73,0 1.09,0 1.11,-37.21 2.22,-74.43 3.32,-111.64 16.09,22.07 24.05,46.59 24.55,73.58 2.66,-27.98 -4.85,-53.66 -18.64,-79.29 18.96,11.49 34.2,24.45 44.4,42.42 12.18,21.47 12.83,44.39 5.97,67.41 -10.47,35.1 -32.15,63.17 -57.69,88.62 -2.64,2.64 -4,1.04 -5.78,-0.75 -11.22,-11.25 -21.68,-23.16 -30.81,-36.18 -12.21,-17.42 -22.49,-35.82 -27.39,-56.74 -4.13,-17.61 -4.17,-35.1 2.58,-52.27 5.82,-14.82 15.54,-26.74 27.39,-37.02 6.2,-5.38 12.72,-10.45 20.45,-13.95 -13.77,27.01 -21.72,54.95 -16.5,84.76 -2.05,-29.22 6.28,-56.22 23.63,-80.69 z m -114.16,-57.78 c 9.65,-5.28 19.15,-10.51 28.15,-16.59 16.08,-10.88 30.7,-23.2 40.86,-40.19 8.6,-14.39 14.92,-29.78 20.99,-45.318 3.54,-9.059 6.62,-18.191 6.95,-28.09 1.55,-46.879 -2.1,-93.406 -9.32,-139.695 -2.47,-15.856 -5.92,-31.43 -13.42,-45.836 -4.68,-8.973 -10.63,-17.02 -16.91,-24.902 -2.52,-3.164 -4.71,-7.075 -2.52,-11.329 2.08,-4.039 6.28,-3.343 9.96,-3.523 1.37,-0.066 2.73,0 4.1,0 33.46,-0.004 66.93,-0.047 100.39,0.027 4.44,0.012 9.99,-1.433 12.32,3.77 2.31,5.144 -1.35,9.391 -4.2,13.445 -0.1,0.141 -0.21,0.274 -0.32,0.403 -12.48,14.273 -20.54,30.808 -24.72,49.207 -4.83,21.293 -7.26,42.945 -9.46,64.652 -3.09,30.445 -4.59,60.922 -3.65,91.508 0.23,7.148 1.34,14.136 3.71,21.035 4.26,12.406 9.28,24.476 14.69,36.396 5.07,11.18 11.05,21.87 19.04,31.31 11.84,13.99 26.51,24.45 42.12,33.7 5.79,3.44 11.8,6.52 18.6,10.26 -5.33,0.27 -9.01,-1.67 -12.85,-2.87 -44.54,-13.91 -77.42,-41.69 -98.7,-83.19 -1.63,-3.16 -3.39,-5.93 -7.41,-6.12 -4.39,-0.21 -6.34,2.85 -7.94,6.12 -3.01,6.12 -6.49,11.97 -10.25,17.65 -18.93,28.59 -44.58,48.89 -76.4,61.43 -7.69,3.03 -15.51,5.78 -23.81,6.74 z m 250.36,43.59 c 0.35,-0.35 0.7,-0.7 1.06,-1.05 -17.03,-12.67 -36.89,-18.15 -58.58,-22.43 12.23,-4.59 23.45,-7.54 35.16,-8.92 30.64,-3.63 56,6.1 76.13,29.47 11.72,13.61 19.84,29.24 25.85,46.07 6.73,18.85 11.61,38.13 13.89,58.02 0.79,6.88 0.15,7.46 -6.82,8.24 -26.6,2.97 -53.08,2.6 -79.31,-3.19 -20.14,-4.45 -38.91,-12.16 -53.63,-26.99 -23.8,-23.97 -27.26,-53.89 -23.3,-85.71 3.83,7.02 7.04,14.31 11.28,21.05 7.01,11.13 14.67,21.71 25.12,29.96 0.32,-0.35 0.65,-0.7 0.98,-1.05 -13.82,-15.36 -24.3,-32.63 -30.89,-53.58 19.91,14.66 38.71,28.66 57.69,42.42 10.44,7.56 20.3,15.94 31.35,22.66 l -0.07,0.1 c -2.42,-4.86 -7.23,-7.23 -11.12,-10.51 -15.88,-13.35 -31.85,-26.58 -47.77,-39.88 -8.01,-6.7 -15.98,-13.45 -23.97,-20.17 4.02,-0.57 7.63,-0.15 11.23,0.38 16.11,2.38 31.27,7.69 45.72,15.11 z m -275.309,6.8 c 0.93,-0.37 1.973,-0.58 2.762,-1.15 11.785,-8.44 24.877,-14.06 38.847,-17.59 8.41,-2.13 16.9,-4.15 26.34,-4.23 -0.87,1.13 -1.18,1.74 -1.67,2.15 -22.1,18.42 -44.31,36.73 -66.29,55.31 -5.219,4.42 -11.403,7.84 -15.286,13.76 l -0.086,-0.09 c 1.325,-0.74 2.747,-1.34 3.954,-2.23 20.457,-15.03 40.828,-30.18 61.348,-45.12 7.54,-5.49 14.52,-11.77 22.86,-16.13 0.16,-0.23 0.31,-0.45 0.47,-0.67 0.07,0.13 0.14,0.27 0.21,0.4 -0.24,0.08 -0.47,0.16 -0.71,0.23 0.03,0.66 0.27,1.39 0.06,1.97 -5.65,16 -13.54,30.69 -24.59,43.71 -4.31,5.09 -9.88,9.02 -13.31,14.88 l -0.07,-0.11 c 1.04,-0.55 2.23,-0.93 3.09,-1.7 10.64,-9.52 20.85,-19.41 28.68,-31.54 5.23,-8.09 9.22,-16.82 14.02,-26.41 1.35,11.88 1.63,22.49 0.59,33.22 -3.59,37.11 -23.54,61.55 -57.82,74.65 -30.797,11.77 -62.871,12.75 -95.219,9.69 -11.395,-1.08 -11.625,-1.52 -10.086,-13.26 3.75,-28.59 11.598,-55.93 25.895,-81.16 20.757,-36.61 53.89,-53.45 92.7,-47.38 10.59,1.66 20.94,4.11 31.71,8.66 -18.3,3.05 -35.04,8 -50.31,16.87 -6.44,3.74 -13.667,6.7 -18.015,13.37 l -0.074,-0.1 z m 307.189,-86.3 c -10.94,1.7 -21.87,3.66 -33.02,3.14 -11.56,-0.53 -23.02,-1.78 -35.27,-5.61 37.54,-13.87 73.92,-27.3 110.29,-40.74 -0.09,-0.23 -0.17,-0.47 -0.26,-0.7 -36.99,11.13 -73.98,22.25 -110.96,33.38 16.64,-23.21 38.37,-38.69 65.01,-47.24 -29.04,5.8 -52.15,21.56 -71.79,43.17 -0.17,-0.37 -0.32,-0.53 -0.29,-0.65 0.57,-2.48 1.1,-4.97 1.76,-7.41 5.33,-19.55 13.51,-37.6 28.59,-51.657 21.57,-20.113 47.89,-24.781 76.09,-22.121 26.61,2.512 51.58,10.977 75.73,22.07 11.34,5.207 11.57,5.34 5.83,16.208 -13.98,26.43 -30.79,50.74 -54.31,69.73 -18.8,15.19 -39.79,24.25 -64.56,22.49 -15.53,-1.11 -29.5,-6.68 -42.64,-14.65 -6.91,-4.19 -13.61,-8.72 -20.44,-15.15 24.81,4.52 48.08,4.52 70.9,-3.46 -0.22,-0.27 -0.44,-0.53 -0.66,-0.8 z m -258.99,-11.05 c -1.01,-0.07 -2.07,0.04 -3.01,-0.24 -29.154,-8.84 -58.294,-17.72 -87.443,-26.57 -6.734,-2.04 -13.504,-3.98 -20.257,-5.96 -0.079,0.24 -0.157,0.49 -0.235,0.73 36.153,13.35 72.305,26.69 109.495,40.42 -2.13,0.9 -3.11,1.5 -4.17,1.73 -14.04,3.03 -28.157,4.62 -42.606,3.74 -12.387,-0.76 -24.082,-4.08 -35.785,-7.67 l 0.039,-0.02 c 26.867,13.18 55.072,14.71 85.252,9.07 -11.8,10.1 -23.42,17.98 -36.643,23.35 -25.863,10.49 -50.937,8.84 -75.219,-4.98 -17.007,-9.68 -30.707,-23.08 -42.867,-38.18 -12.347,-15.34 -22.41,-32.12 -31.195,-49.699 -1.285,-2.57 -0.844,-3.925 1.809,-5.105 5.918,-2.633 11.617,-5.762 17.585,-8.254 26.954,-11.258 54.676,-19.297 84.258,-18.309 15.899,0.536 31.153,4.215 44.766,12.715 25.356,15.832 36.596,40.702 43.426,69.132 -1.27,-0.76 -2.11,-1.01 -2.59,-1.58 -6.06,-7 -12.94,-13.11 -20.38,-18.56 -14.12,-10.34 -29.269,-18.55 -46.687,-21.87 l 0.063,-0.06 c 0.719,0.38 1.406,0.86 2.16,1.13 17.942,6.53 34.014,16.1 47.444,29.75 4.66,4.73 10.17,8.86 12.72,15.37 0.09,0.08 0.19,0.16 0.28,0.24 -0.07,-0.1 -0.14,-0.21 -0.21,-0.32 z m -43.785,268.76 c 6.946,-7.98 14.155,-15.71 22.795,-21.91 5.4,-3.87 10.88,-7.71 18.26,-10.52 -14.24,26.62 -27.87,52.1 -41.504,77.59 0.363,0.2 0.731,0.4 1.094,0.6 15.19,-24.68 30.39,-49.37 46.22,-75.09 2.08,21.14 -2.17,39.8 -10.26,57.77 l -0.09,-0.06 c 2.1,0.15 2.29,-1.66 2.95,-2.92 4.7,-9.1 7.97,-18.71 10.48,-28.62 2.08,-8.21 1.89,-16.69 3.18,-26.12 8.34,14.28 13.26,28.54 14,43.87 1.25,26.14 -11.41,45.71 -30.98,61.4 -20.45,16.41 -44.281,25.9 -69.324,32.8 -3.586,0.99 -3.973,-0.8 -4.672,-3.31 -6.887,-24.74 -9.817,-49.85 -6.461,-75.42 4.582,-34.94 24.426,-58.5 59.487,-65.83 7.16,-1.5 14.47,-2.39 23.15,-2.26 -3.74,2.53 -6.3,4.19 -8.78,5.96 -12,8.61 -22.65,18.52 -30.197,31.42 0.207,0.23 0.422,0.45 0.652,0.65 z m 270.615,35.13 c 0.3,-0.26 0.59,-0.52 0.89,-0.78 -5.11,-9.81 -10.18,-19.65 -15.34,-29.43 -6.42,-12.14 -12.91,-24.23 -19.37,-36.35 18.77,8.37 33.71,21.05 45.16,37.88 -9.49,-18.88 -24.3,-32.68 -43.27,-44.48 8.49,-0.1 15.21,0.72 21.84,2 28.89,5.57 49.12,21.59 57.64,50.16 9.28,31.13 4.91,62.07 -3.4,92.73 -0.69,2.56 -2.02,2.43 -4.18,1.86 -24.78,-6.55 -48.18,-16.09 -68.49,-32.05 -21.49,-16.88 -34.41,-37.99 -31.44,-66.55 1.45,-13.9 6.27,-26.57 13.55,-38.58 0.81,20.95 5.42,40.68 16.95,58.42 -8.76,-18.41 -12.64,-37.64 -10.61,-59.01 5.71,9.17 10.83,17.4 15.96,25.62 8.03,12.86 15.4,26.13 24.11,38.56 z m -380.525,-85.54 0.172,-0.3 -0.23,0.24 c -2.114,3.35 -5.407,5.51 -8.223,8.13 -8.316,7.77 -17.418,14.66 -25.27,22.93 0.36,0.36 0.723,0.72 1.086,1.08 12.012,-9.18 24.024,-18.36 36.903,-28.21 -0.555,2.2 -0.793,3.32 -1.118,4.42 -2.929,9.87 -8.812,18.23 -13.984,26.95 0.137,0.21 0.281,0.41 0.43,0.62 8.953,-8.06 13.676,-18.95 19.508,-29.28 0.793,4.16 1.269,8.19 1.359,12.22 0.504,23.58 -8.816,43.21 -31.004,54.33 -20.156,10.1 -41.766,11.66 -63.738,10.73 -12.653,-0.54 -10.641,-0.11 -9.367,-11.2 0.113,-1.02 0.117,-2.05 0.269,-3.06 2.922,-19.36 8.059,-37.91 18.934,-54.55 17.422,-26.66 47.211,-31.07 74.508,-20.12 -15.055,2.91 -28.196,8.4 -39.438,17.85 2.106,-0.62 3.953,-1.76 5.856,-2.79 10.421,-5.64 21.261,-9.9 33.347,-9.99 z m 604.455,-247.05 c -15.06,3.25 -30.05,3.9 -45.03,-1.82 21.32,-7.68 42.65,-15.36 63.97,-23.044 -0.09,-0.273 -0.17,-0.547 -0.26,-0.816 -22,6.42 -44,12.83 -66,19.25 9.01,-12.72 20.71,-21.582 34.4,-27.973 -15.33,4.18 -27.58,13.333 -39.46,25.523 0.71,-3.06 0.97,-4.56 1.41,-6 4.93,-16.226 12.59,-30.492 27.89,-39.417 10.57,-6.164 22.11,-7.645 34.04,-7.325 21.28,0.571 40.63,7.868 59.44,17.047 2.87,1.399 2.18,3.16 1.02,5.395 -8.97,17.22 -19.8,33.02 -34.63,45.8 -20.99,18.1 -43.33,21.37 -66.7,9.63 -6.37,-3.2 -12.3,-7.17 -18.51,-13.22 10.42,2.52 19.44,2.66 28.45,2.01 6.89,-0.49 13.73,-1.62 19.91,-5.11 l 0.06,0.07 z m -62.41,288.98 -0.07,0.1 c 0.63,-2.02 -1.15,-2.67 -2.2,-3.6 -9.55,-8.48 -19.17,-16.88 -28.73,-25.35 -4.76,-4.2 -9.44,-8.5 -14.15,-12.75 13.89,0.58 26.22,4.9 37.9,11.39 -10.84,-9.09 -23.68,-13.84 -38.08,-16.93 5.78,-2.82 10.97,-3.84 16.17,-4.6 23.12,-3.35 42.62,2.78 56.65,22.35 14.38,20.06 19.63,43.15 21.81,67.22 0.28,2.98 -1.29,3.34 -3.59,3.53 -24.1,1.98 -47.76,0.81 -69.98,-10.04 -26.1,-12.74 -35.27,-38.68 -29.67,-67.8 5.72,12.59 11.71,24.61 22.57,33.28 -7.78,-10.36 -14.45,-21.23 -18.23,-35.1 2.09,1.54 3.05,2.22 3.99,2.94 15.2,11.79 30.41,23.57 45.61,35.36 z m -209,168.03 -0.08,0.06 c 0.52,-5.82 -0.7,-11.8 1.56,-18.27 5.24,11.56 10.2,22.49 15.16,33.43 0.28,-0.12 0.55,-0.23 0.83,-0.35 -4.19,-11.11 -8.38,-22.22 -12.85,-34.08 7.18,3.69 10.81,9.67 15.88,14.07 l -0.07,0.06 c -2.36,-7.38 -8.82,-11.53 -13.63,-17.16 4.18,0.72 8.17,1.59 11.93,3.05 9.49,3.68 16.67,9.91 20.17,19.75 6.28,17.66 1.13,34.25 -4.93,50.74 -0.77,2.1 -2.13,1.8 -3.68,1.1 -13.01,-5.85 -25.26,-12.75 -34.31,-24.22 -11.42,-14.46 -9.22,-33.21 2.4,-46.67 0.05,6.45 -1.21,12.69 1.62,18.49 z m -324.896,-60.44 c 4.824,-6.64 5.738,-14.5 6.773,-22.65 8.938,14.08 7.316,32.3 -3.797,43.62 -11.199,11.42 -25.652,16.34 -40.73,19.92 -2.957,0.7 -3.403,-1.16 -3.77,-3.33 -2.265,-13.4 -3.051,-26.82 0.75,-40.04 4.832,-16.81 20.121,-27.31 39.613,-25 -2.73,1.93 -5.164,3.66 -7.601,5.37 0.312,0.33 0.625,0.66 0.933,0.98 2.77,-0.62 4.852,-3.03 8.489,-3.17 -6.84,11.1 -13.449,21.82 -20.055,32.53 4.383,-4.66 8.25,-9.62 11.645,-14.89 3.449,-5.36 7.078,-10.52 11.613,-15.98 1.043,8.56 -2.75,15.41 -3.793,22.71 l -0.07,-0.07 z M 729.285,1092.26 c 0.238,-0.18 0.606,-0.57 0.692,-0.52 0.562,0.35 0.316,0.78 -0.028,1.16 -7.207,12.25 -17.289,20.48 -32.07,19.83 -18.484,-0.82 -32.367,-11.31 -45.129,-23.56 -1.301,-1.24 -1.121,-2.25 0.078,-3.43 12.492,-12.19 25.895,-22.78 44.137,-24.62 12.43,-1.26 28.754,8.67 32.918,20.22 -10.02,-4.1 -19.949,-7.38 -31.598,-5.75 11.375,0.59 21.567,2.34 31.102,9.4 -13.942,0.58 -26.903,1.12 -39.867,1.66 0.007,0.46 0.015,0.92 0.027,1.39 12.976,0 25.953,0 38.93,0 -5.434,4.64 -11.278,7.46 -17.653,9.22 6.785,0.54 12.426,-2.94 18.461,-5 z m 634.435,322.97 0.02,-0.01 c 0.15,-5.51 -2.67,-10.75 -1.66,-17.29 5.23,7.48 9.92,14.29 14.74,21.01 1.21,1.68 1.77,4.12 4.4,4.42 l -0.1,0.08 c -4.54,-9.23 -10.58,-17.54 -15.82,-26.37 1.86,-0.7 3.03,0.95 4.56,1.44 4.72,1.5 7.44,6.32 12.39,7.43 l -0.1,0.07 c -3.77,-5.38 -9.35,-8.53 -15.65,-11.72 4.48,-3.07 8.25,-1.06 11.82,-0.38 14.19,2.7 24.05,10.53 28.37,24.7 4.13,13.58 3.27,27.23 0.73,40.94 -0.43,2.33 -1.61,3.2 -3.88,2.66 -15.75,-3.77 -30.7,-9.14 -42.03,-21.51 -9.62,-10.5 -10.79,-30.34 -2.41,-41.09 1.44,5.3 0.64,11.18 4.62,15.62 z m 157.79,-334.08 c -0.07,0.13 -0.12,0.29 -0.22,0.39 -0.05,0.04 -0.21,-0.04 -0.31,-0.06 0.2,-0.08 0.4,-0.16 0.6,-0.25 -0.11,-0.3 -0.4,-0.73 -0.29,-0.91 6.77,-11.06 19.36,-21.27 35.17,-18.94 17.23,2.55 30.21,12.62 42.04,24.56 2.22,2.25 0.05,3.31 -1.2,4.47 -10.07,9.42 -21.21,17.02 -34.58,21.1 -16.72,5.12 -34.85,-4.15 -41.79,-20.07 9.59,4.76 19.16,8.22 29.29,6.57 -12.03,-0.8 -20.89,-3.72 -28.68,-10.24 13.57,0 25.9,0 38.22,0 -0.01,-0.41 -0.02,-0.81 -0.03,-1.2 -12.34,-0.52 -24.68,-1.03 -38.28,-1.6 9.48,-6.42 18.92,-8.75 29.72,-9.25 -2.29,-0.63 -3.86,-0.72 -5.55,-0.66 -8.5,0.28 -16.28,3.25 -24.11,6.09 z m -779.776,189.56 c 8.051,-1.8 12.899,-8.28 18.981,-13.43 -0.852,16.92 -14.578,31.3 -30.965,32.97 -14.492,1.48 -28.027,-1.99 -41.254,-7.5 -2.98,-1.24 -3.207,-2.58 -1.879,-5.33 4.324,-8.94 9.199,-17.5 15.938,-24.85 8.894,-9.69 19.254,-16.2 33.172,-14.73 8.277,0.87 15.121,4.65 22.683,10.13 -7.015,0.19 -12.625,-0.65 -18.137,0.95 5.282,0.78 10.723,0.17 17.067,2.23 -13.301,5.79 -25.676,11.17 -38.051,16.56 l -0.066,-0.07 c 12.984,-2.8 24.824,-9.28 38.668,-12.65 -4.289,7.44 -10.485,11.31 -16.09,15.79 l -0.067,-0.07"
         style="fill:#3871c1;fill-opacity:1;fill-rule:nonzero;stroke:none"
         id="path42"
         inkscape:connector-curvature="0" /><path
         d="m 1007.48,1100.43 c 8.3,-0.96 16.12,-3.71 23.81,-6.74 31.82,-12.54 57.47,-32.84 76.4,-61.43 3.76,-5.68 7.24,-11.53 10.25,-17.65 1.6,-3.27 3.55,-6.33 7.94,-6.12 4.02,0.19 5.78,2.96 7.41,6.12 21.28,41.5 54.16,69.28 98.7,83.19 3.84,1.2 7.52,3.14 12.85,2.87 -6.8,-3.74 -12.81,-6.82 -18.6,-10.26 -15.61,-9.25 -30.28,-19.71 -42.12,-33.7 -7.99,-9.44 -13.97,-20.13 -19.04,-31.31 -5.41,-11.92 -10.43,-23.99 -14.69,-36.396 -2.37,-6.899 -3.48,-13.887 -3.71,-21.035 -0.94,-30.586 0.56,-61.063 3.65,-91.508 2.2,-21.707 4.63,-43.359 9.46,-64.652 4.18,-18.399 12.24,-34.934 24.72,-49.207 0.11,-0.129 0.22,-0.262 0.32,-0.403 2.85,-4.054 6.51,-8.301 4.2,-13.445 -2.33,-5.203 -7.88,-3.758 -12.32,-3.77 -17.01,-0.035 -33.54,-23.871 -50.55,-23.867 -16.45,0 -33.38,23.836 -49.84,23.84 -1.37,0 -2.73,-0.066 -4.1,0 -3.68,0.18 -7.88,-0.516 -9.96,3.523 -2.19,4.254 0,8.165 2.52,11.329 6.28,7.882 12.23,15.929 16.91,24.902 7.5,14.406 10.95,29.98 13.42,45.836 7.22,46.289 10.87,92.816 9.32,139.695 -0.33,9.899 -3.41,19.031 -6.95,28.09 -6.07,15.538 -12.39,30.928 -20.99,45.318 -10.16,16.99 -24.78,29.31 -40.86,40.19 -9,6.08 -18.5,11.31 -28.15,16.59"
         style="fill:#3871c1;fill-opacity:1;fill-rule:nonzero;stroke:none"
         id="path44"
         inkscape:connector-curvature="0" /><path
         d="m 1283.82,1198.99 c -11.05,-6.72 -20.91,-15.1 -31.35,-22.66 -18.98,-13.76 -37.78,-27.76 -57.69,-42.42 6.59,20.95 17.07,38.22 30.89,53.58 1.04,0.92 2.66,1.42 2.46,3.39 -1.89,0.17 -2.7,-1.04 -3.44,-2.34 -10.45,-8.25 -18.11,-18.83 -25.12,-29.96 -4.24,-6.74 -7.45,-14.03 -11.28,-21.05 -3.96,31.82 -0.5,61.74 23.3,85.71 14.72,14.83 33.49,22.54 53.63,26.99 26.23,5.79 52.71,6.16 79.31,3.19 6.97,-0.78 7.61,-1.36 6.82,-8.24 -2.28,-19.89 -7.16,-39.17 -13.89,-58.02 -6.01,-16.83 -14.13,-32.46 -25.85,-46.07 -20.13,-23.37 -45.49,-33.1 -76.13,-29.47 -11.71,1.38 -22.93,4.33 -35.16,8.92 21.69,4.28 41.55,9.76 58.57,22.43 4.13,1.82 7.54,4.59 10.54,7.92 0.7,-0.03 1.01,0.36 1.02,1.02 0.65,0.04 0.99,0.39 1.03,1.04 0.2,0.16 1.07,0 0.31,0.64 -0.08,-0.24 -0.16,-0.48 -0.24,-0.73 -0.79,0.11 -1.12,-0.24 -1.03,-1.02 -0.79,0.11 -1.18,-0.18 -1.02,-1.02 -4.6,-1.05 -7.99,-4.17 -11.66,-6.8 -14.45,-7.42 -29.61,-12.73 -45.72,-15.11 -3.6,-0.53 -7.21,-0.95 -11.23,-0.38 7.99,6.72 15.96,13.47 23.97,20.17 15.92,13.3 31.89,26.53 47.77,39.88 3.89,3.28 8.7,5.65 11.12,10.51 1.04,-0.43 1.72,-0.07 2.06,0.98 0.21,0.18 1.15,-0.04 0.36,0.67 -0.09,-0.25 -0.18,-0.5 -0.27,-0.75 -1.01,0.33 -1.71,0.02 -2.08,-1"
         style="fill:#3871c1;fill-opacity:1;fill-rule:nonzero;stroke:none"
         id="path46"
         inkscape:connector-curvature="0" /><path
         d="m 1055.31,1135.5 c -8.34,4.36 -15.32,10.64 -22.86,16.13 -20.52,14.94 -40.891,30.09 -61.348,45.12 -1.207,0.89 -2.629,1.49 -3.954,2.23 -0.543,2.05 -2.226,2.33 -3.906,2.61 1.438,-0.66 1.906,-2.92 3.992,-2.52 3.883,-5.92 10.067,-9.34 15.286,-13.76 21.98,-18.58 44.19,-36.89 66.29,-55.31 0.49,-0.41 0.8,-1.02 1.67,-2.15 -9.44,0.08 -17.93,2.1 -26.34,4.23 -13.97,3.53 -27.062,9.15 -38.847,17.59 -0.789,0.57 -1.832,0.78 -2.762,1.15 -0.98,1.55 -2.176,2.81 -4.117,3.06 -0.152,0.2 -0.305,0.39 -0.457,0.58 0.02,-0.11 0,-0.28 0.066,-0.33 0.129,-0.09 0.309,-0.12 0.465,-0.18 1.008,-1.5 1.703,-3.43 4.121,-3.03 4.344,-6.67 11.571,-9.63 18.011,-13.37 15.27,-8.87 32.01,-13.82 50.31,-16.87 -10.77,-4.55 -21.12,-7 -31.71,-8.66 -38.81,-6.07 -71.943,10.77 -92.7,47.38 -14.297,25.23 -22.145,52.57 -25.895,81.16 -1.539,11.74 -1.309,12.18 10.086,13.26 32.348,3.06 64.422,2.08 95.219,-9.69 34.28,-13.1 54.23,-37.54 57.82,-74.65 1.04,-10.73 0.76,-21.34 -0.59,-33.22 -4.8,9.59 -8.79,18.32 -14.02,26.41 -7.83,12.13 -18.04,22.02 -28.68,31.54 -0.86,0.77 -2.05,1.15 -3.09,1.7 -0.36,1.04 -1.12,1.24 -2.09,0.99 -0.56,2.06 -2.29,2.59 -4.3,2.71 1.45,-0.87 2.91,-1.75 4.37,-2.62 0.37,-1.04 0.98,-1.54 2.1,-0.97 3.42,-5.86 8.99,-9.79 13.3,-14.88 11.05,-13.02 18.94,-27.71 24.59,-43.71 0.21,-0.58 -0.03,-1.31 -0.06,-1.97 l 0.03,0.04"
         style="fill:#3871c1;fill-opacity:1;fill-rule:nonzero;stroke:none"
         id="path48"
         inkscape:connector-curvature="0" /><path
         d="m 1121.64,1158.21 c -17.35,24.47 -25.68,51.47 -23.63,80.69 -5.22,-29.81 2.73,-57.75 16.5,-84.76 -7.73,3.5 -14.25,8.57 -20.45,13.95 -11.85,10.28 -21.57,22.2 -27.39,37.02 -6.75,17.17 -6.71,34.66 -2.58,52.27 4.9,20.92 15.18,39.32 27.39,56.74 9.13,13.02 19.59,24.93 30.81,36.18 1.78,1.79 3.14,3.39 5.78,0.75 25.54,-25.45 47.22,-53.52 57.69,-88.62 6.86,-23.02 6.21,-45.94 -5.97,-67.41 -10.2,-17.97 -25.44,-30.93 -44.4,-42.42 13.79,25.63 21.3,51.31 18.64,79.29 -0.5,-26.99 -8.46,-51.51 -24.55,-73.58 -1.1,37.21 -2.21,74.43 -3.32,111.64 -0.36,0 -0.73,0 -1.09,0 -1.15,-37.25 -2.29,-74.49 -3.43,-111.74"
         style="fill:#3871c1;fill-opacity:1;fill-rule:nonzero;stroke:none"
         id="path50"
         inkscape:connector-curvature="0" /><path
         d="m 1290.38,1065.32 c -22.82,7.98 -46.09,7.98 -70.9,3.46 6.83,6.43 13.53,10.96 20.44,15.15 13.14,7.97 27.11,13.54 42.64,14.65 24.77,1.76 45.76,-7.3 64.56,-22.49 23.52,-18.99 40.33,-43.3 54.31,-69.73 5.74,-10.868 5.51,-11.001 -5.83,-16.208 -24.15,-11.093 -49.12,-19.558 -75.73,-22.07 -28.2,-2.66 -54.52,2.008 -76.09,22.121 -15.08,14.057 -23.26,32.107 -28.59,51.657 -0.66,2.44 -1.19,4.93 -1.76,7.41 -0.03,0.12 0.12,0.28 0.29,0.65 19.64,-21.61 42.75,-37.37 71.79,-43.17 -26.64,8.55 -48.37,24.03 -65.01,47.24 36.98,-11.13 73.97,-22.25 110.96,-33.38 0.09,0.23 0.17,0.47 0.26,0.7 -36.37,13.44 -72.75,26.87 -110.29,40.74 12.25,3.83 23.71,5.08 35.27,5.61 11.15,0.52 22.08,-1.44 33.03,-3.14 1.86,-0.69 3.57,-2.16 6.02,-1.34 -1.7,1.48 -3.62,1.61 -5.37,2.14"
         style="fill:#3871c1;fill-opacity:1;fill-rule:nonzero;stroke:none"
         id="path52"
         inkscape:connector-curvature="0" /><path
         d="m 1030.66,1053.55 c -2.55,-6.51 -8.06,-10.64 -12.72,-15.37 -13.43,-13.65 -29.502,-23.22 -47.444,-29.75 -0.754,-0.27 -1.441,-0.75 -2.16,-1.13 -1.106,-0.05 -2.207,-0.1 -3.309,-0.16 -0.023,0 -0.039,-0.16 -0.058,-0.24 1.172,-0.34 2.25,-0.03 3.304,0.46 17.418,3.32 32.567,11.53 46.687,21.87 7.44,5.45 14.32,11.56 20.38,18.56 0.48,0.57 1.32,0.82 2.59,1.58 -6.83,-28.43 -18.07,-53.3 -43.426,-69.132 -13.613,-8.5 -28.867,-12.179 -44.766,-12.715 -29.582,-0.988 -57.304,7.051 -84.258,18.309 -5.968,2.492 -11.667,5.621 -17.585,8.254 -2.653,1.18 -3.094,2.535 -1.809,5.105 8.785,17.579 18.848,34.359 31.195,49.699 12.16,15.1 25.86,28.5 42.867,38.18 24.282,13.82 49.356,15.47 75.219,4.98 13.223,-5.37 24.843,-13.25 36.643,-23.35 -30.18,5.64 -58.385,4.11 -85.252,-9.07 -0.215,-0.1 -0.43,-0.21 -0.645,-0.32 0.043,0.11 0.063,0.28 0.137,0.31 0.137,0.05 0.309,0.02 0.469,0.03 11.703,3.59 23.398,6.91 35.785,7.67 14.449,0.88 28.566,-0.71 42.606,-3.74 1.06,-0.23 2.04,-0.83 4.17,-1.73 -37.19,-13.73 -73.342,-27.07 -109.495,-40.42 0.078,-0.24 0.156,-0.49 0.235,-0.73 6.753,1.98 13.523,3.92 20.257,5.96 29.149,8.85 58.289,17.73 87.443,26.57 0.94,0.28 2,0.17 3.01,0.24 l -0.07,0.08"
         style="fill:#3871c1;fill-opacity:1;fill-rule:nonzero;stroke:none"
         id="path54"
         inkscape:connector-curvature="0" /><path
         d="m 881.313,1131.27 c -18.403,-9.09 -37.586,-12.58 -57.766,-10.38 20.715,-5.08 40.855,-2.17 61.906,4.77 -16.652,-19.03 -35.129,-32.38 -59.894,-33.71 -15.907,-0.86 -30.621,4.23 -44.137,12.48 -22.539,13.73 -40.063,32.62 -55.16,54.02 -2.227,3.15 -1.977,4.87 1.058,6.94 22.168,15.13 45.625,27.48 72.387,32.05 24.289,4.15 46.633,0.07 64.953,-17.79 10.508,-10.24 17.375,-22.82 22.445,-36.66 -16.347,12.26 -33.882,21.42 -54.328,24.03 19.036,-5.35 35.797,-14.62 51.203,-29.59 -15.57,2.24 -29.707,4.26 -43.835,6.32 -14.145,2.07 -28.282,4.18 -42.625,5.21 13.968,-3.07 27.914,-6.23 41.906,-9.18 13.941,-2.94 27.922,-5.68 41.887,-8.51"
         style="fill:#3871c1;fill-opacity:1;fill-rule:nonzero;stroke:none"
         id="path56"
         inkscape:connector-curvature="0" /><path
         d="m 985.727,1369.91 c -0.204,-0.16 -0.391,-0.32 -0.579,-0.47 0.118,-0.09 0.239,-0.26 0.352,-0.26 0.242,0.01 0.477,0.12 0.715,0.18 -0.16,0.18 -0.32,0.36 -0.488,0.55 z m 37.823,-19.25 c 8.09,-17.96 12.34,-36.62 10.26,-57.76 -15.83,25.72 -31.03,50.41 -46.22,75.09 -0.363,-0.2 -0.731,-0.4 -1.094,-0.6 13.634,-25.49 27.264,-50.97 41.504,-77.59 -7.38,2.81 -12.86,6.65 -18.26,10.52 -8.64,6.2 -15.849,13.93 -22.799,21.91 -1.214,3.51 -3.793,6.1 -6.007,8.95 1.152,-3.57 2.839,-6.82 5.359,-9.6 7.547,-12.9 18.197,-22.81 30.197,-31.42 2.48,-1.77 5.04,-3.43 8.78,-5.96 -8.68,-0.13 -15.99,0.76 -23.15,2.26 -35.061,7.33 -54.905,30.89 -59.487,65.83 -3.356,25.57 -0.426,50.68 6.461,75.42 0.699,2.51 1.086,4.3 4.672,3.31 25.043,-6.9 48.874,-16.39 69.324,-32.8 19.57,-15.69 32.23,-35.26 30.98,-61.4 -0.74,-15.33 -5.66,-29.59 -14,-43.87 -1.29,9.43 -1.1,17.91 -3.18,26.12 -2.51,9.91 -5.78,19.52 -10.48,28.62 -0.66,1.26 -0.85,3.07 -2.95,2.92 0.35,1.01 0.28,1.83 -0.98,2.09 -0.09,0.43 -0.18,0.87 -0.27,1.31 -0.13,-0.08 -0.26,-0.16 -0.39,-0.24 0.24,-0.33 0.49,-0.66 0.74,-1 -0.05,-0.88 0.15,-1.64 0.99,-2.11"
         style="fill:#3871c1;fill-opacity:1;fill-rule:nonzero;stroke:none"
         id="path58"
         inkscape:connector-curvature="0" /><path
         d="m 1270.26,1330.81 c 0.04,0.15 0.08,0.3 0.12,0.45 -0.21,-0.12 -0.43,-0.23 -0.61,-0.39 -0.03,-0.03 0.1,-0.25 0.16,-0.39 0.11,0.11 0.22,0.22 0.33,0.33 z m -2.25,42.44 c -0.07,0.57 -0.11,0.88 -0.15,1.19 -0.32,-0.37 -0.71,-0.71 -0.94,-1.12 -0.12,-0.21 0.04,-0.57 0.08,-0.85 0.37,0.29 0.75,0.58 1.01,0.78 z m -10.45,-15.89 c -8.71,-12.43 -16.08,-25.7 -24.11,-38.56 -5.13,-8.22 -10.25,-16.45 -15.96,-25.62 -2.03,21.37 1.85,40.6 10.61,59.01 -11.53,-17.74 -16.14,-37.47 -16.95,-58.42 -7.28,12.01 -12.1,24.68 -13.55,38.58 -2.97,28.56 9.95,49.67 31.44,66.55 20.31,15.96 43.71,25.5 68.49,32.05 2.16,0.57 3.49,0.7 4.18,-1.86 8.31,-30.66 12.68,-61.6 3.4,-92.73 -8.52,-28.57 -28.75,-44.59 -57.64,-50.16 -6.63,-1.28 -13.35,-2.1 -21.84,-2 18.97,11.8 33.78,25.6 43.27,44.48 -11.45,-16.83 -26.39,-29.51 -45.16,-37.88 6.46,12.12 12.95,24.21 19.37,36.35 5.16,9.78 10.23,19.62 15.34,29.43 0.38,0.65 0.77,1.3 1.15,1.95 0.74,1.34 1.47,2.68 2.2,4.02 1.91,2.35 3.09,5.07 4.71,9.06 -3.07,-3.12 -4.13,-5.89 -5.38,-8.54 -1.51,-0.78 -2.03,-2.24 -2.5,-3.73 -0.36,-0.66 -0.71,-1.32 -1.07,-1.98"
         style="fill:#3871c1;fill-opacity:1;fill-rule:nonzero;stroke:none"
         id="path60"
         inkscape:connector-curvature="0" /><path
         d="m 1366.34,1125.55 c 11.8,-4.07 22.69,-6.47 33.89,-7.2 11.13,-0.72 22.1,0.37 32.89,3.57 -22.01,-3.16 -43.23,-0.91 -64.58,8.95 31.54,6.63 61.91,13.02 92.29,19.42 -0.04,0.25 -0.08,0.5 -0.12,0.75 -30.61,-4.48 -61.22,-8.96 -91.83,-13.44 15.84,16.9 35.24,26.66 57.76,30.42 -17.32,0.3 -33.84,-6.38 -62.74,-25.58 1.16,6.27 4.2,11.09 6.87,15.97 10.13,18.48 24.18,32.61 45.17,38.09 16.98,4.43 33.87,2.44 50.46,-2.5 20.45,-6.1 39.01,-16.04 56.6,-28 3.49,-2.37 4.4,-4.18 1.67,-7.93 -17.35,-23.81 -36.75,-45.33 -63.93,-58.32 -28.85,-13.78 -55.3,-9.05 -79.63,10.68 -5.1,4.14 -10.07,8.53 -14.77,15.12"
         style="fill:#3871c1;fill-opacity:1;fill-rule:nonzero;stroke:none"
         id="path62"
         inkscape:connector-curvature="0" /><path
         d="m 1102.99,1438.45 c -1.6,-14.02 -0.3,-20.15 9.66,-47.06 -7.3,4.07 -13.03,8.96 -18.05,14.54 -15.62,17.37 -18.71,37.22 -10.96,58.98 7.52,21.11 21.35,37.82 37.19,53.13 1.56,1.51 2.71,2.37 4.56,0.4 16.8,-17.86 30.97,-37.4 36.26,-61.82 5.36,-24.71 -4.1,-44.02 -23.78,-58.88 -3.22,-2.43 -6.47,-4.92 -11.25,-6.97 6.74,12.89 12.29,25.35 12.47,39.41 -3.29,-12.84 -7.85,-25.07 -16.85,-35.61 0,22.25 0,44.5 0,66.74 -0.29,0.01 -0.58,0.01 -0.87,0.01 -1.37,-22.25 -2.74,-44.49 -4.17,-67.68 -5.26,7.21 -7.97,14.39 -10.46,21.59 -2.42,6.99 -3.21,14.38 -3.75,23.22"
         style="fill:#3871c1;fill-opacity:1;fill-rule:nonzero;stroke:none"
         id="path64"
         inkscape:connector-curvature="0" /><path
         d="m 823.355,1320.8 -0.179,0.04 0.062,-0.36 0.117,0.32 z m 43.016,-13.74 c 5.172,-8.72 11.055,-17.08 13.984,-26.95 0.325,-1.1 0.563,-2.22 1.118,-4.42 -12.879,9.85 -24.891,19.03 -36.907,28.21 -5.48,5.22 -11.433,9.83 -17.753,13.98 -0.426,0.45 -0.848,0.9 -1.27,1.35 -0.094,-0.19 -0.184,-0.37 -0.273,-0.56 0.535,-0.24 1.074,-0.47 1.609,-0.72 4.738,-5.91 10.562,-10.64 16.605,-15.13 7.852,-8.27 16.954,-15.16 25.27,-22.93 2.816,-2.62 6.109,-4.78 8.223,-8.13 l 0.058,0.06 c -12.086,0.09 -22.926,4.35 -33.347,9.99 -1.903,1.03 -3.75,2.17 -5.856,2.79 11.242,-9.45 24.383,-14.94 39.438,-17.85 -27.297,-10.95 -57.086,-6.54 -74.508,20.12 -10.875,16.64 -16.012,35.19 -18.934,54.55 -0.152,1.01 -0.156,2.04 -0.269,3.06 -1.274,11.09 -3.286,10.66 9.367,11.2 21.972,0.93 43.582,-0.63 63.738,-10.73 22.188,-11.12 31.508,-30.75 31.004,-54.33 -0.09,-4.03 -0.566,-8.06 -1.359,-12.22 -5.832,10.33 -10.555,21.22 -19.508,29.28 -0.281,1.05 -0.867,1.83 -1.977,2.12 -0.359,0.32 -0.719,0.64 -1.078,0.96 -0.332,1.06 -1.172,1.58 -2.117,1.97 -0.352,0.27 -0.703,0.54 -1.055,0.81 -0.062,-0.23 -0.129,-0.46 -0.195,-0.68 0.437,-0.01 0.875,-0.02 1.316,-0.02 -0.59,-1.52 0.493,-1.99 1.559,-2.48 0.332,-0.38 0.66,-0.78 0.988,-1.17 0.363,-1.06 1.055,-1.78 2.129,-2.13"
         style="fill:#3871c1;fill-opacity:1;fill-rule:nonzero;stroke:none"
         id="path66"
         inkscape:connector-curvature="0" /><path
         d="m 779.324,989.141 c 0.25,0.109 0.5,0.222 0.746,0.332 -0.273,0.09 -0.543,0.207 -0.824,0.254 -0.125,0.023 -0.273,-0.094 -0.41,-0.149 0.16,-0.144 0.324,-0.285 0.488,-0.437 z m 39.024,29.619 c -9.762,-13.28 -21.953,-21.85 -35.809,-28.365 15.309,4.168 27.531,13.295 38.781,24.785 -4.511,-27.403 -22.957,-49.785 -52.082,-51.832 -22.222,-1.563 -42.914,4.121 -62.703,13.617 -10.035,4.816 -10.164,5.183 -4.73,14.949 9.953,17.876 21.945,34.126 39.371,45.556 21.75,14.26 43.832,14.02 65.527,-0.58 3.789,-2.55 7.688,-5.01 11.121,-8.82 -17.394,3.34 -34.121,2.95 -50.344,-3.82 15.883,4.3 31.692,4.11 47.68,-1.19 -23.293,-8.37 -46.586,-16.74 -69.879,-25.115 0.059,-0.179 0.114,-0.363 0.172,-0.543 23.992,7.028 47.981,14.058 72.895,21.358"
         style="fill:#3871c1;fill-opacity:1;fill-rule:nonzero;stroke:none"
         id="path68"
         inkscape:connector-curvature="0" /><path
         d="m 1504.12,998.168 c -0.39,0.477 -0.71,1.281 -1.41,0.305 0.5,-0.075 0.99,-0.153 1.48,-0.227 0.4,-0.223 0.79,-0.457 1.2,-0.656 0.07,-0.031 0.22,0.101 0.33,0.16 -0.53,0.141 -1.06,0.281 -1.6,0.418 z m -22.69,26.532 c -6.18,3.49 -13.02,4.62 -19.91,5.11 -9.01,0.65 -18.03,0.51 -28.45,-2.01 6.21,6.05 12.14,10.02 18.51,13.22 23.37,11.74 45.71,8.47 66.7,-9.63 14.83,-12.78 25.66,-28.58 34.63,-45.8 1.16,-2.235 1.85,-3.996 -1.02,-5.395 -18.81,-9.179 -38.16,-16.476 -59.44,-17.047 -11.93,-0.32 -23.47,1.161 -34.04,7.325 -15.3,8.925 -22.96,23.191 -27.89,39.417 -0.44,1.44 -0.7,2.94 -1.41,6 11.88,-12.19 24.13,-21.343 39.46,-25.523 -13.69,6.391 -25.39,15.253 -34.4,27.973 22,-6.42 44,-12.83 66,-19.25 0.09,0.269 0.17,0.543 0.26,0.816 -21.32,7.684 -42.65,15.364 -63.97,23.044 14.98,5.72 29.97,5.07 45.04,1.82 0.61,-0.22 1.23,-0.43 1.84,-0.65 0.03,0.14 0.07,0.29 0.1,0.43 -0.67,0.06 -1.34,0.11 -2.01,0.15"
         style="fill:#3871c1;fill-opacity:1;fill-rule:nonzero;stroke:none"
         id="path70"
         inkscape:connector-curvature="0" /><path
         d="m 1420.09,1290.19 c -1.25,-0.81 -2.86,-1.28 -3,-3.15 -1.75,-0.09 -3.21,-0.57 -4.35,-3.62 2.07,1.79 3.17,2.74 4.27,3.7 1.03,1.02 2.07,2.06 3.09,3.09 l 0.12,0.12 -0.13,-0.14 z m -28.62,23.53 c -1.58,0.34 -2.2,-0.56 -2.96,-1.89 1.91,-0.13 2.24,1.09 2.87,1.95 0.18,0.22 1.13,0.2 0.22,0.74 -0.04,-0.27 -0.09,-0.54 -0.13,-0.8 z m 27.61,0.03 c -15.2,-11.79 -30.41,-23.57 -45.61,-35.36 -0.94,-0.72 -1.9,-1.4 -3.99,-2.94 3.78,13.87 10.45,24.74 18.23,35.1 -10.86,-8.67 -16.85,-20.69 -22.57,-33.28 -5.6,29.12 3.57,55.06 29.67,67.8 22.22,10.85 45.88,12.02 69.98,10.04 2.3,-0.19 3.87,-0.55 3.59,-3.53 -2.18,-24.07 -7.43,-47.16 -21.81,-67.22 -14.03,-19.57 -33.53,-25.7 -56.65,-22.35 -5.2,0.76 -10.39,1.78 -16.17,4.6 14.4,3.09 27.24,7.84 38.08,16.93 -11.68,-6.49 -24.01,-10.81 -37.9,-11.39 4.71,4.25 9.39,8.55 14.15,12.75 9.56,8.47 19.18,16.87 28.73,25.35 1.05,0.93 2.83,1.58 2.2,3.6 0.67,-0.34 1.24,-0.19 1.71,0.35 0.05,0.06 -0.09,0.41 -0.19,0.43 -0.73,0.14 -1.22,-0.17 -1.45,-0.88"
         style="fill:#3871c1;fill-opacity:1;fill-rule:nonzero;stroke:none"
         id="path72"
         inkscape:connector-curvature="0" /><path
         d="m 1019.35,1478.66 c -0.18,1.16 0.05,2.54 -1.56,3.03 -0.04,-1.34 0.9,-2.1 1.63,-2.97 0.73,-1.88 1.27,-3.88 3.1,-5.08 0.62,-2.91 2.81,-4.61 4.9,-6.38 0.36,-0.27 0.92,-0.85 1.05,-0.76 0.89,0.57 0.22,1.04 -0.21,1.5 -1.85,1.95 -2.68,4.94 -5.78,5.61 0.08,2.37 -1.24,3.89 -3.13,5.05 z m 23.96,-15.48 c -0.73,6.73 0.69,12.59 -2.06,19.2 -0.82,-6.68 0.66,-12.43 -1.65,-18.68 -2.97,6.56 -5.66,12.48 -8.34,18.39 -2.64,5.81 -5.29,11.63 -8.59,17.17 4.53,-12.03 9.06,-24.06 13.61,-36.14 -2.1,-0.8 -2.9,2.26 -4.8,1.02 -0.35,-2.07 2.08,-2.43 2.68,-4.01 -11.73,-0.83 -26.82,9.25 -31.43,20.69 -4.531,11.27 -3.98,22.69 -1.2,34.17 1.44,5.95 2.79,11.96 5.5,17.52 0.67,1.39 1.11,2.81 3.33,1.83 13.72,-6.05 26.59,-13.25 35.65,-25.73 8.61,-11.87 8.5,-24.37 2.42,-37.21 -0.94,-2 -2.19,-3.85 -3.33,-5.76 -0.33,-0.56 -0.77,-1.07 -1.79,-2.46"
         style="fill:#3871c1;fill-opacity:1;fill-rule:nonzero;stroke:none"
         id="path74"
         inkscape:connector-curvature="0" /><path
         d="m 1516.16,1249.7 c -1.33,0.64 -2.25,0.77 -3.04,-0.18 0.93,-0.48 1.84,-0.34 3.04,0.18 z m -2.86,11.59 c 5.18,0.23 9.85,2.23 14.24,4.93 -4.29,-1.05 -8.44,-2.47 -12.58,-3.94 -0.59,-0.21 -1.11,-0.66 -1.66,-0.99 z m -19.8,-13.22 c 6.08,0.09 11.77,-0.81 17.32,0.89 -5.35,0.42 -10.69,0.73 -16.79,1.78 6.05,4.32 13.05,5.16 18.3,9.5 -6.64,-0.34 -12.32,-4.76 -19.91,-4.79 4.92,5.27 9.28,9.79 14.18,13.81 -6.7,-2.17 -10.95,-7.55 -15.84,-12.23 -0.8,3.03 -0.47,2.94 0.37,5.95 7.2,25.69 28.89,30.89 51.69,26.07 6.82,-1.43 13.53,-3.46 19.97,-6.24 2.19,-0.95 3.4,-2.03 2.13,-4.62 -6.72,-13.74 -14.28,-26.85 -27.73,-35.23 -13.68,-8.51 -31,-6.56 -43.69,5.11"
         style="fill:#3871c1;fill-opacity:1;fill-rule:nonzero;stroke:none"
         id="path76"
         inkscape:connector-curvature="0" /><path
         d="m 1210.08,1481.78 c -2.83,-5.8 -1.57,-12.04 -1.62,-18.49 -11.62,13.46 -13.82,32.21 -2.4,46.67 9.05,11.47 21.3,18.37 34.31,24.22 1.55,0.7 2.91,1 3.68,-1.1 6.06,-16.49 11.21,-33.08 4.93,-50.74 -3.5,-9.84 -10.68,-16.07 -20.17,-19.75 -3.76,-1.46 -7.75,-2.33 -11.93,-3.05 4.81,5.63 11.27,9.78 13.63,17.16 1.27,0.62 1.76,1.8 2.12,3.05 l 0.09,0.14 -0.12,-0.19 c -1.81,-0.27 -2.13,-1.52 -2.02,-3.06 -5.07,-4.4 -8.7,-10.38 -15.88,-14.07 4.47,11.86 8.66,22.97 12.85,34.08 -0.28,0.12 -0.55,0.23 -0.83,0.35 -4.96,-10.94 -9.92,-21.87 -15.16,-33.43 -2.26,6.47 -1.04,12.45 -1.56,18.27 1.42,1.36 1.19,2.82 0.08,4.31 0,-1.45 0,-2.91 0,-4.37"
         style="fill:#3871c1;fill-opacity:1;fill-rule:nonzero;stroke:none"
         id="path78"
         inkscape:connector-curvature="0" /><path
         d="m 883.688,1424.14 -0.165,-0.28 0.239,-0.04 -0.074,0.32 z m -7.266,-24.91 c 2.437,-1.71 4.871,-3.44 7.601,-5.37 -19.492,-2.31 -34.781,8.19 -39.613,25 -3.801,13.22 -3.015,26.64 -0.75,40.04 0.367,2.17 0.813,4.03 3.77,3.33 15.078,-3.58 29.531,-8.5 40.73,-19.92 11.113,-11.32 12.735,-29.54 3.797,-43.62 -1.035,8.15 -1.949,16.01 -6.773,22.65 -0.11,0.25 -0.219,0.51 -0.332,0.77 -0.106,-0.15 -0.211,-0.29 -0.317,-0.44 0.238,-0.09 0.477,-0.17 0.719,-0.26 1.043,-7.3 4.836,-14.15 3.793,-22.71 -4.535,5.46 -8.164,10.62 -11.613,15.98 -3.395,5.27 -7.262,10.23 -11.645,14.89 6.606,-10.71 13.215,-21.43 20.055,-32.53 -3.637,0.14 -5.719,2.55 -8.489,3.17 -0.785,1.02 -1.703,1.86 -2.988,2.21 -0.695,0.45 -1.402,0.69 -2.14,0.08 0.488,-0.3 0.972,-0.59 1.457,-0.88 0.535,-1.23 1.636,-1.81 2.738,-2.39"
         style="fill:#3871c1;fill-opacity:1;fill-rule:nonzero;stroke:none"
         id="path80"
         inkscape:connector-curvature="0" /><path
         d="m 729.281,1092.26 c -6.031,2.06 -11.672,5.54 -18.457,5 6.375,-1.76 12.219,-4.58 17.653,-9.22 -12.977,0 -25.954,0 -38.93,0 -0.012,-0.47 -0.02,-0.93 -0.027,-1.39 12.964,-0.54 25.925,-1.08 39.867,-1.66 -9.535,-7.06 -19.727,-8.81 -31.102,-9.4 11.649,-1.63 21.578,1.65 31.598,5.75 -4.164,-11.55 -20.488,-21.48 -32.918,-20.22 -18.242,1.84 -31.645,12.43 -44.137,24.62 -1.199,1.18 -1.379,2.19 -0.078,3.43 12.762,12.25 26.645,22.74 45.129,23.56 14.781,0.65 24.863,-7.58 32.07,-19.83 -0.234,-0.2 -0.457,-0.41 -0.668,-0.64"
         style="fill:#3871c1;fill-opacity:1;fill-rule:nonzero;stroke:none"
         id="path82"
         inkscape:connector-curvature="0" /><path
         d="m 1382.25,1405.94 c -4.95,-1.11 -7.67,-5.93 -12.39,-7.43 -1.53,-0.49 -2.7,-2.14 -4.56,-1.44 5.24,8.83 11.28,17.14 15.82,26.37 0.9,0.29 1.25,0.99 1.26,1.87 0,0.08 -0.61,0.32 -0.7,0.24 -0.63,-0.6 -0.87,-1.34 -0.46,-2.19 -2.63,-0.3 -3.19,-2.74 -4.4,-4.42 -4.82,-6.72 -9.51,-13.53 -14.74,-21.01 -1.01,6.54 1.81,11.78 1.66,17.29 1.75,3.58 3.51,7.15 5.27,10.73 -2.2,-3.38 -5.63,-6.2 -5.29,-10.72 -3.98,-4.44 -3.18,-10.32 -4.62,-15.62 -8.38,10.75 -7.21,30.59 2.41,41.09 11.33,12.37 26.28,17.74 42.03,21.51 2.27,0.54 3.45,-0.33 3.88,-2.66 2.54,-13.71 3.4,-27.36 -0.73,-40.94 -4.32,-14.17 -14.18,-22 -28.37,-24.7 -3.57,-0.68 -7.34,-2.69 -11.82,0.38 6.3,3.19 11.88,6.34 15.65,11.73 0.95,0.4 1.56,0.96 0.97,2.09 2.21,0.3 2.83,1.98 3.14,3.91 -1.01,-1.33 -2.02,-2.66 -3.04,-3.99 -1.02,-0.37 -1.45,-1.01 -0.97,-2.09"
         style="fill:#3871c1;fill-opacity:1;fill-rule:nonzero;stroke:none"
         id="path84"
         inkscape:connector-curvature="0" /><path
         d="m 1521.51,1081.15 c 7.83,-2.84 15.61,-5.81 24.11,-6.09 1.69,-0.06 3.26,0.03 5.55,0.66 -10.8,0.5 -20.24,2.83 -29.72,9.25 13.6,0.57 25.94,1.08 38.28,1.6 0.01,0.39 0.02,0.79 0.03,1.2 -12.32,0 -24.65,0 -38.22,0 7.79,6.52 16.65,9.44 28.68,10.24 -10.13,1.65 -19.7,-1.81 -29.29,-6.57 6.94,15.92 25.07,25.19 41.79,20.07 13.37,-4.08 24.51,-11.68 34.58,-21.1 1.25,-1.16 3.42,-2.22 1.2,-4.47 -11.83,-11.94 -24.81,-22.01 -42.04,-24.56 -15.81,-2.33 -28.4,7.88 -35.17,18.94 -0.11,0.18 0.18,0.61 0.29,0.91 l -0.07,-0.08"
         style="fill:#3871c1;fill-opacity:1;fill-rule:nonzero;stroke:none"
         id="path86"
         inkscape:connector-curvature="0" /><path
         d="m 735.113,1249.76 c 1.016,-0.49 1.965,-0.99 3.012,0 -1.059,0.63 -2.008,0.61 -3.012,0 z m -15.824,17.95 c 12.375,-5.39 24.75,-10.77 38.051,-16.56 -6.344,-2.06 -11.785,-1.45 -17.067,-2.23 5.512,-1.6 11.122,-0.76 18.137,-0.95 -7.562,-5.48 -14.406,-9.26 -22.683,-10.13 -13.918,-1.47 -24.278,5.04 -33.172,14.73 -6.739,7.35 -11.614,15.91 -15.938,24.85 -1.328,2.75 -1.101,4.09 1.879,5.33 13.227,5.51 26.762,8.98 41.254,7.5 16.387,-1.67 30.113,-16.05 30.965,-32.97 -6.082,5.15 -10.93,11.63 -18.981,13.43 -0.511,1.4 -1.464,1.93 -3.277,1.49 1.328,-0.56 2.336,-0.99 3.344,-1.42 5.605,-4.48 11.801,-8.35 16.09,-15.79 -13.844,3.37 -25.684,9.85 -38.668,12.65 -0.285,0.12 -0.571,0.23 -0.856,0.34 0.309,-0.09 0.613,-0.18 0.922,-0.27"
         style="fill:#3871c1;fill-opacity:1;fill-rule:nonzero;stroke:none"
         id="path88"
         inkscape:connector-curvature="0" /><path
         d="m 1096.92,1088.88 c 0.1,15.97 13.3,29.13 28.94,28.85 15.77,-0.29 29,-13.8 28.7,-29.33 -0.3,-15.51 -13.48,-28.52 -28.93,-28.55 -15.83,-0.03 -28.82,13.1 -28.71,29.03"
         style="fill:#3871c1;fill-opacity:1;fill-rule:nonzero;stroke:none"
         id="path90"
         inkscape:connector-curvature="0" /><path
         d="m 876.977,1271.76 0.23,-0.24 -0.172,0.3 -0.058,-0.06"
         style="fill:#3871c1;fill-opacity:1;fill-rule:nonzero;stroke:none"
         id="path92"
         inkscape:connector-curvature="0" /><path
         d="m 1055.28,1135.46 c 0.24,-0.07 0.47,-0.15 0.71,-0.23 -0.07,-0.13 -0.14,-0.27 -0.21,-0.4 -0.16,0.22 -0.31,0.44 -0.47,0.67 l -0.03,-0.04"
         style="fill:#3871c1;fill-opacity:1;fill-rule:nonzero;stroke:none"
         id="path94"
         inkscape:connector-curvature="0" /><path
         d="m 729.949,1092.9 c 0.344,-0.38 0.59,-0.81 0.028,-1.16 -0.086,-0.05 -0.454,0.34 -0.692,0.52 0.207,0.23 0.43,0.44 0.664,0.64"
         style="fill:#3871c1;fill-opacity:1;fill-rule:nonzero;stroke:none"
         id="path96"
         inkscape:connector-curvature="0" /><path
         d="m 1521.58,1081.23 c -0.2,0.09 -0.4,0.17 -0.6,0.25 0.1,0.02 0.26,0.1 0.31,0.06 0.1,-0.1 0.15,-0.26 0.22,-0.39 l 0.07,0.08"
         style="fill:#3871c1;fill-opacity:1;fill-rule:nonzero;stroke:none"
         id="path98"
         inkscape:connector-curvature="0" /><path
         d="m 1030.73,1053.47 c 0.07,0.11 0.14,0.22 0.21,0.32 -0.09,-0.08 -0.19,-0.16 -0.28,-0.24 l 0.07,-0.08"
         style="fill:#3871c1;fill-opacity:1;fill-rule:nonzero;stroke:none"
         id="path100"
         inkscape:connector-curvature="0" /><path
         d="m 1257.84,1144.02 c 3.67,2.63 7.06,5.75 11.66,6.8 l -0.07,0.07 c -3,-3.33 -6.41,-6.1 -10.54,-7.92 -0.35,0.35 -0.7,0.7 -1.05,1.05"
         style="fill:#3871c1;fill-opacity:1;fill-rule:nonzero;stroke:none"
         id="path102"
         inkscape:connector-curvature="0" /><path
         d="m 1224.69,1188.54 c 0.74,1.3 1.55,2.51 3.44,2.34 0.2,-1.97 -1.42,-2.47 -2.46,-3.39 -0.33,0.35 -0.66,0.7 -0.98,1.05"
         style="fill:#3871c1;fill-opacity:1;fill-rule:nonzero;stroke:none"
         id="path104"
         inkscape:connector-curvature="0" /><path
         d="m 1285.81,1200.07 c -0.34,-1.05 -1.02,-1.41 -2.06,-0.98 l 0.07,-0.1 c 0.37,1.02 1.07,1.33 2.08,1 l -0.09,0.08"
         style="fill:#3871c1;fill-opacity:1;fill-rule:nonzero;stroke:none"
         id="path106"
         inkscape:connector-curvature="0" /><path
         d="m 1285.9,1199.99 c 0.09,0.25 0.18,0.5 0.27,0.75 0.79,-0.71 -0.15,-0.49 -0.36,-0.67 l 0.09,-0.08"
         style="fill:#3871c1;fill-opacity:1;fill-rule:nonzero;stroke:none"
         id="path108"
         inkscape:connector-curvature="0" /><path
         d="m 1271.55,1152.86 c 0.08,0.25 0.16,0.49 0.24,0.73 0.76,-0.64 -0.11,-0.48 -0.31,-0.64 l 0.07,-0.09"
         style="fill:#3871c1;fill-opacity:1;fill-rule:nonzero;stroke:none"
         id="path110"
         inkscape:connector-curvature="0" /><path
         d="m 1271.48,1152.95 c -0.04,-0.65 -0.38,-1 -1.03,-1.04 l 0.07,-0.07 c -0.09,0.78 0.24,1.13 1.03,1.02 l -0.07,0.09"
         style="fill:#3871c1;fill-opacity:1;fill-rule:nonzero;stroke:none"
         id="path112"
         inkscape:connector-curvature="0" /><path
         d="m 1270.45,1151.91 c -0.01,-0.66 -0.32,-1.05 -1.02,-1.02 l 0.07,-0.07 c -0.16,0.84 0.23,1.13 1.02,1.02 l -0.07,0.07"
         style="fill:#3871c1;fill-opacity:1;fill-rule:nonzero;stroke:none"
         id="path114"
         inkscape:connector-curvature="0" /><path
         d="m 1015.35,1196.99 c -1.46,0.87 -2.92,1.75 -4.37,2.62 2.01,-0.12 3.74,-0.65 4.3,-2.71 l 0.07,0.09"
         style="fill:#3871c1;fill-opacity:1;fill-rule:nonzero;stroke:none"
         id="path116"
         inkscape:connector-curvature="0" /><path
         d="m 967.234,1199.07 c -2.086,-0.4 -2.554,1.86 -3.992,2.52 1.68,-0.28 3.363,-0.56 3.906,-2.61 l 0.086,0.09"
         style="fill:#3871c1;fill-opacity:1;fill-rule:nonzero;stroke:none"
         id="path118"
         inkscape:connector-curvature="0" /><path
         d="m 978.414,1153.88 c 1.941,-0.25 3.137,-1.51 4.117,-3.06 l 0.074,0.1 c -2.414,-0.4 -3.109,1.53 -4.117,3.03 l -0.074,-0.07"
         style="fill:#3871c1;fill-opacity:1;fill-rule:nonzero;stroke:none"
         id="path120"
         inkscape:connector-curvature="0" /><path
         d="m 1015.28,1196.9 c 0.97,0.25 1.73,0.05 2.09,-0.99 l 0.07,0.11 c -1.11,-0.57 -1.72,-0.07 -2.09,0.97 l -0.07,-0.09"
         style="fill:#3871c1;fill-opacity:1;fill-rule:nonzero;stroke:none"
         id="path122"
         inkscape:connector-curvature="0" /><path
         d="m 978.488,1153.95 c -0.156,0.06 -0.336,0.09 -0.465,0.18 -0.066,0.05 -0.046,0.22 -0.066,0.33 0.152,-0.19 0.305,-0.38 0.457,-0.58 l 0.074,0.07"
         style="fill:#3871c1;fill-opacity:1;fill-rule:nonzero;stroke:none"
         id="path124"
         inkscape:connector-curvature="0" /><path
         d="m 1290.38,1065.32 c 1.75,-0.53 3.67,-0.66 5.37,-2.14 -2.45,-0.82 -4.16,0.65 -6.02,1.34 0.21,0.27 0.43,0.53 0.65,0.8"
         style="fill:#3871c1;fill-opacity:1;fill-rule:nonzero;stroke:none"
         id="path126"
         inkscape:connector-curvature="0" /><path
         d="m 968.273,1007.36 c -1.054,-0.49 -2.132,-0.8 -3.304,-0.46 0.019,0.08 0.035,0.24 0.058,0.24 1.102,0.06 2.203,0.11 3.309,0.16 l -0.063,0.06"
         style="fill:#3871c1;fill-opacity:1;fill-rule:nonzero;stroke:none"
         id="path128"
         inkscape:connector-curvature="0" /><path
         d="m 946.719,1059.65 c -0.16,-0.01 -0.332,0.02 -0.469,-0.03 -0.074,-0.03 -0.094,-0.2 -0.137,-0.31 0.215,0.11 0.43,0.22 0.645,0.32 l -0.039,0.02"
         style="fill:#3871c1;fill-opacity:1;fill-rule:nonzero;stroke:none"
         id="path130"
         inkscape:connector-curvature="0" /><path
         d="m 986.293,1321.58 c -2.52,2.78 -4.207,6.03 -5.359,9.6 2.214,-2.85 4.793,-5.44 6.007,-8.95 -0.226,-0.2 -0.441,-0.42 -0.648,-0.65"
         style="fill:#3871c1;fill-opacity:1;fill-rule:nonzero;stroke:none"
         id="path132"
         inkscape:connector-curvature="0" /><path
         d="m 1022.56,1352.77 c -0.25,0.34 -0.5,0.67 -0.74,1 0.13,0.08 0.26,0.16 0.39,0.24 0.09,-0.44 0.18,-0.88 0.27,-1.31 l 0.08,0.07"
         style="fill:#3871c1;fill-opacity:1;fill-rule:nonzero;stroke:none"
         id="path134"
         inkscape:connector-curvature="0" /><path
         d="m 1022.48,1352.7 c 1.26,-0.26 1.33,-1.08 0.98,-2.09 l 0.09,0.06 c -0.84,0.46 -1.04,1.22 -0.99,2.1 l -0.08,-0.07"
         style="fill:#3871c1;fill-opacity:1;fill-rule:nonzero;stroke:none"
         id="path136"
         inkscape:connector-curvature="0" /><path
         d="m 985.727,1369.91 c 0.168,-0.19 0.328,-0.37 0.488,-0.55 -0.238,-0.06 -0.473,-0.17 -0.715,-0.18 -0.113,0 -0.234,0.17 -0.352,0.26 0.188,0.15 0.375,0.31 0.579,0.47"
         style="fill:#3871c1;fill-opacity:1;fill-rule:nonzero;stroke:none"
         id="path138"
         inkscape:connector-curvature="0" /><path
         d="m 1261.13,1363.07 c 1.25,2.65 2.31,5.42 5.38,8.54 -1.62,-3.99 -2.8,-6.71 -4.71,-9.06 -0.23,0.17 -0.45,0.34 -0.67,0.52"
         style="fill:#3871c1;fill-opacity:1;fill-rule:nonzero;stroke:none"
         id="path140"
         inkscape:connector-curvature="0" /><path
         d="m 1258.62,1359.34 c 0.48,1.49 1,2.95 2.51,3.73 0.22,-0.18 0.44,-0.35 0.67,-0.52 -0.73,-1.34 -1.46,-2.68 -2.2,-4.02 -0.33,0.27 -0.65,0.54 -0.98,0.81"
         style="fill:#3871c1;fill-opacity:1;fill-rule:nonzero;stroke:none"
         id="path142"
         inkscape:connector-curvature="0" /><path
         d="m 1268.01,1373.25 c -0.26,-0.2 -0.64,-0.49 -1.01,-0.78 -0.04,0.28 -0.2,0.64 -0.08,0.85 0.23,0.41 0.62,0.75 0.94,1.12 0.04,-0.31 0.08,-0.62 0.15,-1.19"
         style="fill:#3871c1;fill-opacity:1;fill-rule:nonzero;stroke:none"
         id="path144"
         inkscape:connector-curvature="0" /><path
         d="m 1270.26,1330.81 c -0.11,-0.11 -0.22,-0.22 -0.33,-0.33 -0.06,0.14 -0.19,0.36 -0.16,0.39 0.18,0.16 0.4,0.27 0.61,0.39 -0.04,-0.15 -0.08,-0.3 -0.12,-0.45"
         style="fill:#3871c1;fill-opacity:1;fill-rule:nonzero;stroke:none"
         id="path146"
         inkscape:connector-curvature="0" /><path
         d="m 1257.56,1357.36 c 0.36,0.66 0.71,1.32 1.07,1.98 0.32,-0.27 0.64,-0.54 0.97,-0.81 -0.38,-0.65 -0.77,-1.3 -1.15,-1.95 -0.3,0.26 -0.59,0.52 -0.89,0.78"
         style="fill:#3871c1;fill-opacity:1;fill-rule:nonzero;stroke:none"
         id="path148"
         inkscape:connector-curvature="0" /><path
         d="m 843.484,1302.82 c -6.043,4.49 -11.867,9.22 -16.605,15.13 l -0.066,-0.07 c 6.32,-4.15 12.273,-8.76 17.753,-13.98 -0.359,-0.36 -0.722,-0.72 -1.082,-1.08"
         style="fill:#3871c1;fill-opacity:1;fill-rule:nonzero;stroke:none"
         id="path150"
         inkscape:connector-curvature="0" /><path
         d="m 861.629,1312.73 c 0.945,-0.39 1.785,-0.91 2.117,-1.97 -0.16,-0.14 -0.328,-0.28 -0.5,-0.4 -1.058,0.49 -2.141,0.96 -1.551,2.48 l -0.066,-0.11"
         style="fill:#3871c1;fill-opacity:1;fill-rule:nonzero;stroke:none"
         id="path152"
         inkscape:connector-curvature="0" /><path
         d="m 866.371,1307.06 c -1.074,0.35 -1.766,1.07 -2.129,2.13 0.199,0.2 0.395,0.4 0.582,0.61 1.11,-0.29 1.696,-1.07 1.977,-2.12 -0.149,-0.21 -0.293,-0.41 -0.43,-0.62"
         style="fill:#3871c1;fill-opacity:1;fill-rule:nonzero;stroke:none"
         id="path154"
         inkscape:connector-curvature="0" /><path
         d="m 826.879,1317.95 c -0.535,0.25 -1.074,0.48 -1.609,0.72 0.089,0.19 0.179,0.37 0.273,0.56 0.422,-0.45 0.844,-0.9 1.27,-1.35 l 0.066,0.07"
         style="fill:#3871c1;fill-opacity:1;fill-rule:nonzero;stroke:none"
         id="path156"
         inkscape:connector-curvature="0" /><path
         d="m 861.695,1312.84 c -0.441,0 -0.879,0.01 -1.316,0.02 0.066,0.22 0.133,0.45 0.195,0.68 0.352,-0.27 0.703,-0.54 1.055,-0.81 l 0.066,0.11"
         style="fill:#3871c1;fill-opacity:1;fill-rule:nonzero;stroke:none"
         id="path158"
         inkscape:connector-curvature="0" /><path
         d="m 823.355,1320.8 -0.117,-0.32 -0.062,0.36 0.179,-0.04"
         style="fill:#3871c1;fill-opacity:1;fill-rule:nonzero;stroke:none"
         id="path160"
         inkscape:connector-curvature="0" /><path
         d="m 864.242,1309.19 c -0.328,0.39 -0.656,0.79 -0.988,1.17 0.164,0.12 0.332,0.26 0.492,0.4 0.359,-0.32 0.719,-0.64 1.078,-0.96 -0.187,-0.21 -0.383,-0.41 -0.582,-0.61"
         style="fill:#3871c1;fill-opacity:1;fill-rule:nonzero;stroke:none"
         id="path162"
         inkscape:connector-curvature="0" /><path
         d="m 779.324,989.145 c -0.164,0.148 -0.328,0.289 -0.488,0.433 0.137,0.055 0.285,0.172 0.41,0.149 0.281,-0.047 0.551,-0.164 0.824,-0.254 -0.246,-0.11 -0.496,-0.223 -0.746,-0.328"
         style="fill:#3871c1;fill-opacity:1;fill-rule:nonzero;stroke:none"
         id="path164"
         inkscape:connector-curvature="0" /><path
         d="m 1504.13,998.172 c 0.53,-0.141 1.06,-0.281 1.59,-0.422 -0.11,-0.059 -0.26,-0.191 -0.33,-0.16 -0.41,0.199 -0.8,0.433 -1.2,0.656 l -0.06,-0.074"
         style="fill:#3871c1;fill-opacity:1;fill-rule:nonzero;stroke:none"
         id="path166"
         inkscape:connector-curvature="0" /><path
         d="m 1481.43,1024.7 c 0.67,-0.04 1.34,-0.09 2.01,-0.15 -0.03,-0.14 -0.07,-0.29 -0.1,-0.43 -0.61,0.22 -1.23,0.43 -1.84,0.65 l -0.07,-0.07"
         style="fill:#3871c1;fill-opacity:1;fill-rule:nonzero;stroke:none"
         id="path168"
         inkscape:connector-curvature="0" /><path
         d="m 1504.19,998.246 c -0.49,0.074 -0.98,0.152 -1.48,0.227 0.7,0.976 1.02,0.172 1.41,-0.301 l 0.07,0.074"
         style="fill:#3871c1;fill-opacity:1;fill-rule:nonzero;stroke:none"
         id="path170"
         inkscape:connector-curvature="0" /><path
         d="m 1417.01,1287.11 c -1.1,-0.95 -2.2,-1.9 -4.27,-3.69 1.14,3.05 2.6,3.53 4.35,3.62 l -0.08,0.07"
         style="fill:#3871c1;fill-opacity:1;fill-rule:nonzero;stroke:none"
         id="path172"
         inkscape:connector-curvature="0" /><path
         d="m 1417.09,1287.04 c 0.14,1.87 1.75,2.34 3,3.15 l 0.02,0.02 c -1.03,-1.03 -2.07,-2.07 -3.1,-3.1 l 0.08,-0.07"
         style="fill:#3871c1;fill-opacity:1;fill-rule:nonzero;stroke:none"
         id="path174"
         inkscape:connector-curvature="0" /><path
         d="m 1391.38,1313.78 c -0.63,-0.86 -0.96,-2.08 -2.87,-1.95 0.76,1.33 1.38,2.23 2.96,1.89 l -0.09,0.06"
         style="fill:#3871c1;fill-opacity:1;fill-rule:nonzero;stroke:none"
         id="path176"
         inkscape:connector-curvature="0" /><path
         d="m 1419.08,1313.75 c 0.23,0.71 0.72,1.02 1.45,0.88 0.1,-0.02 0.24,-0.37 0.19,-0.43 -0.47,-0.54 -1.04,-0.69 -1.71,-0.35 l 0.07,-0.1"
         style="fill:#3871c1;fill-opacity:1;fill-rule:nonzero;stroke:none"
         id="path178"
         inkscape:connector-curvature="0" /><path
         d="m 1391.47,1313.72 c 0.04,0.26 0.09,0.53 0.13,0.8 0.91,-0.54 -0.04,-0.52 -0.22,-0.74 l 0.09,-0.06"
         style="fill:#3871c1;fill-opacity:1;fill-rule:nonzero;stroke:none"
         id="path180"
         inkscape:connector-curvature="0" /><path
         d="m 1420.09,1290.19 0.13,0.14 -0.11,-0.12 -0.02,-0.02"
         style="fill:#3871c1;fill-opacity:1;fill-rule:nonzero;stroke:none"
         id="path182"
         inkscape:connector-curvature="0" /><path
         d="m 1027.42,1467.26 c -2.09,1.77 -4.28,3.47 -4.9,6.38 l -0.04,-0.03 c 3.1,-0.67 3.93,-3.66 5.78,-5.61 -0.28,-0.25 -0.56,-0.5 -0.84,-0.74"
         style="fill:#3871c1;fill-opacity:1;fill-rule:nonzero;stroke:none"
         id="path184"
         inkscape:connector-curvature="0" /><path
         d="m 1022.52,1473.64 c -1.83,1.2 -2.37,3.2 -3.1,5.08 l -0.07,-0.06 c 1.89,-1.16 3.21,-2.68 3.13,-5.05 l 0.04,0.03"
         style="fill:#3871c1;fill-opacity:1;fill-rule:nonzero;stroke:none"
         id="path186"
         inkscape:connector-curvature="0" /><path
         d="m 1019.42,1478.72 c -0.73,0.87 -1.67,1.63 -1.63,2.97 1.61,-0.49 1.38,-1.87 1.56,-3.03 0,0 0.07,0.06 0.07,0.06"
         style="fill:#3871c1;fill-opacity:1;fill-rule:nonzero;stroke:none"
         id="path188"
         inkscape:connector-curvature="0" /><path
         d="m 1028.26,1468 c 0.43,-0.46 1.1,-0.93 0.21,-1.5 -0.13,-0.09 -0.69,0.49 -1.05,0.76 0.28,0.24 0.56,0.49 0.84,0.74"
         style="fill:#3871c1;fill-opacity:1;fill-rule:nonzero;stroke:none"
         id="path190"
         inkscape:connector-curvature="0" /><path
         d="m 1513.3,1261.29 c 0.55,0.33 1.07,0.78 1.66,0.99 4.14,1.47 8.29,2.89 12.58,3.94 -4.39,-2.7 -9.06,-4.7 -14.24,-4.93"
         style="fill:#3871c1;fill-opacity:1;fill-rule:nonzero;stroke:none"
         id="path192"
         inkscape:connector-curvature="0" /><path
         d="m 1516.16,1249.7 c -1.2,-0.52 -2.11,-0.66 -3.04,-0.18 0.79,0.95 1.71,0.82 3.04,0.18"
         style="fill:#3871c1;fill-opacity:1;fill-rule:nonzero;stroke:none"
         id="path194"
         inkscape:connector-curvature="0" /><path
         d="m 1230.58,1476.64 c -0.11,1.54 0.21,2.79 2.02,3.06 l 0.04,0.05 c -0.37,-1.25 -0.86,-2.43 -2.13,-3.05 l 0.07,-0.06"
         style="fill:#3871c1;fill-opacity:1;fill-rule:nonzero;stroke:none"
         id="path196"
         inkscape:connector-curvature="0" /><path
         d="m 1210.08,1481.78 c 0,1.46 0,2.92 0,4.37 1.11,-1.49 1.34,-2.95 -0.08,-4.31 l 0.08,-0.06"
         style="fill:#3871c1;fill-opacity:1;fill-rule:nonzero;stroke:none"
         id="path198"
         inkscape:connector-curvature="0" /><path
         d="m 1232.6,1479.7 0.12,0.19 -0.09,-0.14 -0.03,-0.05"
         style="fill:#3871c1;fill-opacity:1;fill-rule:nonzero;stroke:none"
         id="path200"
         inkscape:connector-curvature="0" /><path
         d="m 876.422,1399.23 c -1.102,0.58 -2.203,1.16 -2.738,2.39 0.226,0.26 0.457,0.53 0.683,0.8 1.285,-0.35 2.203,-1.19 2.988,-2.21 -0.308,-0.32 -0.621,-0.65 -0.933,-0.98"
         style="fill:#3871c1;fill-opacity:1;fill-rule:nonzero;stroke:none"
         id="path202"
         inkscape:connector-curvature="0" /><path
         d="m 873.684,1401.62 c -0.485,0.29 -0.969,0.58 -1.457,0.88 0.738,0.61 1.445,0.37 2.14,-0.08 -0.226,-0.27 -0.457,-0.54 -0.683,-0.8"
         style="fill:#3871c1;fill-opacity:1;fill-rule:nonzero;stroke:none"
         id="path204"
         inkscape:connector-curvature="0" /><path
         d="m 883.688,1424.14 0.074,-0.32 -0.239,0.04 0.165,0.28"
         style="fill:#3871c1;fill-opacity:1;fill-rule:nonzero;stroke:none"
         id="path206"
         inkscape:connector-curvature="0" /><path
         d="m 885.254,1421.41 c -0.242,0.09 -0.481,0.17 -0.719,0.26 0.106,0.15 0.211,0.29 0.317,0.44 0.113,-0.26 0.222,-0.52 0.332,-0.77 l 0.07,0.07"
         style="fill:#3871c1;fill-opacity:1;fill-rule:nonzero;stroke:none"
         id="path208"
         inkscape:connector-curvature="0" /><path
         d="m 1363.72,1415.23 c -0.34,4.52 3.09,7.34 5.29,10.72 -1.76,-3.58 -3.52,-7.15 -5.27,-10.73 l -0.02,0.01"
         style="fill:#3871c1;fill-opacity:1;fill-rule:nonzero;stroke:none"
         id="path210"
         inkscape:connector-curvature="0" /><path
         d="m 1383.22,1408.03 c 1.02,1.33 2.03,2.66 3.04,3.99 -0.31,-1.93 -0.93,-3.61 -3.14,-3.91 l 0.1,-0.08"
         style="fill:#3871c1;fill-opacity:1;fill-rule:nonzero;stroke:none"
         id="path212"
         inkscape:connector-curvature="0" /><path
         d="m 1381.22,1423.36 c -0.41,0.85 -0.17,1.59 0.46,2.19 0.09,0.08 0.7,-0.16 0.7,-0.24 -0.01,-0.88 -0.36,-1.58 -1.26,-1.87 l 0.1,-0.08"
         style="fill:#3871c1;fill-opacity:1;fill-rule:nonzero;stroke:none"
         id="path214"
         inkscape:connector-curvature="0" /><path
         d="m 1382.25,1405.94 c -0.48,1.08 -0.05,1.72 0.97,2.09 l -0.1,0.08 c 0.59,-1.13 -0.02,-1.69 -0.97,-2.09 l 0.1,-0.08"
         style="fill:#3871c1;fill-opacity:1;fill-rule:nonzero;stroke:none"
         id="path216"
         inkscape:connector-curvature="0" /><path
         d="m 741.801,1270.78 c -1.008,0.43 -2.016,0.86 -3.344,1.42 1.813,0.44 2.766,-0.09 3.277,-1.49 l 0.067,0.07"
         style="fill:#3871c1;fill-opacity:1;fill-rule:nonzero;stroke:none"
         id="path218"
         inkscape:connector-curvature="0" /><path
         d="m 735.113,1249.76 c 1.004,0.61 1.953,0.63 3.012,0 -1.047,-0.99 -1.996,-0.49 -3.012,0"
         style="fill:#3871c1;fill-opacity:1;fill-rule:nonzero;stroke:none"
         id="path220"
         inkscape:connector-curvature="0" /><path
         d="m 719.289,1267.71 c -0.309,0.09 -0.613,0.18 -0.922,0.27 0.285,-0.11 0.571,-0.22 0.856,-0.34 l 0.066,0.07"
         style="fill:#3871c1;fill-opacity:1;fill-rule:nonzero;stroke:none"
         id="path222"
         inkscape:connector-curvature="0" /><path
         d="m 917.363,672.664 c -86.886,23.191 -137.422,84.914 -170.984,164.024 -14.09,33.246 -24.992,67.835 -38.293,101.445 -5.938,14.969 -17.094,24.855 -34.125,19.176 C 659.367,952.43 658.418,938.637 660.59,926.117 690.488,754 779.855,628.211 937.059,555.578 c 8.16,-3.781 18.867,-9.418 23.507,0.981 27.297,60.902 79.644,92.968 134.374,122.39 -7.61,12.559 -19.74,13.637 -29.5,17.844 -81.338,35.164 -168.483,59.41 -229.756,131.434 -5.516,6.488 -12.672,9.269 -20.629,3.496 -6.567,-4.743 -11.762,-9.993 -10.676,-19.496 2.168,-18.598 9.379,-34.407 20.367,-49.461 26.082,-35.633 60.461,-61.922 92.617,-90.102 z m 406.807,7.02 c 33.15,35.699 72.91,63.246 93.42,109.437 6.36,14.383 9.45,26.535 -3.35,36.137 -12.03,9.043 -23.18,1.394 -31.78,-8.32 -35.35,-40.004 -81.57,-62.45 -128.67,-83.063 -39.78,-17.406 -80.61,-32.309 -120.33,-49.789 -62.23,-27.445 -121.49,-58.953 -156.437,-123.363 -7.386,-13.668 -8.339,-18.426 8.114,-23.094 36.573,-10.359 73.473,-18.848 111.303,-19.457 234.74,-3.703 427.36,158.933 469.43,395.363 3.09,17.293 7.39,36.254 -13.85,42.985 -21.54,6.82 -29.55,-10.547 -34.39,-27.813 -16.98,-60.371 -41.41,-117.855 -76.45,-168.797 -27.9,-40.617 -67.29,-70.012 -117.01,-80.226"
         style="fill:#f9a72b;fill-opacity:1;fill-rule:nonzero;stroke:none"
         id="path224"
         inkscape:connector-curvature="0" /><path
         d="m 1324.17,679.684 c 49.72,10.214 89.11,39.609 117.01,80.226 35.04,50.942 59.47,108.426 76.45,168.797 4.84,17.266 12.85,34.633 34.39,27.813 21.24,-6.731 16.94,-25.692 13.85,-42.985 -42.07,-236.43 -234.69,-399.066 -469.43,-395.363 -37.83,0.609 -74.73,9.098 -111.303,19.457 -16.453,4.668 -15.5,9.426 -8.114,23.094 34.947,64.41 94.207,95.918 156.437,123.363 39.72,17.48 80.55,32.383 120.33,49.789 47.1,20.613 93.32,43.059 128.67,83.063 8.6,9.714 19.75,17.363 31.78,8.32 12.8,-9.602 9.71,-21.754 3.35,-36.137 -20.51,-46.191 -60.27,-73.738 -93.42,-109.437"
         style="fill:#f9a72b;fill-opacity:1;fill-rule:evenodd;stroke:none"
         id="path226"
         inkscape:connector-curvature="0" /><path
         d="m 917.363,672.664 c -32.156,28.18 -66.535,54.469 -92.617,90.102 -10.988,15.054 -18.199,30.863 -20.367,49.461 -1.086,9.503 4.109,14.753 10.676,19.496 7.957,5.773 15.113,2.992 20.629,-3.496 61.273,-72.024 148.418,-96.27 229.756,-131.434 9.76,-4.207 21.89,-5.285 29.5,-17.844 -54.73,-29.422 -107.077,-61.488 -134.374,-122.39 -4.64,-10.399 -15.347,-4.762 -23.507,-0.981 C 779.855,628.211 690.488,754 660.59,926.117 c -2.172,12.52 -1.223,26.313 13.371,31.192 17.031,5.679 28.187,-4.207 34.125,-19.176 13.301,-33.61 24.203,-68.199 38.293,-101.445 33.562,-79.11 84.098,-140.833 170.984,-164.024"
         style="fill:#f9a72b;fill-opacity:1;fill-rule:evenodd;stroke:none"
         id="path228"
         inkscape:connector-curvature="0" /><path
         d="m 88.6758,68.9297 0,-67.07032 -26.0938,0 0,172.58162 26.0938,0 0,-71.269 c 3.7305,7.609 9.3515,13.578 16.8832,17.93 7.527,4.339 15.636,6.527 24.339,6.527 13.973,0 25.27,-4.27 33.887,-12.82 8.613,-8.528 12.922,-20.8676 12.922,-37.0199 l 0,-75.92972 -26.094,0 0,68.00002 c 0,22.832 -9.453,34.2306 -28.402,34.2306 -9,0 -16.848,-2.969 -23.5196,-8.9611 C 92.0039,89.1602 88.6758,80.4219 88.6758,68.9297"
         style="fill:#3871c1;fill-opacity:1;fill-rule:nonzero;stroke:none"
         id="path230"
         inkscape:connector-curvature="0" /><path
         d="m 414.379,34.5898 c 7.375,-7.5507 16.723,-11.3007 28.07,-11.3007 11.332,0 20.684,3.75 28.055,11.3007 7.375,7.5313 11.066,17.2696 11.066,29.2305 0,11.9414 -3.691,21.6914 -11.066,29.2188 -7.371,7.5309 -16.723,11.3009 -28.055,11.3009 -11.347,0 -20.695,-3.77 -28.07,-11.3009 -7.371,-7.5274 -11.066,-17.2774 -11.066,-29.2188 0,-11.9609 3.695,-21.6992 11.066,-29.2305 z M 489.031,18.5117 C 476.598,6.17188 461.082,0 442.449,0 c -18.633,0 -34.164,6.17188 -46.582,18.5117 -12.429,12.3477 -18.629,27.4375 -18.629,45.3086 0,17.8399 6.2,32.9492 18.629,45.2817 12.418,12.347 27.949,18.527 46.582,18.527 18.633,0 34.149,-6.18 46.582,-18.527 12.418,-12.3325 18.617,-27.4418 18.617,-45.2817 0,-17.8711 -6.199,-32.9609 -18.617,-45.3086"
         style="fill:#3871c1;fill-opacity:1;fill-rule:nonzero;stroke:none"
         id="path232"
         inkscape:connector-curvature="0" /><path
         d="m 735.672,68.9297 0,-67.07032 -26.094,0 0,123.90262 26.094,0 0,-22.59 c 3.726,7.609 9.348,13.578 16.879,17.93 7.531,4.339 15.64,6.527 24.344,6.527 19.558,0 32.832,-8.07 39.82,-24.219 12.258,16.149 27.562,24.219 45.883,24.219 13.972,0 25.269,-4.27 33.882,-12.82 8.618,-8.528 12.926,-20.8676 12.926,-37.0199 l 0,-75.92972 -26.078,0 0,68.00002 c 0,22.832 -9.473,34.2306 -28.422,34.2306 -8.84,0 -16.562,-2.82 -23.168,-8.4884 -6.601,-5.6719 -10.05,-13.9414 -10.367,-24.8008 l 0,-68.94142 -26.09,0 0,68.00002 c 0,11.8008 -2.086,20.4687 -6.289,25.9726 -4.183,5.508 -10.785,8.258 -19.789,8.258 -9,0 -16.844,-2.969 -23.515,-8.9611 -6.692,-5.9687 -10.016,-14.707 -10.016,-26.1992"
         style="fill:#3871c1;fill-opacity:1;fill-rule:nonzero;stroke:none"
         id="path234"
         inkscape:connector-curvature="0" /><path
         d="m 1136.25,72.8906 71.03,0 c 0,10.3985 -3.25,18.3985 -9.79,23.9883 -6.51,5.5901 -14.55,8.3911 -24.09,8.3911 -9.55,0 -18.13,-2.911 -25.75,-8.7387 -7.6,-5.8204 -11.4,-13.7032 -11.4,-23.6407 z m 97.11,-20.4922 -97.11,0 c 0.62,-9 4.73,-16.2695 12.33,-21.789 7.62,-5.4883 16.31,-8.2578 26.1,-8.2578 15.53,0 27.31,4.8984 35.4,14.6679 l 14.91,-16.3007 C 1211.63,6.89844 1194.24,0 1172.82,0 c -17.39,0 -32.19,5.78125 -44.38,17.3398 -12.18,11.5821 -18.28,27.1094 -18.28,46.5821 0,19.4883 6.22,34.9687 18.63,46.4761 12.42,11.493 27.06,17.231 43.91,17.231 16.84,0 31.17,-5.098 42.97,-15.25 11.79,-10.18 17.69,-24.1876 17.69,-42.0509 l 0,-17.9297"
         style="fill:#3871c1;fill-opacity:1;fill-rule:nonzero;stroke:none"
         id="path236"
         inkscape:connector-curvature="0" /><path
         d="m 1725.48,0 c -17.23,0 -32.07,5.85156 -44.48,17.5898 -12.44,11.711 -18.64,27.0508 -18.64,45.9805 0,18.9492 6.48,34.3594 19.44,46.2307 12.96,11.89 28.77,17.828 47.41,17.828 18.63,0 34.37,-6.438 47.28,-19.328 l -15.38,-18.8596 c -10.71,9.3086 -21.5,13.9686 -32.38,13.9686 -10.87,0 -20.29,-3.6209 -28.29,-10.8397 -8.01,-7.2109 -12,-16.5312 -12,-27.9492 0,-11.4023 3.96,-21.0625 11.89,-29 7.92,-7.9102 17.65,-11.8711 29.23,-11.8711 11.56,0 22.47,5.2695 32.71,15.8516 l 15.37,-16.7813 C 1762.58,7.60156 1745.2,0 1725.48,0"
         style="fill:#3871c1;fill-opacity:1;fill-rule:nonzero;stroke:none"
         id="path238"
         inkscape:connector-curvature="0" /><path
         d="m 2050.38,47.9688 0,10.4921 -29.35,0 c -18.8,0 -28.18,-5.9023 -28.18,-17.7109 0,-6.0586 2.33,-10.6797 6.99,-13.8516 4.65,-3.1875 11.13,-4.7773 19.43,-4.7773 8.32,0 15.57,2.3281 21.79,6.9883 6.2,4.6601 9.32,10.9414 9.32,18.8594 z m 26.07,-46.10942 -23.75,0 0,16.53122 C 2042.46,6.12891 2028.71,0 2011.48,0 c -12.89,0 -23.57,3.64844 -32.03,10.9492 -8.46,7.2813 -12.69,17.0391 -12.69,29.2305 0,12.1797 4.5,21.3086 13.52,27.3516 9,6.0585 21.18,9.0898 36.56,9.0898 l 33.76,0 0,4.6602 c 0,16.457 -9.16,24.6877 -27.47,24.6877 -11.49,0 -23.45,-4.207 -35.87,-12.5784 l -11.64,16.3084 c 15.06,11.942 32.13,17.93 51.24,17.93 14.58,0 26.49,-3.699 35.74,-11.07 9.23,-7.368 13.85,-18.9809 13.85,-34.809 l 0,-79.89062"
         style="fill:#3871c1;fill-opacity:1;fill-rule:nonzero;stroke:none"
         id="path240"
         inkscape:connector-curvature="0" /><path
         d="m 2350.11,101.309 c -12.89,0 -22.59,-4.1996 -29.12,-12.5707 -6.52,-8.3867 -9.78,-19.6485 -9.78,-33.7774 l 0,-53.10152 -26.09,0 0,123.90262 26.09,0 0,-24.922 c 4.19,7.769 9.9,14.129 17.11,19.101 7.24,4.957 14.87,7.528 22.94,7.688 l 0.25,-26.32 c -0.47,0 -0.95,0 -1.4,0"
         style="fill:#3871c1;fill-opacity:1;fill-rule:nonzero;stroke:none"
         id="path242"
         inkscape:connector-curvature="0" /><path
         d="m 2568.11,72.8906 71.03,0 c 0,10.3985 -3.25,18.3985 -9.79,23.9883 -6.51,5.5901 -14.55,8.3911 -24.09,8.3911 -9.55,0 -18.13,-2.911 -25.75,-8.7387 -7.6,-5.8204 -11.4,-13.7032 -11.4,-23.6407 z m 97.11,-20.4922 -97.11,0 c 0.62,-9 4.73,-16.2695 12.33,-21.789 7.62,-5.4883 16.31,-8.2578 26.1,-8.2578 15.53,0 27.31,4.8984 35.4,14.6679 l 14.91,-16.3007 C 2643.49,6.89844 2626.1,0 2604.68,0 c -17.39,0 -32.19,5.78125 -44.38,17.3398 -12.18,11.5821 -18.28,27.1094 -18.28,46.5821 0,19.4883 6.22,34.9687 18.63,46.4761 12.42,11.493 27.06,17.231 43.91,17.231 16.84,0 31.17,-5.098 42.97,-15.25 11.79,-10.18 17.69,-24.1876 17.69,-42.0509 l 0,-17.9297"
         style="fill:#3871c1;fill-opacity:1;fill-rule:nonzero;stroke:none"
         id="path244"
         inkscape:connector-curvature="0" /><path
         d="m 3190.64,38.8984 c 0,-11.8086 -4.27,-21.2382 -12.81,-28.2968 C 3169.3,3.51953 3158.33,0 3144.99,0 c -9,0 -18.37,1.62891 -28.07,4.89063 -9.7,3.25781 -18.28,7.83987 -25.73,13.74997 l 12.58,20.2578 c 14.45,-10.8789 28.42,-16.3086 41.92,-16.3086 5.9,0 10.56,1.3516 13.98,4.0704 3.41,2.7109 5.13,6.1796 5.13,10.3593 0,6.2188 -8.25,11.8086 -24.69,16.7813 -1.25,0.4492 -2.18,0.7695 -2.81,0.9297 -25.77,6.9883 -38.66,18.6289 -38.66,34.9297 0,11.4878 4.46,20.6918 13.39,27.6018 8.93,6.898 20.55,10.367 34.82,10.367 14.29,0 27.79,-4.199 40.54,-12.57 l -9.79,-19.3402 c -10.09,6.6792 -21.05,10.0192 -32.84,10.0192 -6.21,0 -11.26,-1.136 -15.14,-3.379 -3.87,-2.257 -5.82,-5.6402 -5.82,-10.1402 0,-4.0274 2.02,-6.9883 6.06,-8.8399 2.78,-1.3984 6.71,-2.7187 11.75,-3.957 5.04,-1.2422 9.51,-2.4922 13.4,-3.7305 3.87,-1.2422 7.65,-2.6406 11.29,-4.1914 3.65,-1.5508 7.57,-3.7305 11.77,-6.5312 8.37,-5.5782 12.57,-14.2891 12.57,-26.0704"
         style="fill:#3871c1;fill-opacity:1;fill-rule:nonzero;stroke:none"
         id="path246"
         inkscape:connector-curvature="0" /><path
         d="m 3421.56,34.5898 c 7.37,-7.5507 16.72,-11.3007 28.07,-11.3007 11.33,0 20.68,3.75 28.05,11.3007 7.37,7.5313 11.07,17.2696 11.07,29.2305 0,11.9414 -3.7,21.6914 -11.07,29.2188 -7.37,7.5309 -16.72,11.3009 -28.05,11.3009 -11.35,0 -20.7,-3.77 -28.07,-11.3009 -7.38,-7.5274 -11.07,-17.2774 -11.07,-29.2188 0,-11.9609 3.69,-21.6992 11.07,-29.2305 z m 74.65,-16.0781 C 3483.78,6.17188 3468.26,0 3449.63,0 c -18.63,0 -34.17,6.17188 -46.58,18.5117 -12.44,12.3477 -18.64,27.4375 -18.64,45.3086 0,17.8399 6.2,32.9492 18.64,45.2817 12.41,12.347 27.95,18.527 46.58,18.527 18.63,0 34.15,-6.18 46.58,-18.527 12.42,-12.3325 18.61,-27.4418 18.61,-45.2817 0,-17.8711 -6.19,-32.9609 -18.61,-45.3086"
         style="fill:#3871c1;fill-opacity:1;fill-rule:nonzero;stroke:none"
         id="path248"
         inkscape:connector-curvature="0" /><path
         d="m 3716.74,1.85938 26.0859,0 0,172.813 -26.0859,0 0,-172.813 z"
         style="fill:#3871c1;fill-opacity:1;fill-rule:nonzero;stroke:none"
         id="path250"
         inkscape:connector-curvature="0" /><path
         d="m 4039.55,58.6914 0,67.0706 26.08,0 0,-123.90262 -26.08,0 0,22.58982 C 4035.35,16.8516 4029.57,10.8594 4022.2,6.51953 4014.82,2.17188 4006.86,0 3998.33,0 c -13.98,0 -25.27,4.26172 -33.89,12.8008 -8.61,8.5508 -12.94,20.8789 -12.94,37.039 l 0,75.9222 26.09,0 0,-68.0003 c 0,-22.8203 9.48,-34.2422 28.43,-34.2422 9,0 16.82,2.9805 23.51,8.9688 6.68,5.9726 10.02,14.7109 10.02,26.2031"
         style="fill:#3871c1;fill-opacity:1;fill-rule:nonzero;stroke:none"
         id="path252"
         inkscape:connector-curvature="0" /><path
         d="m 4307.85,104.789 0,-62.8593 c 0,-5.918 1.54,-10.6211 4.66,-14.1016 3.1,-3.5 7.44,-5.2383 13.03,-5.2383 5.6,0 10.94,2.7188 16.07,8.1485 l 10.72,-18.4102 C 4343.17,4.10156 4333.03,0 4321.93,0 c -11.1,0 -20.58,3.83984 -28.4,11.5313 -7.85,7.6796 -11.77,18.0507 -11.77,31.0781 l 0,62.1796 -15.61,0 0,20.973 15.61,0 0,38.886 26.09,0 0,-38.886 32.61,0 0,-20.973 -32.61,0"
         style="fill:#3871c1;fill-opacity:1;fill-rule:nonzero;stroke:none"
         id="path254"
         inkscape:connector-curvature="0" /><path
         d="m 4571.49,1.85938 -26.09,0 0,123.90262 26.09,0 0,-123.90262 z M 4547.03,150.449 c -3.26,3.25 -4.89,7.141 -4.89,11.641 0,4.5 1.63,8.39 4.89,11.648 3.27,3.262 7.14,4.883 11.64,4.883 4.5,0 8.39,-1.621 11.65,-4.883 3.26,-3.258 4.9,-7.148 4.9,-11.648 0,-4.5 -1.64,-8.391 -4.9,-11.641 -3.26,-3.258 -7.15,-4.89 -11.65,-4.89 -4.5,0 -8.37,1.632 -11.64,4.89"
         style="fill:#3871c1;fill-opacity:1;fill-rule:nonzero;stroke:none"
         id="path256"
         inkscape:connector-curvature="0" /><path
         d="m 4810.55,34.5898 c 7.37,-7.5507 16.72,-11.3007 28.07,-11.3007 11.33,0 20.68,3.75 28.05,11.3007 7.38,7.5313 11.07,17.2696 11.07,29.2305 0,11.9414 -3.69,21.6914 -11.07,29.2188 -7.37,7.5309 -16.72,11.3009 -28.05,11.3009 -11.35,0 -20.7,-3.77 -28.07,-11.3009 -7.38,-7.5274 -11.07,-17.2774 -11.07,-29.2188 0,-11.9609 3.69,-21.6992 11.07,-29.2305 z M 4885.2,18.5117 C 4872.77,6.17188 4857.25,0 4838.62,0 c -18.63,0 -34.17,6.17188 -46.58,18.5117 -12.44,12.3477 -18.64,27.4375 -18.64,45.3086 0,17.8399 6.2,32.9492 18.64,45.2817 12.41,12.347 27.95,18.527 46.58,18.527 18.63,0 34.15,-6.18 46.58,-18.527 12.42,-12.3325 18.62,-27.4418 18.62,-45.2817 0,-17.8711 -6.2,-32.9609 -18.62,-45.3086"
         style="fill:#3871c1;fill-opacity:1;fill-rule:nonzero;stroke:none"
         id="path258"
         inkscape:connector-curvature="0" /><path
         d="m 5131.84,68.9297 0,-67.07032 -26.1,0 0,123.90262 26.1,0 0,-22.59 c 4.18,7.609 9.96,13.578 17.35,17.93 7.37,4.339 15.32,6.527 23.87,6.527 13.97,0 25.27,-4.27 33.89,-12.82 8.61,-8.528 12.92,-20.8676 12.92,-37.0199 l 0,-75.92972 -26.09,0 0,68.00002 c 0,22.832 -9.46,34.2306 -28.41,34.2306 -9,0 -16.84,-2.969 -23.52,-8.9611 -6.69,-5.9687 -10.01,-14.707 -10.01,-26.1992"
         style="fill:#3871c1;fill-opacity:1;fill-rule:nonzero;stroke:none"
         id="path260"
         inkscape:connector-curvature="0" /><path
         d="m 5516.82,38.8984 c 0,-11.8086 -4.27,-21.2382 -12.82,-28.2968 C 5495.47,3.51953 5484.51,0 5471.17,0 c -9.01,0 -18.37,1.62891 -28.08,4.89063 -9.7,3.25781 -18.28,7.83987 -25.72,13.74997 l 12.57,20.2578 c 14.45,-10.8789 28.42,-16.3086 41.93,-16.3086 5.9,0 10.56,1.3516 13.97,4.0704 3.42,2.7109 5.13,6.1796 5.13,10.3593 0,6.2188 -8.25,11.8086 -24.69,16.7813 -1.24,0.4492 -2.17,0.7695 -2.8,0.9297 -25.78,6.9883 -38.67,18.6289 -38.67,34.9297 0,11.4878 4.47,20.6918 13.4,27.6018 8.93,6.898 20.54,10.367 34.81,10.367 14.29,0 27.79,-4.199 40.54,-12.57 l -9.79,-19.3402 c -10.08,6.6792 -21.05,10.0192 -32.83,10.0192 -6.22,0 -11.26,-1.136 -15.15,-3.379 -3.87,-2.257 -5.81,-5.6402 -5.81,-10.1402 0,-4.0274 2.01,-6.9883 6.06,-8.8399 2.78,-1.3984 6.7,-2.7187 11.75,-3.957 5.04,-1.2422 9.5,-2.4922 13.39,-3.7305 3.87,-1.2422 7.65,-2.6406 11.3,-4.1914 3.64,-1.5508 7.56,-3.7305 11.77,-6.5312 8.37,-5.5782 12.57,-14.2891 12.57,-26.0704"
         style="fill:#3871c1;fill-opacity:1;fill-rule:nonzero;stroke:none"
         id="path262"
         inkscape:connector-curvature="0" /><path
         d="m 2804.47,319.371 c -938.59,0 -1882.111,2.43 -2804.47,7.309 l 0.0898438,17.929 C 1844.77,334.852 3774.02,334.852 5579.3,344.609 l 0.1,-17.929 c -902.67,-4.879 -1836.34,-7.309 -2774.93,-7.309"
         style="fill:#3871c1;fill-opacity:1;fill-rule:nonzero;stroke:none"
         id="path264"
         inkscape:connector-curvature="0" /></g></g></svg>