<svg xmlns="http://www.w3.org/2000/svg" height="191.837" width="697.425"><path d="M482.483 53.816c0 3.108.408 5.034 1.226 5.78.81.745 2.68 1.182 5.59 1.308.2.282.31.768.32 1.46.01.69-.1 1.15-.33 1.375-5.25-.12-8.63-.17-10.16-.17-1.68 0-5.07.05-10.16.17-.26-.23-.38-.69-.38-1.38s.12-1.18.38-1.46c2.9-.1 4.75-.53 5.55-1.29.79-.76 1.19-2.69 1.19-5.8V22.7c0-3.106-.4-5.035-1.2-5.78-.8-.745-2.65-1.167-5.56-1.27-.25-.22-.38-.68-.38-1.375 0-.694.13-1.18.38-1.46 5.22.11 8.58.168 10.08.168 1.71 0 5.11-.057 10.23-.168.2.28.31.76.32 1.44.01.68-.09 1.146-.32 1.395-2.94.103-4.81.525-5.61 1.27-.81.745-1.21 2.674-1.21 5.78v31.116m53.76-30.282c0-1.818-.08-3.202-.25-4.15-.17-.947-.56-1.693-1.19-2.237-.63-.542-1.28-.89-1.96-1.042-.68-.15-1.82-.302-3.43-.455-.26-.22-.39-.68-.4-1.375-.02-.694.12-1.18.4-1.46 5.24.11 8.14.168 8.7.168.74 0 3.66-.057 8.77-.168.21.28.31.76.31 1.44 0 .68-.1 1.146-.31 1.395-2.94.305-4.81.868-5.62 1.688s-1.21 2.887-1.21 6.196V61.75c0 1.735-.6 2.603-1.8 2.603-1.15 0-2.2-.672-3.15-2.01L507.73 27.97c-1.355-1.72-2.243-2.572-2.663-2.56-.42.013-.63 1.283-.63 3.81v23.763c0 1.818.08 3.202.25 4.15.164.947.56 1.692 1.186 2.236.624.54 1.275.89 1.954 1.04.677.15 1.82.31 3.43.49.205.28.31.77.326 1.46.01.69-.1 1.15-.33 1.37-5.24-.12-8.14-.17-8.7-.17-.74 0-3.667.05-8.776.17-.257-.23-.39-.69-.403-1.38-.01-.69.12-1.18.404-1.46 2.938-.31 4.81-.87 5.614-1.71.804-.84 1.208-2.91 1.208-6.22V20.61c-.255-1.137-.96-2.223-2.11-3.26-1.15-1.035-2.514-1.603-4.096-1.706-.255-.22-.383-.68-.383-1.373s.13-1.18.39-1.46l10.62.16 26.9 34.54c.36.46.75.98 1.17 1.57.42.59.74 1.01.96 1.26l.67.78c.23.27.42.45.58.55.15.1.28.15.38.15.36 0 .55-.78.58-2.35V23.54m-58.38 63.424v18.167c.95.25 2.94.38 5.97.38 3.88 0 6.79-.95 8.74-2.85 1.95-1.9 2.93-4.89 2.93-8.97 0-4.51-.99-7.59-2.98-9.23-1.99-1.64-4.6-2.47-7.84-2.47-4.53 0-6.8 1.66-6.8 4.98zm-6.74 2.42c0-3.11-.4-5.04-1.2-5.786-.8-.746-2.65-1.17-5.55-1.268-.25-.205-.38-.65-.38-1.333 0-.684.13-1.172.38-1.465 5.22.103 8.58.153 10.08.153 1.16 0 3.09-.09 5.82-.266 2.73-.18 4.39-.27 4.98-.27 3.29 0 6.12.44 8.49 1.33 2.38.89 4.14 2.06 5.31 3.51 1.17 1.45 1.99 2.85 2.47 4.19.49 1.34.73 2.7.73 4.09 0 1.85-.31 3.65-.91 5.41-.6 1.76-1.55 3.47-2.84 5.12-1.28 1.65-3.16 2.99-5.62 4-2.47 1.01-5.34 1.52-8.64 1.52-2.6 0-4.72-.27-6.35-.82v13.07c0 3.03.5 4.91 1.48 5.65.99.74 3.14 1.19 6.46 1.37.26.28.38.76.38 1.46 0 .69-.1 1.15-.32 1.37-5.24-.12-9.02-.17-11.32-.17-1.68 0-5.07.05-10.16.17-.25-.23-.38-.69-.38-1.38 0-.7.13-1.18.38-1.46 2.9-.11 4.76-.54 5.55-1.29.8-.76 1.2-2.7 1.2-5.81v-31.1m47.32 40.92c-4.23.05-7.61.1-10.16.15-.25-.23-.38-.69-.38-1.38 0-.7.13-1.18.38-1.46 2.9-.11 4.76-.54 5.55-1.29.8-.76 1.2-2.69 1.2-5.8V89.41c0-3.107-.4-5.034-1.19-5.78-.79-.745-2.64-1.168-5.55-1.27-.25-.22-.38-.68-.38-1.375 0-.694.13-1.18.38-1.46 5.22.112 8.58.17 10.08.17 1.69 0 5.1-.058 10.22-.17.16.28.24.76.24 1.44 0 .68-.1 1.146-.3 1.395-2.91.104-4.76.53-5.55 1.284-.79.753-1.19 2.7-1.19 5.842v34.062c0 1.2.33 2.153.98 2.855.65.707 1.55 1.057 2.7 1.057h5.73c3.82 0 6.69-.9 8.59-2.702 1.9-1.8 3.3-4.322 4.19-7.567.9-.15 1.75-.02 2.57.39-.51 4.47-1.19 8.76-2.03 12.88-4.83-.1-7.94-.15-9.35-.15H518.5m50.35-22.22h13.87l-7.36-21.34h-.494l-8.01 20.31c-.07.16-.1.3-.07.42.024.13.075.23.15.31.08.08.204.14.38.19.18.06.39.09.63.1.25.02.55.02.9.02zm-8.51 15.81c-.05.51-.13.95-.23 1.34-.1.39.046.72.44.98l.94.62c.23.15.664.29 1.3.41.64.13 1.14.2 1.497.23.36.03.86.08 1.5.15.2.28.31.77.31 1.46s-.11 1.15-.31 1.38c-3.89-.11-7.23-.17-10.04-.17-.8 0-3.13.06-7.02.17-.252-.22-.38-.68-.38-1.37 0-.69.13-1.18.38-1.46 1.99-.15 3.566-.56 4.716-1.22 1.15-.66 2.197-2.1 3.14-4.34l17.82-41.84c1.15 0 2.59-.52 4.33-1.57l16.17 44.66c.308.94.68 1.7 1.13 2.27.448.57 1.06.99 1.84 1.27s1.367.45 1.76.5c.39.05 1.167.14 2.317.27.26.28.39.77.39 1.46s-.12 1.15-.38 1.37c-3.88-.11-6.87-.17-8.963-.17-2.983 0-6.41.06-10.27.17-.2-.22-.3-.68-.3-1.37 0-.7.1-1.18.305-1.46.31 0 .71-.02 1.21-.06.49-.04.88-.07 1.15-.1.26-.03.61-.06 1.03-.11.42-.05.732-.1.94-.15.202-.05.45-.12.73-.22.28-.1.48-.23.59-.38.12-.15.21-.33.29-.54.08-.21.1-.44.08-.69-.03-.25-.09-.55-.197-.9l-4.56-13.08H567.4c-.944 0-1.59.09-1.933.28-.34.19-.62.54-.82 1.04l-4.33 11.19m67.34 7.19c-5.314 0-9.89-1.27-13.73-3.8-3.837-2.53-6.63-5.69-8.38-9.46-1.75-3.77-2.625-7.86-2.625-12.26 0-8.42 2.73-15.17 8.196-20.24 4.78-4.43 10.32-6.65 16.615-6.65 3.76 0 7.435.57 11.03 1.7 3.59 1.14 5.655 1.73 6.19 1.78.89 5.5 1.47 9.56 1.727 12.17-.99.51-1.86.64-2.6.38-2.66-8.8-8.385-13.2-17.18-13.2-4.58 0-8.76 2.33-12.547 6.99-1.485 1.82-2.635 4.04-3.45 6.68-.82 2.64-1.23 5.61-1.23 8.91 0 4.04.626 7.82 1.88 11.32 1.253 3.51 3.273 6.47 6.06 8.89 2.79 2.42 6.11 3.63 9.974 3.63 3.655 0 6.913-.67 9.78-2.01 2.863-1.34 5.676-3.53 8.44-6.58.79 0 1.39.4 1.8 1.19-5.395 7.06-12.044 10.59-19.945 10.59m44.52-28.97c3.19 0 5.14-.32 5.87-.96.726-.64 1.14-2.15 1.24-4.52.205-.26.626-.39 1.265-.39.635 0 1.083.13 1.34.39-.104 3.17-.155 5.45-.155 6.84 0 .95.053 3.24.156 6.89-.255.3-.695.45-1.32.45-.63 0-1.054-.13-1.284-.39-.1-1.43-.254-2.46-.46-3.09-.202-.63-.826-1.18-1.87-1.66-1.04-.48-2.634-.72-4.774-.72h-7.11v19.13c0 2.27.925 3.41 2.785 3.41h10.65c4.964 0 8.376-3.46 10.236-10.38.94-.21 1.86-.08 2.76.39-.64 4.1-1.61 8.42-2.91 12.97-4.18-.11-7.52-.16-10.02-.16H661.7c-4.226.05-7.624.11-10.194.16-.205-.22-.306-.68-.306-1.37 0-.69.107-1.18.31-1.46 2.906-.1 4.764-.53 5.57-1.29.81-.76 1.216-2.69 1.216-5.8v-31.2c0-3.1-.41-5.03-1.225-5.78-.81-.74-2.69-1.17-5.63-1.27-.2-.22-.3-.68-.3-1.38 0-.7.1-1.18.31-1.45l10.16.16h20c1.36 0 2.63-.1 3.83-.31.21 0 .31.07.31.23.41 1.77 1 5.52 1.77 11.26-.84.42-1.71.55-2.6.39-.99-3.22-2.03-5.48-3.13-6.78-1.09-1.31-2.99-1.96-5.68-1.96h-8.25c-.89 0-1.58.33-2.06 1-.49.66-.73 1.51-.73 2.52v16.06h7.11" fill="#f9a72b"/><path d="M9.673 124.757c-.082-.618-.042-1.152.124-1.606.164-.45.432-.94.803-1.48.37-.53.72-1.3 1.05-2.28 0-15.81.165-31.86.495-48.13.33-16.26.165-32.18-.494-47.75-.41-.99-.8-1.77-1.17-2.34-.37-.57-.74-1.09-1.11-1.54-.37-.45-.72-.88-1.05-1.29-.33-.41-.62-.95-.86-1.6.74-1.07 1.65-1.85 2.72-2.35 1.07-.49 2.23-.78 3.46-.86 1.24-.08 2.53-.04 3.89.13 1.36.16 2.74.41 4.14.74 1.07 0 2.7-.12 4.88-.37 2.19-.25 4.51-.45 6.99-.62 2.47-.16 4.88-.2 7.23-.12 2.35.09 4.18.42 5.5.99 0 1.48.02 2.99.06 4.51.05 1.53.15 3.07.31 4.63-.66.66-1.52.99-2.59.99-1.23 0-2.49-.35-3.76-1.05-1.28-.7-2.45-1.21-3.52-1.54-3.79-.25-6.71-.41-8.77-.49-2.06-.08-3.58-.12-4.57-.12-1.07 0-1.81.06-2.22.19-.41.13-.82.23-1.23.31-.41 7.91-.64 14.71-.68 20.39-.04 5.69.02 10.42.19 14.21.17 3.79.39 6.63.68 8.53.29 1.9.56 3.01.81 3.34 2.14-.41 4.34-.49 6.61-.25 2.26.25 4.51.29 6.73.12 1.98-.9 3.52-1.19 4.64-.86 1.12.33 1.88 1.01 2.29 2.04.41 1.03.54 2.35.37 3.95-.16 1.61-.53 3.19-1.11 4.76-1.31 0-2.3-.08-2.96-.25-.66-.16-1.17-.37-1.54-.61-.37-.25-.68-.51-.92-.8-.25-.28-.62-.51-1.11-.68-1.9 0-3.36-.06-4.39-.18-1.03-.12-1.96-.22-2.78-.31-.83-.08-1.67-.1-2.53-.06-.87.05-2.08.23-3.65.56-.66 3.54-1.05 7.13-1.18 10.75-.12 3.63-.14 7.29-.06 11 .08 3.7.23 7.41.44 11.12.2 3.71.3 7.41.3 11.12 1.16 1.4 1.86 2.47 2.1 3.21.25.74.31 1.36.19 1.86s-.37.95-.74 1.36c-.37.42-.6.95-.68 1.61-1.15.17-2.1.21-2.84.13-.74-.09-1.46-.15-2.16-.19l-2.22-.12c-.78-.04-1.75-.02-2.9.06-.66-1.15-1.03-2.04-1.11-2.66m75.3 5.18c-2.76-.29-5.66-.43-8.71-.43-2.97 0-5.89.06-8.77.19-2.88.12-5.46.16-7.72.12-2.27-.04-4.1-.27-5.5-.68-1.4-.41-2.1-1.11-2.1-2.1 0-1.89.28-3.03.86-3.4.58-.37 1.15-.55 1.73-.55.49 0 .82-.04.99-.13.08-8.24.14-16.56.18-24.96.04-8.41.06-16.93.06-25.58 0-8.73.02-17.34.06-25.83.04-8.48.07-16.88.07-25.2-.91-.91-1.5-1.69-1.79-2.35-.29-.66-.43-1.23-.43-1.73 0-.66.1-1.15.31-1.48.2-.32.3-.65.3-.98 1.9-1.16 3.65-1.79 5.25-1.92 1.61-.13 3.61.52 6 1.92 0 1.15-.14 2.24-.43 3.27-.29 1.03-.93 2-1.92 2.9V121.2c.24.33.51.7.8 1.113.29.41.56.78.8 1.11h11.2c1.07 0 2.14-.02 3.21-.06 1.07-.04 2.23-.11 3.46-.19 1.24-.09 2.8-.21 4.7-.38.82-.326 1.62-.72 2.41-1.17.78-.45 1.56-.865 2.34-1.24.78-.37 1.63-.6 2.53-.68.91-.08 1.86.12 2.84.62 0 2.305-.37 4.47-1.11 6.48-.74 2.02-2.18 3.69-4.32 5.01-2.15-.91-4.6-1.5-7.36-1.79m140.24-.37c-1.94-.12-3.73-.592-5.38-1.42-1.65-.82-3.21-2.16-4.7-4.01-1.48-1.853-2.97-4.47-4.45-7.85-1.65-7.83-2.66-15.65-3.03-23.48-.37-7.82-.49-15.65-.37-23.474.12-7.83.33-15.68.62-23.54.29-7.87.31-15.8.06-23.79-.66-.5-1.2-.97-1.61-1.42-.42-.45-.91-.89-1.49-1.3V14.9c1.4-.41 3.11-.72 5.12-.927 2.02-.2 3.73-.12 5.13.25s2.18 1.17 2.35 2.41c.16 1.23-.87 3.05-3.09 5.44 0 2.06-.04 5.45-.13 10.19-.09 4.74-.15 10.15-.19 16.25-.04 6.093-.02 12.56.06 19.4.09 6.84.27 13.43.56 19.77.29 6.34.72 12.09 1.3 17.24.58 5.15 1.4 9.12 2.47 11.92 1.57 2.14 3.75 3.85 6.55 5.13 2.8 1.28 5.77 1.92 8.9 1.92 3.13 0 6.16-.79 9.08-2.35 2.92-1.567 5.21-4.08 6.86-7.54.74-1.315 1.38-3.58 1.92-6.796.53-3.21.97-7.08 1.3-11.613.32-4.53.55-9.615.68-15.26.12-5.64.14-11.614.06-17.916-.08-6.306-.29-12.79-.62-19.466-.33-6.67-.74-13.3-1.23-19.9-1.16-1.31-1.94-2.32-2.35-3.02-.41-.7-.62-1.46-.62-2.29v-2.1c.58-.41 1.4-.7 2.47-.87 1.07-.16 2.23-.242 3.46-.242 1.32 0 2.64.02 3.96.06 1.32.04 2.43.06 3.33.06.66.66.99 1.77.99 3.338 0 .66-.23 1.34-.68 2.04-.45.7-1.26 1.38-2.41 2.04-.33 8.65-.29 17.42.12 26.32.41 8.9.7 17.45.86 25.64.17 8.2.02 15.82-.43 22.86-.46 7.046-1.69 13.12-3.71 18.23-2.02 5.11-5.03 9-9.02 11.67-4 2.68-9.46 3.69-16.38 3.03-2.31 0-4.43-.06-6.36-.18m59.31-60.054c1.77-.95 3.69-2.23 5.75-3.83 2.06-1.61 4.06-3.567 6-5.87 1.93-2.308 3.29-4.987 4.08-8.037.78-3.043.78-6.503 0-10.38-.79-3.87-2.86-8.15-6.24-12.85-1.24-1.07-2.47-2.08-3.71-3.023-1.24-.94-2.52-1.69-3.83-2.22-1.32-.535-2.64-.804-3.96-.804-1.23 0-2.47.37-3.7 1.11.16.82.33 2.45.49 4.88.16 2.43.29 5.23.37 8.4.08 3.18.18 6.57.31 10.2s.22 7.064.31 10.32c.08 3.25.18 6.156.31 8.71.12 2.55.31 4.32.56 5.31.41-.33 1.5-.97 3.27-1.915zm-10.87 58.14c-.29-.088-.55-.25-.8-.5-.24-.248-.47-.637-.68-1.17-.2-.538-.3-1.34-.3-2.41.74-.41 1.25-.91 1.54-1.48.29-.58.45-1.18.5-1.8.04-.62.04-1.252 0-1.912-.04-.66-.02-1.28.06-1.86-.08-1.81-.1-4.3-.06-7.474.04-3.17.08-6.755.13-10.75.04-3.996.08-8.3.12-12.91.04-4.617.06-9.31.06-14.09 0-4.86-.02-9.64-.06-14.33-.04-4.7-.14-9.108-.31-13.228-.16-4.12-.37-7.87-.61-11.24-.25-3.375-.54-6.18-.87-8.4-.25-1.4-.56-2.22-.93-2.47s-.84-.534-1.42-.864c0-1.73.43-3.01 1.3-3.83.86-.824 1.98-1.36 3.33-1.61 1.36-.25 2.84-.35 4.45-.31 1.6.047 3.11.06 4.51.06 4.77 1.406 8.85 3.57 12.23 6.49 3.38 2.93 5.97 6.306 7.79 10.13 1.81 3.836 2.78 7.997 2.91 12.48.12 4.496-.68 9.047-2.41 13.66-1.9 3.71-4.35 7.25-7.35 10.63-3.01 3.38-6.36 6.01-10.07 7.91.74 1.56 1.87 3.64 3.4 6.24 1.52 2.595 3.29 5.46 5.31 8.59 2.02 3.13 4.24 6.32 6.67 9.575 2.43 3.26 4.9 6.31 7.42 9.15 2.51 2.84 4.99 5.34 7.42 7.48 2.43 2.14 4.715 3.58 6.86 4.32 1.07.17 2.08.21 3.03.13.95-.08 1.75-.02 2.41.18.66.21 1.174.64 1.55 1.3.37.66.56 1.82.56 3.47-1.07.99-2.1 1.6-3.09 1.85-.99.25-2.14.19-3.46-.18-1.31-.37-2.84-1.05-4.57-2.04-1.73-.99-3.87-2.27-6.42-3.83-2.06-1.32-4.16-3.15-6.3-5.5-2.15-2.35-4.25-4.92-6.31-7.72-2.06-2.8-4.08-5.7-6.055-8.71-1.98-3-3.83-5.85-5.56-8.52-1.73-2.67-3.32-5.1-4.76-7.29-1.44-2.18-2.61-3.81-3.52-4.88-.243.42-.43 1.24-.552 2.47-.12 1.24-.22 2.76-.31 4.58-.08 1.81-.14 3.81-.18 5.99-.04 2.19-.06 4.39-.06 6.61v8.65c0 2.56.04 4.74.12 6.55.08 1.81.17 2.8.25 2.97.25.74.6 1.57 1.05 2.47.45.91.89 1.73 1.3 2.47.41.75.76 1.38 1.05 1.92.28.54.43.85.43.93-.41.99-.99 1.67-1.73 2.04-.74.37-1.57.56-2.47.56-.91 0-1.874-.08-2.9-.25-1.03-.16-2-.16-2.91 0-.165-.08-.39-.16-.68-.24m67.04 1.23h-2.35c-1.24 0-2.16.02-2.78.07-.62.04-1.05.06-1.3.06h-.3c-.24-.33-.45-.84-.61-1.54-.17-.7-.29-1.44-.37-2.22-.085-.78-.085-1.5 0-2.16.08-.66.33-1.16.74-1.49.16-.16.35-.39.556-.68.203-.28.553-.59 1.05-.92.08-8.57.202-16.87.37-24.9.163-8.03.29-16 .37-23.91.08-7.91.12-15.82.12-23.73 0-7.99-.04-16.23-.126-24.72-3.213-2.96-3.63-5.56-1.24-7.78h9.27c1.15 1.57 1.585 2.97 1.3 4.21-.29 1.24-.885 2.93-1.79 5.07-.49 9.88-.74 41.72-.74 95.51.74.42 1.34 1.06 1.79 1.92.454.87.72 1.77.805 2.72.08.95-.02 1.88-.31 2.78-.29.91-.72 1.53-1.294 1.86-1.157-.08-2.227-.12-3.216-.12m16.69-4.45c-1.15 0-1.953-.04-2.404-.12-.46-.08-1.05-.2-1.79-.37 0-1.24.04-2.59.12-4.08.08-1.48.21-2.92.37-4.32.17-1.4.41-2.72.74-3.96.33-1.23.74-2.26 1.24-3.09 1.24-.41 2.52-.62 3.83-.62.74 1.32 1.32 2.64 1.73 3.956.41 1.32.91 2.64 1.48 3.96.58 1.32 1.36 2.55 2.35 3.7.99 1.15 2.43 2.18 4.33 3.09 5.6.66 9.9.1 12.91-1.67s5.13-4.16 6.37-7.17c1.24-3 1.81-6.34 1.73-10-.08-3.66-.45-7.12-1.11-10.38-.66-3.25-1.38-5.99-2.16-8.22-.78-2.22-1.22-3.38-1.3-3.46-1.65-2.97-3.54-5.89-5.68-8.77-2.14-2.88-4.28-5.79-6.42-8.71-2.14-2.93-4.16-5.87-6.05-8.84-1.9-2.97-3.46-6.02-4.7-9.15-1.23-3.13-2-6.34-2.28-9.64-.29-3.29.1-6.75 1.18-10.38 1.32-1.974 2.62-3.83 3.9-5.56 1.28-1.73 2.88-3.105 4.82-4.14 1.94-1.025 4.35-1.58 7.23-1.664 2.88-.08 6.63.53 11.25 1.85.33.99.74 2.16 1.23 3.52.49 1.36.91 2.74 1.24 4.14.33 1.4.48 2.78.44 4.14-.04 1.36-.43 2.57-1.17 3.64h-2.35c-.99-1.49-1.86-3.17-2.6-5.07-.74-1.893-1.69-3.5-2.84-4.82-4.692 0-8.15.95-10.38 2.84-2.22 1.9-3.54 4.267-3.95 7.11-.41 2.84-.08 5.95.99 9.33s2.59 6.546 4.57 9.51c6.5 7.5 11.49 14.46 14.95 20.88 3.46 6.427 5.85 12.29 7.17 17.61 1.32 5.31 1.83 10.007 1.54 14.08-.29 4.08-.887 7.54-1.79 10.38-.91 2.84-1.85 4.99-2.84 6.43-.99 1.44-1.57 2.16-1.73 2.16 0 .82-.54 1.73-1.61 2.72-1.075.985-2.475 1.87-4.205 2.65-1.73.78-3.71 1.4-5.93 1.86-2.23.45-4.47.6-6.74.43-2.27-.16-4.49-.68-6.673-1.54-2.18-.86-4.1-2.28-5.745-4.26h-3.22m47.21 3.52c-.25-.2-.49-.35-.74-.43v-2.22c0-.66.06-1.214.19-1.67.126-.45.31-.88.56-1.3.25-.41.58-.94.99-1.6 0-3.29.04-7.61.12-12.97.08-5.35.14-11.22.188-17.61.04-6.38.04-13.05 0-20.02-.05-6.96-.15-13.71-.31-20.26-.17-6.55-.46-12.64-.87-18.28-.41-5.64-.94-10.36-1.6-14.15.41-1.314.7-2.674.87-4.075 1.07 0 2.16-.02 3.27-.06 1.12-.04 2.15.06 3.09.31.95.25 1.73.78 2.35 1.603.62.83.93 2.1.93 3.83-.17 2.81-.31 5.87-.43 9.21-.12 3.34-.25 6.68-.37 10.01-.12 3.34-.23 6.59-.31 9.76-.09 3.173-.13 5.994-.13 8.47 0 2.39.02 4.35.06 5.87.04 1.53.19 2.33.44 2.41 3.29.33 6.86.48 10.69.43 3.836-.04 7.686-.19 11.56-.43.415-.41.745-1.65.99-3.71.25-2.06.455-4.53.62-7.41.17-2.88.27-6.01.31-9.39.04-3.38.06-6.55.06-9.52 0-3.13-.06-5.83-.19-8.1-.12-2.26-.23-3.85-.31-4.758-.41-.91-.74-1.65-.99-2.23-.24-.58-.43-1.07-.55-1.49-.12-.41-.18-.86-.18-1.36V15c3.05-1.48 5.3-1.932 6.74-1.356 1.44.578 2.368 1.73 2.78 3.46.41 1.73.497 3.81.25 6.24s-.45 4.798-.62 7.104c0 7.33-.06 14.784-.18 22.363-.12 7.58-.26 15.2-.43 22.86-.16 7.66-.29 15.31-.37 22.92-.08 7.62-.12 15.06-.12 22.31.66.91 1.27 1.61 1.85 2.1.58.5.87 1.32.87 2.47 0 .42-.045.83-.126 1.24-.08.41-.246.95-.49 1.6-.66.17-1.57.31-2.72.43-1.15.13-2.31.19-3.46.19-1.07 0-2.06-.06-2.97-.19-.91-.12-1.65-.51-2.224-1.17.57-1.15.98-2.3 1.23-3.46.25-1.15.58-2.3.99-3.46 0-1.48.06-3.79.187-6.92.12-3.13.29-6.61.498-10.44.2-3.83.37-7.7.49-11.61.12-3.91.18-7.43.18-10.56 0-4.2-.25-7.37-.74-9.51-1.89 0-3.89-.02-5.99-.06-2.1-.04-4.22-.06-6.36-.06-2.14 0-4.14.11-5.99.31-1.85.21-3.52.64-5 1.3-.33 7.09-.54 12.65-.62 16.68-.09 4.04-.13 7.42-.13 10.14 0 2.72.04 5.8.13 9.26.08 3.46.29 7.13.62 11 1.07 2.72 1.63 4.67 1.67 5.87.04 1.2-.31 1.96-1.05 2.29-.74.33-1.81.45-3.21.37-1.4-.09-3.09-.09-5.067 0-.33-.25-.62-.48-.866-.68m-267.5-72.31c-.016 2 1.61 3.64 3.59 3.63 1.93 0 3.58-1.63 3.613-3.57.04-1.94-1.616-3.63-3.587-3.66-1.956-.03-3.606 1.61-3.62 3.61zm49.56-19.89c1.583 1.46 3.75 1.7 5.46.64 1.68-1.05 2.62-2.68 3.46-4.4.16-.32.007-.46-.266-.58-.8-.34-1.64-.6-2.49-.78-2.85-.6-5.56.05-6.46 3.26-.1.38-.14.37-.04.75.61-.58 1.15-1.26 1.98-1.53-.61.51-1.15 1.07-1.77 1.73.95 0 1.66-.55 2.49-.6-.65.55-1.53.65-2.28 1.19.76.13 1.43.17 2.1.22-.69.22-1.4.1-2.16.12zM130.41 8.94c.128-.174.183-.238.225-.308.14-.238.295-.47.413-.72.76-1.605.78-3.167-.3-4.65-1.13-1.56-2.74-2.46-4.45-3.217-.28-.123-.33.055-.41.23-.34.694-.51 1.445-.69 2.19-.34 1.434-.41 2.86.15 4.27.58 1.43 2.47 2.69 3.93 2.586-.07-.19-.38-.24-.33-.5.24-.15.34.23.6.13l-1.7-4.51c.41.7.74 1.42 1.07 2.15l1.05 2.3c.29-.78.11-1.5.21-2.33.35.83.17 1.56.26 2.4zm-28.12 55.553c-3.114.912-6.112 1.79-9.11 2.67l-.023-.07c2.914-1.045 5.825-2.092 8.737-3.138-1.998-.662-3.975-.686-5.96-.15 2.028-.845 4.12-.894 6.293-.476-.43-.48-.91-.79-1.39-1.11-2.71-1.83-5.47-1.86-8.19-.07-2.18 1.43-3.68 3.46-4.92 5.69-.68 1.22-.66 1.26.59 1.87 2.48 1.18 5.06 1.89 7.84 1.7 3.64-.26 5.95-3.06 6.51-6.48-1.4 1.43-2.93 2.57-4.85 3.09 1.74-.82 3.26-1.89 4.48-3.55zm35.58-52.462c.068 1.11.167 2.03.47 2.91.31.9.65 1.8 1.307 2.7.18-2.9.35-5.68.52-8.46h.11v8.34c1.127-1.31 1.697-2.84 2.11-4.45-.024 1.76-.718 3.32-1.56 4.93.6-.25 1.003-.56 1.406-.87 2.46-1.85 3.642-4.27 2.972-7.36-.66-3.05-2.44-5.49-4.54-7.72-.23-.24-.38-.14-.57.05-1.98 1.92-3.71 4-4.65 6.64-.97 2.72-.58 5.2 1.37 7.38.63.7 1.34 1.31 2.25 1.82-1.25-3.36-1.41-4.13-1.21-5.88zm32.92 39.12c.587.83 1.208 1.37 1.846 1.89 3.04 2.47 6.34 3.06 9.95 1.34 3.39-1.62 5.82-4.31 7.99-7.29.34-.47.23-.69-.21-.99-2.2-1.49-4.52-2.74-7.08-3.5-2.08-.62-4.19-.87-6.31-.31-2.63.69-4.38 2.45-5.65 4.76-.34.61-.72 1.22-.86 2 3.61-2.4 5.68-3.23 7.84-3.19-2.81.47-5.24 1.69-7.22 3.8l11.48-1.68.01.1-11.54 2.43c2.67 1.23 5.32 1.52 8.07 1.12-1.35.4-2.72.54-4.11.45-1.4-.09-2.76-.39-4.24-.9zm-60.63-.71c-1.744-.35-3.492-.69-5.235-1.06-1.75-.37-3.495-.76-5.24-1.14 1.792.13 3.56.39 5.33.65 1.763.26 3.53.51 5.48.79-1.93-1.87-4.02-3.03-6.4-3.7 2.552.33 4.744 1.47 6.79 3.01-.637-1.73-1.495-3.3-2.808-4.58-2.29-2.23-5.084-2.74-8.12-2.22-3.346.57-6.278 2.12-9.05 4.01-.38.26-.41.48-.13.87 1.886 2.68 4.076 5.04 6.894 6.76 1.69 1.03 3.53 1.67 5.52 1.56 3.1-.16 5.41-1.83 7.49-4.21-2.63.87-5.15 1.23-7.74.6 2.53.28 4.93-.16 7.23-1.29zm30.04-3.37l.43-13.96h.137c.14 4.65.28 9.31.417 13.96 2.01-2.76 3.006-5.82 3.07-9.2.33 3.5-.607 6.71-2.33 9.91 2.37-1.43 4.274-3.05 5.55-5.3 1.52-2.68 1.603-5.55.745-8.42-1.31-4.39-4.02-7.89-7.21-11.08-.33-.33-.5-.13-.73.1-1.41 1.41-2.71 2.9-3.85 4.52-1.53 2.18-2.82 4.48-3.43 7.1-.52 2.2-.52 4.39.32 6.54.72 1.85 1.94 3.34 3.42 4.63.78.67 1.59 1.31 2.56 1.74-1.72-3.37-2.71-6.87-2.06-10.59-.25 3.65.79 7.03 2.96 10.09zm-14.27 7.23c1.208.66 2.396 1.32 3.52 2.08 2.01 1.36 3.838 2.9 5.108 5.03 1.08 1.8 1.87 3.73 2.63 5.67.45 1.13.83 2.27.87 3.51.2 5.86-.26 11.68-1.16 17.46-.31 1.98-.74 3.93-1.68 5.73-.58 1.12-1.32 2.13-2.11 3.11-.31.4-.59.89-.31 1.42.26.51.79.42 1.25.44.17.01.34 0 .52 0 4.19 0 8.37.01 12.55 0 .56 0 1.25.18 1.54-.47.29-.64-.17-1.17-.52-1.68l-.04-.05c-1.56-1.78-2.56-3.85-3.09-6.15-.6-2.66-.9-5.36-1.18-8.08-.38-3.8-.57-7.61-.45-11.44.03-.89.17-1.76.46-2.62.53-1.55 1.16-3.06 1.84-4.55.63-1.4 1.38-2.73 2.38-3.91 1.48-1.75 3.31-3.05 5.27-4.21.73-.43 1.48-.81 2.33-1.28-.66-.03-1.12.21-1.6.36-5.57 1.74-9.68 5.21-12.34 10.4-.2.4-.42.75-.92.77-.55.03-.79-.35-.99-.76-.37-.76-.81-1.49-1.28-2.2-2.36-3.57-5.57-6.11-9.55-7.68-.96-.37-1.94-.72-2.97-.84zm31.297-5.45l.135.13c-2.13 1.59-4.612 2.27-7.323 2.81 1.53.58 2.93.95 4.39 1.12 3.83.46 7-.76 9.51-3.68 1.46-1.7 2.48-3.65 3.23-5.75.84-2.36 1.45-4.77 1.73-7.25.1-.86.02-.93-.86-1.03-3.33-.37-6.64-.32-9.92.4-2.52.56-4.87 1.52-6.71 3.38-2.98 3-3.41 6.74-2.91 10.72.48-.87.88-1.78 1.41-2.63.87-1.39 1.83-2.71 3.14-3.74.04.04.08.09.12.13-1.73 1.92-3.04 4.08-3.86 6.7 2.48-1.83 4.83-3.58 7.21-5.3 1.3-.94 2.53-1.99 3.92-2.83l-.01-.01c-.31.61-.91.9-1.39 1.31-1.99 1.67-3.98 3.33-5.97 4.99-1.01.84-2 1.68-3 2.52.5.08.95.02 1.4-.04 2.01-.3 3.91-.96 5.71-1.89zM122.82 48c.116.046.246.073.345.144 1.473 1.053 3.11 1.755 4.856 2.197 1.05.27 2.11.52 3.29.53-.11-.14-.14-.22-.21-.27-2.76-2.3-5.53-4.59-8.28-6.91-.65-.55-1.42-.98-1.91-1.72l-.01.01c.17.1.34.17.5.28 2.56 1.88 5.1 3.77 7.67 5.64.95.69 1.82 1.47 2.86 2.02l.06.09.03-.05-.09-.03c0-.08.03-.17.01-.24-.7-2-1.69-3.84-3.07-5.46-.54-.63-1.23-1.12-1.66-1.86l-.01.02c.13.07.28.12.39.21 1.33 1.19 2.61 2.43 3.59 3.95.66 1.01 1.16 2.11 1.76 3.3.17-1.48.21-2.81.08-4.15-.45-4.64-2.94-7.69-7.23-9.33-3.85-1.47-7.86-1.59-11.9-1.21-1.43.14-1.45.19-1.26 1.66.47 3.57 1.45 6.99 3.24 10.15 2.6 4.58 6.74 6.68 11.59 5.92 1.32-.2 2.62-.51 3.96-1.08-2.28-.38-4.38-1-6.29-2.11-.8-.46-1.7-.83-2.25-1.67l-.01.02zm38.4 10.79c-1.37-.215-2.736-.46-4.13-.395-1.445.067-2.88.224-4.41.7l13.787 5.095c-.01.03-.02.06-.032.086l-13.87-4.17c2.08 2.9 4.796 4.838 8.126 5.907-3.63-.722-6.52-2.692-8.97-5.393-.02.044-.04.064-.03.08.07.31.14.62.22.925.67 2.444 1.69 4.7 3.57 6.457 2.7 2.514 5.99 3.1 9.51 2.765 3.33-.315 6.45-1.373 9.47-2.76 1.42-.65 1.45-.67.73-2.026-1.75-3.3-3.85-6.34-6.79-8.72-2.35-1.9-4.97-3.03-8.07-2.81-1.94.14-3.69.84-5.33 1.83-.86.53-1.7 1.09-2.55 1.9 3.1-.56 6.01-.56 8.87.44l-.08.1zm-32.376 1.38c-.125.01-.257-.006-.375.03-3.65 1.104-7.29 2.214-10.93 3.32-.85.255-1.69.5-2.54.745l-.03-.09 13.68-5.053c-.27-.11-.39-.186-.52-.215-1.76-.38-3.52-.574-5.33-.464-1.55.097-3.01.51-4.48.96v.005c3.35-1.648 6.88-1.84 10.65-1.134-1.48-1.26-2.93-2.245-4.58-2.92-3.23-1.31-6.37-1.102-9.4.626-2.13 1.21-3.84 2.887-5.36 4.774-1.55 1.916-2.8 4.013-3.9 6.21-.16.32-.11.49.22.636.74.33 1.45.72 2.2 1.033 3.37 1.403 6.83 2.41 10.53 2.284 1.99-.067 3.89-.527 5.59-1.59 3.17-1.98 4.57-5.087 5.42-8.64-.15.094-.26.126-.32.197-.75.877-1.61 1.64-2.54 2.32-1.77 1.29-3.66 2.32-5.84 2.736l.01.006c.09-.05.17-.107.27-.14 2.24-.817 4.25-2.014 5.93-3.72.58-.59 1.27-1.107 1.59-1.92l.03-.03c-.01.01-.02.025-.03.04zm-5.474-33.6c.868.996 1.77 1.963 2.85 2.74.675.48 1.36.96 2.282 1.313l-5.188-9.7.137-.074 5.78 9.38c.26-2.64-.27-4.98-1.28-7.22h-.01c.26-.02.29.21.37.36.59 1.14 1 2.34 1.31 3.58.26 1.02.24 2.08.4 3.26 1.04-1.79 1.66-3.57 1.75-5.49.16-3.27-1.42-5.72-3.87-7.68-2.55-2.05-5.53-3.24-8.66-4.1-.44-.13-.49.1-.58.41-.86 3.09-1.22 6.23-.8 9.42.57 4.37 3.05 7.31 7.44 8.23.9.19 1.81.3 2.9.28-.47-.32-.79-.53-1.1-.75-1.5-1.08-2.83-2.32-3.77-3.93.03-.03.05-.06.08-.08zm33.827-4.39c.038.03.074.063.11.095-.637 1.226-1.27 2.456-1.916 3.68-.8 1.516-1.61 3.028-2.42 4.543 2.35-1.047 4.22-2.632 5.65-4.735-1.18 2.36-3.04 4.086-5.41 5.56 1.06.013 1.9-.09 2.73-.25 3.61-.696 6.14-2.7 7.21-6.27 1.16-3.89.62-7.76-.42-11.59-.08-.32-.25-.3-.52-.23-3.09.82-6.02 2.01-8.56 4.01-2.68 2.11-4.3 4.75-3.93 8.32.18 1.736.79 3.32 1.7 4.82.1-2.617.68-5.084 2.12-7.3-1.09 2.3-1.58 4.704-1.33 7.375l2-3.2c1.01-1.61 1.93-3.27 3.02-4.82zM109.63 32.86l.02.038-.028-.03c-.264-.42-.676-.69-1.028-1.017-1.04-.97-2.177-1.83-3.158-2.86l.135-.13 4.62 3.53c-.07-.27-.1-.41-.14-.55-.36-1.23-1.1-2.28-1.75-3.37l.06-.07c1.12 1.01 1.71 2.37 2.44 3.66.1-.52.16-1.02.17-1.53.07-2.94-1.1-5.4-3.87-6.79-2.52-1.26-5.22-1.46-7.96-1.34-1.58.07-1.33.02-1.17 1.4.02.13.02.26.04.38.37 2.42 1.01 4.74 2.37 6.82 2.18 3.33 5.91 3.89 9.32 2.52-1.88-.36-3.52-1.05-4.93-2.23.26.08.5.22.73.35 1.31.71 2.66 1.24 4.17 1.25zm75.556 30.88c-1.882-.405-3.756-.486-5.628.23l7.996 2.88c-.01.033-.02.068-.033.1-2.75-.8-5.5-1.602-8.25-2.405 1.13 1.59 2.59 2.698 4.3 3.497-1.91-.523-3.44-1.667-4.93-3.19.09.382.12.57.18.75.62 2.028 1.58 3.81 3.49 4.926 1.33.77 2.77.956 4.26.916 2.66-.07 5.08-.983 7.43-2.13.36-.176.28-.396.13-.675-1.12-2.16-2.47-4.13-4.33-5.73-2.62-2.27-5.41-2.67-8.33-1.21-.79.4-1.53.89-2.31 1.65 1.31-.32 2.43-.34 3.56-.26.86.06 1.72.2 2.49.64l.01-.01zm-7.8-36.12l-.01-.014c.08.253-.143.334-.275.45-1.19 1.06-2.39 2.11-3.59 3.17-.59.524-1.18 1.062-1.77 1.593 1.74-.08 3.28-.62 4.74-1.43-1.35 1.13-2.96 1.73-4.76 2.11.72.35 1.37.48 2.02.57 2.89.42 5.33-.35 7.08-2.8 1.8-2.51 2.46-5.4 2.73-8.41.04-.38-.16-.42-.45-.44-3.01-.25-5.97-.11-8.74 1.25-3.26 1.59-4.4 4.83-3.7 8.47.72-1.58 1.47-3.08 2.82-4.16-.97 1.29-1.8 2.65-2.28 4.38.26-.19.38-.28.5-.37 1.9-1.48 3.8-2.95 5.7-4.42zM151.26 6.614l-.01-.007c.065.727-.087 1.475.195 2.283l1.895-4.177.104.043-1.606 4.26c.897-.46 1.35-1.208 1.985-1.758l-.01-.008c-.294.923-1.102 1.44-1.703 2.145.523-.09 1.02-.2 1.49-.38 1.188-.46 2.085-1.24 2.523-2.47.785-2.207.14-4.28-.617-6.342-.096-.263-.266-.225-.46-.138-1.626.73-3.157 1.594-4.288 3.028-1.428 1.807-1.153 4.15.3 5.833.006-.806-.152-1.586.202-2.31zm-40.612 7.555c.603.83.717 1.81.847 2.83 1.117-1.76.914-4.04-.475-5.45-1.4-1.43-3.206-2.05-5.09-2.49-.37-.09-.427.14-.472.41-.284 1.67-.382 3.35.093 5 .61 2.1 2.52 3.41 4.96 3.12l-.95-.67.12-.13c.35.08.61.38 1.06.4-.85-1.39-1.68-2.73-2.5-4.07.55.58 1.03 1.2 1.46 1.86.43.67.89 1.31 1.45 2 .13-1.07-.34-1.93-.47-2.84l-.01.01zM91.16 55.3c.03.023.076.07.087.065.07-.045.04-.098-.003-.146-.9-1.53-2.162-2.56-4.01-2.48-2.31.1-4.045 1.41-5.64 2.94-.163.15-.14.28.01.43 1.56 1.52 3.236 2.85 5.517 3.08 1.56.15 3.6-1.09 4.12-2.53-1.25.51-2.49.92-3.95.72 1.42-.08 2.7-.3 3.89-1.18L86.2 56l.004-.173h4.867c-.68-.58-1.41-.933-2.2-1.153.85-.066 1.56.37 2.31.626zm79.305-40.37h.002c.02.69-.333 1.344-.207 2.16.654-.934 1.24-1.785 1.842-2.625.152-.21.222-.516.55-.553l-.012-.01c-.568 1.153-1.323 2.192-1.978 3.296.233.088.38-.12.57-.18.59-.187.93-.79 1.55-.93l-.013-.007c-.48.68-1.17 1.07-1.96 1.47.56.39 1.03.14 1.47.05 1.77-.34 3-1.31 3.54-3.09.51-1.69.41-3.4.09-5.11-.05-.29-.2-.4-.49-.33-1.97.48-3.84 1.15-5.26 2.69-1.21 1.32-1.35 3.8-.31 5.14.18-.66.08-1.39.58-1.95zm19.724 41.76c-.01-.017-.02-.037-.03-.05-.01-.005-.03.005-.04.008l.07.03c-.02.04-.05.093-.04.116.84 1.382 2.42 2.658 4.39 2.367 2.15-.32 3.77-1.57 5.25-3.07.28-.28 0-.41-.15-.56-1.26-1.17-2.65-2.12-4.32-2.63-2.09-.64-4.36.52-5.23 2.51 1.2-.59 2.39-1.03 3.66-.82-1.5.1-2.61.47-3.59 1.28h4.78c0 .06 0 .11-.01.15-1.54.07-3.09.13-4.79.2 1.18.81 2.36 1.1 3.71 1.16-.29.08-.48.09-.69.08-1.06-.03-2.04-.4-3.02-.76zM92.71 32.998c1.006.224 1.612 1.034 2.372 1.678-.107-2.115-1.823-3.913-3.87-4.122-1.813-.185-3.505.25-5.158.938-.374.155-.4.322-.236.666.54 1.118 1.15 2.188 1.993 3.106 1.11 1.212 2.41 2.025 4.15 1.842 1.03-.11 1.89-.582 2.84-1.267-.87-.03-1.57.08-2.26-.12.66-.1 1.34-.02 2.14-.28-1.66-.73-3.21-1.4-4.75-2.07l-.01.01c1.63.35 3.11 1.16 4.84 1.58-.54-.93-1.31-1.42-2.01-1.98l-.01.01" fill="#3871c1"/><path d="M125.935 54.284c1.038.12 2.015.463 2.976.842 3.98 1.568 7.19 4.105 9.55 7.68.47.71.91 1.44 1.29 2.205.2.41.45.8 1 .77.5-.02.73-.37.93-.76 2.66-5.18 6.77-8.66 12.34-10.4.48-.15.94-.39 1.61-.36-.85.47-1.6.85-2.32 1.28-1.95 1.16-3.78 2.47-5.26 4.22-1 1.18-1.75 2.52-2.38 3.92-.68 1.49-1.3 3-1.84 4.55-.29.86-.43 1.74-.46 2.63-.11 3.83.07 7.64.46 11.44.28 2.72.58 5.42 1.19 8.08.52 2.3 1.53 4.37 3.09 6.16l.04.05c.36.51.81 1.04.52 1.68-.29.65-.98.47-1.54.47-2.12.01-4.19 2.98-6.32 2.98-2.05 0-4.17-2.98-6.23-2.98-.17 0-.34.01-.51 0-.46-.02-.98.07-1.24-.44-.27-.53 0-1.02.32-1.41.79-.98 1.53-1.99 2.11-3.11.94-1.8 1.37-3.75 1.68-5.73.9-5.79 1.36-11.6 1.16-17.46-.04-1.23-.43-2.38-.87-3.51-.76-1.94-1.55-3.86-2.63-5.66-1.27-2.12-3.09-3.66-5.1-5.02-1.13-.76-2.31-1.42-3.52-2.08m34.53-12.33c-1.38.84-2.61 1.89-3.92 2.83-2.37 1.72-4.72 3.47-7.21 5.31.83-2.62 2.14-4.78 3.86-6.7.13-.11.34-.18.31-.42-.23-.02-.33.13-.43.29-1.3 1.03-2.26 2.35-3.14 3.74-.53.84-.93 1.76-1.41 2.63-.49-3.97-.06-7.71 2.92-10.71 1.84-1.85 4.19-2.81 6.7-3.37 3.28-.72 6.59-.77 9.92-.4.87.1.95.17.85 1.03-.29 2.49-.9 4.9-1.74 7.25-.75 2.11-1.77 4.06-3.23 5.76-2.51 2.93-5.68 4.14-9.51 3.69-1.47-.17-2.87-.54-4.4-1.11 2.71-.54 5.19-1.22 7.32-2.81.52-.23.94-.57 1.32-.99.09 0 .12-.05.13-.13.08 0 .12-.05.13-.13.02-.02.13 0 .03-.08l-.03.09c-.1-.01-.14.03-.13.13-.09-.01-.14.03-.12.13-.58.13-1 .52-1.46.85-1.81.93-3.7 1.59-5.72 1.89-.45.07-.9.12-1.4.05 1-.84 2-1.69 3-2.52 1.99-1.67 3.99-3.32 5.97-4.99.48-.41 1.09-.7 1.39-1.31.13.05.21.01.26-.12.02-.02.14 0 .04-.09l-.03.1c-.13-.04-.21 0-.26.13m-28.56 7.94c-1.04-.54-1.92-1.33-2.86-2.01-2.56-1.87-5.11-3.76-7.67-5.64-.15-.11-.33-.18-.5-.28-.07-.25-.28-.29-.49-.32.18.08.24.36.5.31.48.74 1.26 1.17 1.91 1.72 2.75 2.32 5.52 4.61 8.29 6.91.06.06.1.13.21.27-1.18-.01-2.24-.26-3.29-.53-1.75-.44-3.39-1.14-4.86-2.19-.1-.07-.23-.1-.35-.15-.13-.19-.28-.35-.52-.38l-.06-.07c0 .01 0 .03.01.04.02.01.04.01.06.02.13.19.22.43.52.38.54.83 1.44 1.2 2.25 1.67 1.91 1.11 4 1.73 6.29 2.11-1.35.57-2.64.88-3.97 1.08-4.85.76-8.99-1.34-11.58-5.92-1.79-3.15-2.77-6.57-3.24-10.14-.19-1.46-.16-1.52 1.26-1.65 4.04-.38 8.05-.26 11.9 1.21 4.29 1.64 6.78 4.69 7.23 9.33.13 1.34.1 2.67-.07 4.15-.6-1.2-1.1-2.29-1.75-3.3-.98-1.51-2.26-2.75-3.59-3.94-.11-.1-.26-.14-.39-.21-.04-.13-.14-.16-.26-.13-.07-.26-.29-.33-.54-.34l.54.33c.05.13.12.19.26.12.43.73 1.13 1.22 1.67 1.86 1.38 1.63 2.37 3.46 3.08 5.46.03.07 0 .16-.01.24h.01m8.29-2.84c-2.17-3.06-3.21-6.43-2.95-10.08-.65 3.73.35 7.22 2.07 10.59-.97-.44-1.78-1.07-2.56-1.74-1.48-1.28-2.7-2.77-3.42-4.62-.84-2.15-.84-4.33-.32-6.53.62-2.61 1.9-4.91 3.43-7.09 1.14-1.63 2.45-3.12 3.85-4.52.23-.22.4-.42.73-.09 3.19 3.19 5.9 6.69 7.21 11.08.86 2.88.78 5.74-.74 8.43-1.27 2.24-3.18 3.86-5.55 5.3 1.72-3.21 2.66-6.42 2.33-9.91-.06 3.37-1.06 6.44-3.07 9.2l-.42-13.97h-.14l-.43 13.96" fill="#3871c1"/><path d="M161.298 58.673c-2.853-.998-5.762-.998-8.863-.433.854-.804 1.69-1.37 2.555-1.894 1.643-.996 3.39-1.692 5.33-1.83 3.096-.22 5.72.912 8.07 2.81 2.94 2.374 5.04 5.413 6.79 8.717.716 1.358.688 1.375-.73 2.026-3.02 1.38-6.14 2.44-9.466 2.75-3.525.33-6.815-.25-9.51-2.77-1.886-1.76-2.91-4.02-3.575-6.46-.09-.31-.15-.62-.22-.93-.01-.02.01-.04.03-.08 2.45 2.7 5.34 4.67 8.97 5.39-3.33-1.07-6.05-3.01-8.13-5.91l13.87 4.17.03-.09-13.79-5.09c1.53-.48 2.96-.64 4.4-.7 1.39-.07 2.76.18 4.13.39.23.08.44.27.75.16-.22-.19-.46-.2-.68-.27m-32.47 1.47c-.32.81-1.01 1.33-1.59 1.92-1.68 1.7-3.69 2.9-5.93 3.72-.1.03-.18.09-.27.14l-.42.02-.01.03c.15.04.28 0 .41-.06 2.18-.42 4.07-1.44 5.83-2.74.93-.68 1.79-1.44 2.55-2.32.06-.07.16-.1.32-.2-.86 3.56-2.26 6.67-5.43 8.64-1.7 1.06-3.61 1.52-5.6 1.59-3.7.12-7.17-.89-10.53-2.29-.75-.31-1.46-.71-2.2-1.03-.33-.15-.39-.32-.23-.64 1.1-2.2 2.36-4.3 3.9-6.22 1.52-1.89 3.23-3.56 5.36-4.77 3.04-1.73 6.17-1.94 9.4-.63 1.66.67 3.11 1.66 4.58 2.92-3.77-.7-7.3-.51-10.65 1.13l-.08.04c0-.01 0-.03.01-.04h.06c1.46-.45 2.92-.87 4.47-.96 1.81-.11 3.57.09 5.33.47.13.03.25.1.52.21l-13.69 5.05.03.09c.84-.25 1.69-.49 2.53-.75 3.64-1.11 7.29-2.22 10.93-3.32.12-.04.25-.03.38-.03l-.01-.01m-18.67-9.72c-2.3 1.14-4.7 1.57-7.22 1.3 2.59.63 5.11.27 7.74-.6-2.08 2.38-4.39 4.05-7.49 4.21-1.99.1-3.83-.53-5.52-1.56-2.82-1.72-5.01-4.08-6.9-6.76-.28-.39-.25-.6.13-.86 2.77-1.89 5.7-3.43 9.05-4 3.04-.52 5.83-.01 8.12 2.22 1.31 1.28 2.17 2.85 2.8 4.58-2.04-1.53-4.24-2.68-6.79-3.01 2.38.67 4.47 1.83 6.4 3.7-1.95-.28-3.72-.53-5.48-.79-1.77-.26-3.54-.52-5.33-.65 1.74.38 3.49.78 5.23 1.15 1.74.37 3.49.71 5.24 1.07m13.08-29.8l-.08.05c.02.01.03.04.05.04.03 0 .06-.02.09-.03l-.06-.07zm4.72 2.41c1.01 2.24 1.54 4.58 1.28 7.22-1.98-3.22-3.88-6.3-5.77-9.39-.05.02-.09.05-.14.07l5.19 9.69c-.92-.35-1.61-.83-2.28-1.32-1.08-.78-1.98-1.74-2.85-2.74-.15-.44-.47-.77-.75-1.12.15.44.36.85.67 1.2.95 1.61 2.28 2.85 3.78 3.93.31.22.63.43 1.1.74-1.08.02-2-.09-2.89-.28-4.38-.92-6.86-3.86-7.43-8.23-.42-3.2-.05-6.33.81-9.43.09-.32.14-.54.59-.42 3.13.86 6.11 2.05 8.67 4.1 2.45 1.96 4.03 4.41 3.88 7.67-.09 1.92-.71 3.7-1.75 5.49-.16-1.18-.14-2.24-.4-3.27-.31-1.24-.72-2.44-1.31-3.58-.08-.16-.1-.38-.37-.37.05-.13.04-.23-.12-.26l-.03-.17-.05.03.09.12c-.01.11.02.2.12.26m30.84 2.48l.01-.06c-.02.01-.05.03-.07.05 0 0 .02.03.02.05l.04-.05zm-.28-5.3l-.02-.15c-.04.04-.09.08-.12.14-.01.02.01.07.01.1l.13-.1zm-1.31 1.99c-1.09 1.55-2.01 3.21-3.01 4.82l-2 3.2c-.25-2.67.23-5.07 1.33-7.37-1.44 2.21-2.02 4.68-2.12 7.3-.91-1.5-1.51-3.09-1.69-4.83-.37-3.57 1.24-6.21 3.93-8.32 2.54-1.99 5.46-3.19 8.56-4 .27-.08.44-.09.52.23 1.04 3.83 1.58 7.7.42 11.59-1.07 3.57-3.6 5.57-7.21 6.27-.83.16-1.67.26-2.73.25 2.37-1.48 4.22-3.2 5.41-5.56-1.44 2.1-3.3 3.69-5.65 4.73.81-1.52 1.62-3.03 2.42-4.54.65-1.23 1.28-2.46 1.92-3.68.05-.08.09-.16.14-.25l.27-.5c.24-.3.38-.64.59-1.14-.39.39-.52.74-.68 1.07-.19.1-.26.28-.31.46l-.14.25m13.6 28.98c1.47.51 2.83.81 4.23.9 1.39.09 2.76-.04 4.11-.44-2.75.39-5.41.11-8.077-1.12l11.56-2.4-.02-.09-11.48 1.68c1.98-2.12 4.4-3.34 7.22-3.81-2.17-.04-4.23.8-7.85 3.2.147-.78.527-1.39.86-2 1.27-2.31 3.03-4.07 5.65-4.76 2.13-.55 4.24-.3 6.31.32 2.56.76 4.88 2 7.08 3.5.43.29.55.52.21.99-2.17 2.97-4.6 5.66-7.99 7.29-3.61 1.72-6.92 1.13-9.96-1.34-.64-.52-1.26-1.07-1.85-1.89M137.86 12c-.2 1.753-.04 2.52 1.207 5.883-.91-.51-1.62-1.12-2.25-1.817-1.95-2.17-2.34-4.654-1.37-7.374.94-2.64 2.67-4.73 4.65-6.64.2-.19.34-.3.57-.05 2.1 2.23 3.87 4.674 4.53 7.726.67 3.09-.51 5.507-2.97 7.36-.4.31-.81.62-1.41.87.84-1.61 1.54-3.163 1.56-4.92-.41 1.604-.98 3.133-2.1 4.45V9.17c-.03-.004-.07-.004-.11-.004-.17 2.783-.34 5.563-.52 8.46-.65-.9-.99-1.797-1.3-2.697-.3-.88-.4-1.8-.47-2.91m-34.96 14.71l-.02-.01.01.04.01-.04zm5.38 1.71c.65 1.09 1.38 2.13 1.75 3.37.04.13.07.27.14.55l-4.61-3.53c-.68-.65-1.42-1.23-2.21-1.75l-.16-.17-.03.07.2.09c.59.74 1.32 1.33 2.077 1.89.98 1.03 2.12 1.89 3.16 2.86.355.33.767.6 1.03 1.02l.01-.01c-1.51-.01-2.87-.55-4.17-1.25-.24-.13-.47-.27-.73-.35 1.4 1.18 3.04 1.86 4.93 2.23-3.42 1.37-7.14.81-9.32-2.52-1.36-2.08-2-4.4-2.37-6.82-.02-.13-.02-.26-.035-.39-.16-1.38-.41-1.33 1.17-1.4 2.74-.11 5.44.08 7.96 1.34 2.78 1.39 3.94 3.85 3.88 6.8-.01.5-.07 1.01-.17 1.53-.73-1.29-1.32-2.66-2.44-3.66-.03-.13-.11-.23-.25-.27l-.13-.12c-.04-.13-.15-.2-.26-.25l-.13-.1-.03.08h.16c-.07.19.06.24.19.31l.12.14c.04.13.13.22.26.26M97.42 68.2l.093-.04c-.036-.01-.07-.027-.105-.03-.017-.006-.035.01-.053.015l.062.055zm4.88-3.7c-1.22 1.66-2.747 2.73-4.48 3.543 1.915-.52 3.443-1.66 4.85-3.097-.565 3.425-2.87 6.223-6.51 6.48-2.78.194-5.366-.516-7.84-1.703-1.253-.603-1.27-.65-.59-1.87 1.244-2.234 2.743-4.265 4.92-5.694 2.72-1.79 5.48-1.76 8.19.07.475.32.963.62 1.39 1.1-2.172-.42-4.263-.37-6.29.47 1.984-.54 3.96-.52 5.96.15l-8.736 3.14.023.06 9.11-2.67m85.723 2.57c-.05-.06-.09-.16-.175-.04l.183.03c.05.02.098.05.15.08.008 0 .027-.02.04-.02l-.2-.06zm-2.835-3.32c-.775-.44-1.63-.58-2.49-.64-1.127-.08-2.255-.07-3.557.25.776-.76 1.517-1.26 2.313-1.66 2.93-1.47 5.72-1.06 8.34 1.2 1.86 1.59 3.21 3.57 4.33 5.72.15.28.23.5-.13.67-2.35 1.14-4.77 2.06-7.43 2.13-1.49.04-2.93-.15-4.25-.92-1.91-1.12-2.87-2.9-3.48-4.93-.05-.18-.08-.36-.17-.75 1.48 1.53 3.02 2.67 4.93 3.19-1.71-.8-3.17-1.91-4.3-3.5l8.25 2.4.03-.1-7.99-2.88c1.87-.72 3.75-.64 5.63-.23.08.03.16.05.23.08.01-.02.01-.04.01-.05-.08-.01-.17-.02-.25-.02m-7.67-33.19c-.15.1-.35.16-.37.39-.22.01-.4.07-.54.45l.54-.46.39-.39.02-.01-.01.01zm-3.57-2.94c-.2-.04-.27.07-.37.23.24.01.28-.14.36-.25.02-.03.14-.02.03-.09l-.01.1zm3.45-.01c-1.9 1.47-3.8 2.94-5.7 4.42-.12.09-.24.17-.5.36.47-1.73 1.31-3.09 2.28-4.39-1.36 1.08-2.11 2.58-2.82 4.16-.7-3.64.45-6.89 3.71-8.48 2.78-1.36 5.74-1.51 8.75-1.26.29.02.48.07.45.44-.27 3.01-.93 5.89-2.73 8.4-1.75 2.45-4.19 3.22-7.08 2.8-.65-.1-1.3-.22-2.02-.58 1.8-.39 3.41-.98 4.76-2.12-1.46.81-3 1.35-4.74 1.43.59-.54 1.18-1.07 1.77-1.6 1.2-1.06 2.4-2.11 3.59-3.17.13-.12.36-.2.28-.45.08.04.16.02.21-.05.01-.01-.01-.05-.02-.06-.09-.02-.15.02-.18.11M127.42 7c-.02-.148.01-.32-.19-.38-.005.17.11.26.204.37.09.234.15.484.38.634.08.363.35.576.61.797.04.04.11.11.13.1.11-.07.02-.13-.03-.19-.23-.24-.34-.61-.73-.7.01-.29-.16-.48-.39-.63zm3 1.932c-.09-.84.086-1.574-.26-2.4-.1.835.084 1.554-.205 2.335l-1.04-2.3c-.33-.725-.66-1.453-1.07-2.145l1.7 4.517c-.26.1-.36-.29-.6-.13-.04.26.26.3.34.5-1.46.1-3.35-1.16-3.93-2.59-.56-1.41-.49-2.84-.15-4.27.18-.75.35-1.5.69-2.19.09-.18.14-.36.42-.23 1.71.75 3.32 1.65 4.45 3.21 1.08 1.48 1.07 3.04.31 4.65-.12.25-.27.48-.41.72-.04.07-.09.13-.22.31m59.11 26.68c-.162-.08-.28-.1-.38.02.12.06.23.04.38-.03zm-.36-1.45c.65-.03 1.23-.28 1.78-.62-.53.13-1.05.31-1.57.49-.07.03-.14.08-.21.12zm-2.48 1.65c.76-.02 1.47.1 2.17-.12-.67-.06-1.34-.09-2.1-.23.756-.54 1.63-.65 2.287-1.19-.83.04-1.54.59-2.48.6.616-.66 1.16-1.23 1.77-1.73-.835.27-1.37.94-1.98 1.53-.1-.38-.06-.37.048-.75.9-3.21 3.615-3.86 6.465-3.26.85.18 1.69.43 2.496.78.28.12.43.25.27.58-.84 1.72-1.78 3.35-3.46 4.4-1.71 1.06-3.87.82-5.46-.64M151.28 6.6c-.35.728-.195 1.508-.2 2.31-1.454-1.68-1.73-4.022-.3-5.83 1.13-1.43 2.66-2.294 4.29-3.026.19-.086.36-.124.46.14.755 2.06 1.4 4.137.613 6.344-.44 1.23-1.33 2.01-2.52 2.47-.47.18-.97.29-1.49.38.6-.702 1.41-1.22 1.7-2.143.16-.08.22-.23.27-.38l.01-.02-.013.02c-.22.032-.26.19-.25.38-.63.55-1.085 1.298-1.983 1.76l1.608-4.26-.11-.04-1.9 4.18c-.28-.807-.13-1.555-.2-2.28.177-.17.15-.355.01-.54v.545m-40.8 7.205l-.02.037.03.005-.01-.04zm-.91 3.116l.95.67c-2.432.29-4.343-1.02-4.95-3.12-.47-1.65-.372-3.33-.09-5 .047-.27.1-.5.47-.42 1.888.45 3.69 1.06 5.09 2.49 1.39 1.41 1.59 3.69.48 5.45-.13-1.02-.246-2-.85-2.83-.017-.03-.03-.06-.04-.1-.02.02-.03.04-.04.06l.09.03c.13.92.6 1.77.47 2.84-.566-.68-1.02-1.33-1.45-2-.425-.65-.91-1.27-1.456-1.86l2.51 4.07c-.45-.01-.71-.31-1.06-.39-.1-.12-.21-.23-.37-.27-.09-.05-.18-.08-.27-.01l.18.11c.07.16.21.23.34.3m-18.4 38.37c-.76-.25-1.46-.69-2.31-.62.79.22 1.52.57 2.2 1.15H86.2l-.003.18 4.983.21c-1.192.89-2.466 1.1-3.887 1.18 1.454.2 2.695-.21 3.95-.72-.52 1.44-2.564 2.68-4.117 2.53-2.28-.23-3.95-1.55-5.51-3.07-.15-.15-.173-.28-.01-.43 1.595-1.53 3.33-2.84 5.64-2.95 1.848-.08 3.108.95 4.01 2.48-.03.03-.06.05-.085.08m81.62-39.21c-.62.14-.96.74-1.55.93-.19.06-.33.27-.57.18.66-1.1 1.41-2.14 1.98-3.29.11-.03.16-.12.16-.23 0-.01-.07-.04-.08-.03-.08.08-.11.17-.06.28-.32.04-.39.35-.55.56-.6.84-1.18 1.69-1.84 2.63-.12-.81.23-1.47.21-2.16.22-.45.44-.89.66-1.34-.27.43-.7.78-.66 1.34-.5.56-.4 1.29-.58 1.96-1.05-1.34-.9-3.82.3-5.13 1.42-1.54 3.29-2.22 5.25-2.69.29-.06.43.04.49.34.32 1.72.43 3.42-.09 5.12-.54 1.77-1.77 2.75-3.55 3.09-.45.09-.92.34-1.48-.05.79-.4 1.49-.79 1.96-1.46.12-.05.2-.12.12-.26.28-.04.36-.25.4-.49l-.38.5c-.12.05-.18.13-.12.26m17.4 40.58c.98.36 1.95.73 3.02.76.21.01.41 0 .7-.08-1.35-.06-2.53-.35-3.71-1.15l4.79-.2v-.15h-4.78c.98-.81 2.09-1.18 3.59-1.28-1.26-.21-2.46.23-3.66.82.87-1.99 3.14-3.15 5.23-2.51 1.67.51 3.07 1.46 4.32 2.64.16.15.43.28.15.56-1.47 1.49-3.1 2.75-5.25 3.07-1.97.29-3.55-.98-4.39-2.37-.01-.02.03-.07.04-.11l-.01.01M91.9 35.62c.125.06.244.13.375 0-.135-.08-.25-.07-.38 0zm-1.98-2.24l4.757 2.07c-.79.26-1.47.18-2.13.28.69.2 1.39.097 2.266.12-.943.685-1.8 1.16-2.833 1.27-1.74.18-3.035-.63-4.147-1.845-.843-.92-1.452-1.99-1.993-3.106-.16-.34-.13-.51.24-.66 1.65-.69 3.346-1.12 5.158-.94 2.047.21 3.763 2.01 3.87 4.12-.76-.65-1.367-1.46-2.373-1.68-.062-.18-.18-.24-.41-.19l.42.18c.7.56 1.475 1.05 2.01 1.98-1.73-.42-3.21-1.23-4.832-1.58-.036-.02-.07-.03-.107-.05l.116.03m47.204 22.35c.013-2 1.663-3.64 3.618-3.61 1.97.04 3.625 1.73 3.587 3.67-.03 1.94-1.68 3.56-3.61 3.57-1.98 0-3.61-1.64-3.59-3.63" fill="#3871c1"/><path d="M109.622 32.868l.03.03-.023-.038-.01.008m22.29 17.037l.09.03-.03.05-.06-.085-.01.005m-40.67 5.32c.04.047.07.1 0 .145-.01.006-.06-.043-.09-.065.02-.03.05-.055.08-.08m98.95 1.46l-.08-.03c.01-.005.03-.015.04-.01.01.013.01.033.02.05v-.01m-61.36 3.47l.03-.04-.04.03.01.01m28.39-11.32c.46-.33.88-.72 1.46-.85l-.01-.01c-.38.418-.8.764-1.32.99l-.13-.13m-4.15-5.565c.09-.162.19-.314.43-.292.02.246-.18.308-.31.423-.05-.04-.09-.08-.13-.13m7.64-1.44c-.04.13-.13.18-.26.12v.02c.05-.13.13-.16.26-.12l-.01-.01m.01.01l.03-.09c.1.09-.02.06-.05.09l.01.01m-1.8 5.89l.03-.09c.09.08-.02.06-.04.08l.01.01" fill="#3871c1"/><path d="M158.935 47.72c-.005.08-.048.124-.13.13l.01.008c-.01-.098.03-.142.13-.128l-.01-.01" fill="#3871c1"/><path d="M158.806 47.85c0 .08-.04.13-.127.126v.01c-.02-.106.03-.142.12-.13l-.01-.007m-31.89-5.64l-.55-.33c.25.01.46.08.53.34l.01-.01m-6.02-.26c-.26.05-.32-.24-.5-.32.21.03.42.07.49.32l.01-.01m1.4 5.65c.24.03.39.19.51.38l.01-.02c-.3.05-.39-.19-.52-.38l-.01.01" fill="#3871c1"/><path d="M126.91 42.225c.12-.03.216-.006.26.124l.01-.02c-.14.07-.215.01-.26-.12l-.01.01m-4.6 5.37c-.018-.01-.04-.01-.057-.03-.008-.01-.006-.03-.008-.04l.057.07.01-.01m38.986 11.08c.218.06.458.08.67.26-.305.1-.52-.08-.752-.17l.08-.1m-40.262 7.25c-.132.06-.266.1-.413.05.01-.01.01-.03.01-.03l.42-.02-.01-.01m-2.69-6.54h-.06s-.01.02-.01.04l.08-.04v-.01m4.95-32.74c-.31-.35-.52-.75-.67-1.2.28.36.6.68.75 1.12l-.08.08m4.54-3.9l-.09-.12.05-.03c.01.05.03.11.04.16l.01-.01m-.01.01c.16.03.17.13.12.26l.02-.01c-.1-.06-.13-.16-.12-.27l-.01.01m-4.59-2.15l.06.06c-.03.01-.06.02-.09.02-.01 0-.03-.02-.04-.04l.08-.06m34.43.85c.16-.33.29-.68.67-1.07-.2.5-.35.84-.59 1.13l-.08-.07m-.32.47c.06-.19.13-.37.32-.47l.09.06-.27.5-.12-.1m1.17-1.74c-.03.03-.08.06-.12.1 0-.04-.02-.08-.01-.11.03-.05.08-.09.12-.14l.02.15m.28 5.31l-.04.04c-.01-.02-.03-.05-.02-.05.02-.02.05-.04.07-.05l-.01.05m-1.6-3.31l.14-.25c.04.03.08.07.12.1l-.15.24-.11-.1M105.5 28.9c-.757-.56-1.485-1.15-2.077-1.89l-.01.01c.79.52 1.535 1.096 2.22 1.748l-.135.14m2.27-1.24c.12.05.22.112.26.25l-.06.05c-.14-.06-.27-.12-.2-.31l-.01.01m.59.71c-.13-.047-.22-.137-.26-.27.025-.03.05-.05.073-.08.14.036.21.13.25.265-.02.026-.04.05-.06.08m-4.93-1.36l-.2-.09.03-.07.16.17v-.01m4.31.72l-.16-.003.03-.085.13.1.01-.012m-4.79-.995l-.01.04-.01-.045.03.005m5.11 1.452c-.04-.05-.09-.1-.13-.148.02-.015.04-.032.06-.05l.13.12-.08.077m-10.62 40l-.06-.06c.01-.01.03-.02.05-.02.03 0 .07.02.1.03-.03.01-.07.03-.1.04m90.6-1.13l.2.05c-.01 0-.03.02-.04.02l-.15-.09-.01.01m-2.83-3.32c.08 0 .16.01.25.02l-.01.05-.23-.08v.01" fill="#3871c1"/><path d="M188.024 67.057l-.185-.03c.08-.12.12-.02.17.04l.01-.01m-10.9-36.107l-.54.46c.14-.38.32-.44.54-.452l-.01-.01m.01.01c.02-.234.22-.293.37-.394l.01-.003-.39.39.01.01m-3.21-3.34c-.08.11-.12.26-.36.25.09-.16.17-.28.37-.23l-.01-.01m3.46.01c.03-.09.09-.13.18-.11.01 0 .03.05.02.06-.06.07-.13.09-.21.04l.01.02m-3.45-.01l.01-.1c.11.07-.01.07-.03.09l.01.01m3.57 2.94l.01-.01-.02.02-.01.01M128.43 8.43c-.262-.22-.535-.434-.613-.797l-.005.003c.388.084.49.458.723.702l-.105.092m-.613-.798c-.23-.15-.296-.4-.388-.635l-.01.008c.23.145.4.335.39.63v-.003" fill="#3871c1"/><path d="M127.427 6.998c-.09-.11-.208-.204-.203-.372.2.062.172.234.195.38v-.008m1.1 1.34c.05.057.14.116.02.187-.02.01-.09-.06-.14-.095l.1-.092m60.63 25.838c.07-.04.13-.097.2-.123.51-.184 1.03-.362 1.57-.493-.55.338-1.13.588-1.78.616m.36 1.45c-.15.064-.27.082-.38.02.1-.117.21-.1.38-.02m-35.7-28.37c-.02-.19.02-.347.25-.38V6.87c-.05.15-.11.3-.27.38m-2.56-.64v-.54c.14.18.17.36-.01.53h.01m2.82.26l.01-.03-.01.02-.01.01M109.5 16.92c-.14-.08-.275-.15-.34-.3.03-.03.06-.07.09-.1.16.04.276.15.374.27-.04.04-.074.08-.113.12m-.34-.3l-.18-.11c.1-.08.18-.05.27.01l-.09.1m1.25-2.82l.01.04-.03-.006.02-.035m.2.34l-.09-.03c.01-.02.03-.04.04-.06l.04.09.01-.01m59.81.77c-.04-.57.39-.92.66-1.34l-.66 1.34m2.44.9l.38-.5c-.04.24-.12.45-.39.49l.01.01m-.25-1.92c-.05-.11-.02-.2.06-.28.01-.01.09.02.09.03 0 .11-.04.2-.15.23l.01.01m.13 2.17c-.06-.14-.01-.22.12-.26l-.01-.01c.07.14 0 .21-.12.26l.01.01M92.7 32.96l-.418-.177c.225-.057.344.01.41.184l.006-.01m-.83 2.62c.128-.08.246-.08.38 0-.13.12-.25.06-.378 0m-1.98-2.24l-.12-.04.108.04.01-.01" fill="#3871c1"/><path d="M114.67 107.755c-10.86-2.9-17.177-10.615-21.373-20.503-1.76-4.156-3.124-8.48-4.786-12.68-.74-1.872-2.13-3.108-4.26-2.398-1.82.61-1.94 2.334-1.67 3.9 3.73 21.513 14.9 37.236 34.55 46.316 1.02.473 2.36 1.178 2.94-.122 3.41-7.613 9.96-11.62 16.8-15.3-.95-1.57-2.46-1.704-3.68-2.23-10.16-4.395-21.06-7.426-28.72-16.43-.69-.81-1.58-1.157-2.58-.436-.82.593-1.47 1.25-1.33 2.437.27 2.32 1.18 4.3 2.55 6.18 3.26 4.45 7.56 7.74 11.58 11.26zm50.85-.878c4.145-4.462 9.115-7.906 11.68-13.68.794-1.797 1.18-3.316-.42-4.517-1.504-1.13-2.897-.174-3.972 1.04-4.42 5-10.197 7.807-16.084 10.383-4.973 2.176-10.076 4.04-15.04 6.224-7.78 3.43-15.188 7.37-19.556 15.42-.923 1.71-1.042 2.303 1.014 2.887 4.572 1.295 9.184 2.356 13.913 2.432 29.343.463 53.42-19.867 58.68-49.42.385-2.162.923-4.532-1.732-5.373-2.693-.853-3.694 1.318-4.3 3.476-2.122 7.54-5.175 14.73-9.555 21.1-3.488 5.07-8.412 8.75-14.627 10.02" fill="#f9a72b"/><path d="M165.52 106.877c6.216-1.277 11.14-4.95 14.627-10.028 4.38-6.37 7.434-13.56 9.557-21.1.605-2.16 1.606-4.33 4.3-3.48 2.654.84 2.116 3.21 1.73 5.37-5.26 29.55-29.336 49.88-58.68 49.42-4.728-.08-9.34-1.14-13.912-2.43-2.056-.59-1.937-1.18-1.014-2.89 4.368-8.05 11.776-11.99 19.555-15.42 4.965-2.19 10.068-4.05 15.04-6.23 5.888-2.58 11.666-5.38 16.084-10.39 1.076-1.22 2.47-2.17 3.973-1.04 1.6 1.2 1.214 2.72.42 4.51-2.565 5.77-7.535 9.22-11.68 13.68" fill="#f9a72b" fill-rule="evenodd"/><path d="M114.67 107.755c-4.02-3.523-8.316-6.81-11.577-11.263-1.373-1.882-2.275-3.858-2.546-6.183-.135-1.19.514-1.85 1.335-2.44.995-.72 1.89-.38 2.58.43 7.658 9 18.55 12.03 28.718 16.43 1.22.52 2.736.66 3.688 2.23-6.842 3.68-13.385 7.68-16.797 15.3-.58 1.3-1.91.59-2.93.12-19.65-9.08-30.82-24.8-34.56-46.32-.27-1.57-.15-3.29 1.67-3.9 2.13-.71 3.53.52 4.27 2.4 1.67 4.2 3.03 8.52 4.79 12.68 4.2 9.89 10.52 17.6 21.38 20.5" fill="#f9a72b" fill-rule="evenodd"/><path d="M11.084 183.22v8.385h-3.26v-21.573h3.26v8.91c.467-.952 1.17-1.698 2.11-2.242.942-.543 1.955-.816 3.043-.816 1.747 0 3.16.534 4.236 1.602 1.077 1.066 1.615 2.61 1.615 4.628v9.49h-3.26v-8.5c0-2.853-1.183-4.278-3.552-4.278-1.125 0-2.106.37-2.94 1.12-.836.746-1.252 1.84-1.252 3.275m40.713 4.3c.922.95 2.09 1.41 3.51 1.41 1.416 0 2.585-.47 3.506-1.41.922-.94 1.383-2.16 1.383-3.65s-.46-2.71-1.383-3.65c-.92-.94-2.09-1.41-3.507-1.41-1.418 0-2.587.47-3.51 1.41-.92.94-1.382 2.16-1.382 3.65 0 1.5.462 2.72 1.383 3.66zm9.332 2.01c-1.56 1.54-3.5 2.32-5.83 2.32s-4.27-.77-5.83-2.31c-1.56-1.54-2.33-3.43-2.33-5.66s.77-4.12 2.32-5.66c1.55-1.54 3.49-2.31 5.82-2.31s4.27.78 5.82 2.32c1.55 1.54 2.32 3.43 2.32 5.66 0 2.24-.78 4.12-2.33 5.67m30.83-6.3v8.39h-3.26v-15.49h3.26v2.83c.46-.95 1.16-1.69 2.11-2.24.94-.54 1.95-.81 3.04-.81 2.44 0 4.1 1.01 4.98 3.03 1.53-2.01 3.44-3.02 5.73-3.02 1.75 0 3.16.54 4.23 1.61 1.08 1.07 1.61 2.61 1.61 4.63v9.49h-3.26v-8.5c0-2.85-1.19-4.28-3.56-4.28-1.11 0-2.07.35-2.9 1.06-.83.71-1.26 1.74-1.3 3.1v8.62h-3.2v-8.5c0-1.48-.26-2.56-.79-3.25-.52-.69-1.35-1.03-2.47-1.03s-2.11.37-2.94 1.12c-.84.74-1.25 1.84-1.25 3.27m50.07-.49h8.88c0-1.3-.41-2.3-1.23-3-.82-.7-1.82-1.05-3.01-1.05-1.2 0-2.27.36-3.22 1.09-.95.73-1.43 1.72-1.43 2.96zm12.14 2.56h-12.14c.08 1.12.59 2.03 1.54 2.72.95.69 2.04 1.04 3.26 1.04 1.94 0 3.41-.61 4.42-1.83l1.86 2.04c-1.67 1.73-3.84 2.59-6.52 2.59-2.18 0-4.03-.72-5.55-2.17-1.52-1.45-2.28-3.39-2.28-5.82s.77-4.37 2.33-5.81c1.55-1.43 3.38-2.15 5.49-2.15 2.1 0 3.89.64 5.37 1.91 1.47 1.27 2.21 3.02 2.21 5.26v2.24m61.51 6.55c-2.15 0-4.01-.73-5.56-2.2-1.56-1.46-2.33-3.38-2.33-5.74s.81-4.29 2.43-5.78c1.62-1.49 3.6-2.23 5.93-2.23s4.3.8 5.91 2.42l-1.92 2.36c-1.34-1.16-2.69-1.74-4.05-1.74-1.36 0-2.54.45-3.54 1.35-1 .9-1.5 2.07-1.5 3.49 0 1.43.5 2.63 1.49 3.63.99.99 2.21 1.49 3.66 1.49 1.44 0 2.81-.66 4.09-1.98l1.92 2.1c-1.88 1.91-4.06 2.86-6.52 2.86m40.61-6v-1.31h-3.67c-2.35 0-3.52.74-3.52 2.22 0 .76.29 1.34.87 1.73.58.4 1.39.6 2.43.6 1.04 0 1.95-.29 2.72-.87.78-.59 1.17-1.37 1.17-2.36zm3.26 5.77h-2.97v-2.07c-1.28 1.53-3 2.3-5.15 2.3-1.61 0-2.94-.45-4-1.37-1.06-.91-1.59-2.13-1.59-3.65s.57-2.66 1.69-3.42c1.13-.75 2.65-1.13 4.57-1.13h4.22v-.58c0-2.05-1.14-3.08-3.43-3.08-1.43 0-2.93.53-4.48 1.58l-1.45-2.04c1.88-1.49 4.02-2.24 6.41-2.24 1.82 0 3.31.46 4.47 1.38 1.15.92 1.73 2.38 1.73 4.35v9.99m34.21-12.43c-1.61 0-2.82.53-3.64 1.57-.81 1.05-1.22 2.46-1.22 4.23v6.64h-3.26v-15.5h3.26v3.12c.53-.97 1.24-1.77 2.14-2.39.91-.62 1.86-.94 2.87-.96l.03 3.29h-.17m27.25 3.55h8.88c0-1.3-.41-2.3-1.23-3-.82-.7-1.82-1.05-3.01-1.05s-2.27.36-3.22 1.09c-.95.73-1.43 1.71-1.43 2.95zm12.14 2.56h-12.14c.08 1.12.59 2.03 1.54 2.72.95.68 2.04 1.03 3.26 1.03 1.94 0 3.41-.61 4.43-1.84l1.86 2.04c-1.67 1.73-3.85 2.59-6.52 2.59-2.18 0-4.03-.72-5.55-2.17-1.52-1.45-2.29-3.39-2.29-5.82 0-2.44.77-4.37 2.33-5.81 1.55-1.44 3.38-2.15 5.48-2.15 2.11 0 3.9.64 5.37 1.9 1.48 1.27 2.22 3.02 2.22 5.26v2.24m65.68 1.68c0 1.47-.53 2.65-1.6 3.54-1.07.88-2.44 1.32-4.11 1.32-1.13 0-2.3-.21-3.51-.62-1.21-.4-2.29-.98-3.22-1.72l1.57-2.53c1.8 1.36 3.55 2.04 5.24 2.04.74 0 1.32-.17 1.75-.51.42-.33.64-.77.64-1.29 0-.77-1.03-1.47-3.09-2.1-.16-.05-.27-.09-.35-.11-3.22-.87-4.83-2.33-4.83-4.36 0-1.44.56-2.59 1.67-3.45s2.57-1.3 4.35-1.3 3.47.53 5.07 1.57l-1.23 2.42c-1.26-.83-2.63-1.25-4.11-1.25-.78 0-1.41.15-1.89.43s-.73.7-.73 1.27c0 .5.25.87.75 1.1.35.17.84.34 1.47.49.63.15 1.19.31 1.67.46.48.16.95.33 1.41.53.45.19.94.47 1.47.82 1.04.7 1.57 1.78 1.57 3.26m28.86.54c.92.94 2.09 1.41 3.51 1.41s2.59-.47 3.51-1.42c.92-.94 1.38-2.16 1.38-3.65s-.46-2.71-1.38-3.65c-.92-.94-2.09-1.41-3.51-1.41s-2.59.47-3.51 1.41c-.92.94-1.38 2.16-1.38 3.65 0 1.5.46 2.71 1.38 3.66zm9.33 2.01c-1.55 1.54-3.49 2.31-5.82 2.31s-4.27-.77-5.82-2.32c-1.55-1.54-2.33-3.43-2.33-5.66s.78-4.12 2.33-5.66c1.56-1.55 3.5-2.32 5.83-2.32s4.27.77 5.82 2.32c1.56 1.54 2.33 3.43 2.33 5.66 0 2.24-.77 4.12-2.32 5.67m27.57 2.08h3.26v-21.6h-3.26v21.6zm40.35-7.1v-8.38h3.26v15.48h-3.26v-2.82c-.52.95-1.25 1.7-2.17 2.24-.92.55-1.91.82-2.98.82-1.74 0-3.15-.53-4.23-1.6-1.08-1.07-1.62-2.61-1.62-4.63v-9.49h3.26v8.5c0 2.85 1.19 4.28 3.55 4.28 1.13 0 2.1-.37 2.94-1.12.84-.74 1.26-1.84 1.26-3.27m33.53-5.77v7.85c0 .74.19 1.33.58 1.76.39.43.93.65 1.63.65.7 0 1.365-.34 2.01-1.02l1.34 2.3c-1.14 1.03-2.41 1.54-3.8 1.54-1.38 0-2.57-.48-3.55-1.45-.98-.96-1.47-2.25-1.47-3.88v-7.77h-1.95v-2.62h1.95v-4.86h3.26v4.86h4.08v2.62h-4.07m32.96 12.86h-3.26V176.2h3.26v15.49zm-3.06-18.57c-.41-.41-.618-.89-.618-1.45 0-.57.2-1.05.61-1.46.41-.41.89-.61 1.45-.61.56 0 1.05.2 1.46.61.41.41.62.89.62 1.46s-.2 1.05-.61 1.45c-.41.41-.9.61-1.46.61s-1.04-.21-1.45-.61m32.94 14.48c.92.94 2.09 1.41 3.51 1.41s2.58-.47 3.5-1.412c.92-.94 1.382-2.16 1.382-3.65s-.46-2.71-1.388-3.65c-.92-.94-2.09-1.41-3.51-1.41s-2.59.47-3.51 1.41c-.92.94-1.38 2.16-1.38 3.65 0 1.49.46 2.71 1.38 3.65zm9.33 2.01c-1.557 1.54-3.497 2.31-5.82 2.31-2.33 0-4.277-.77-5.828-2.312-1.55-1.54-2.33-3.43-2.33-5.66s.78-4.12 2.33-5.66 3.5-2.31 5.83-2.31 4.27.78 5.82 2.32c1.55 1.54 2.33 3.43 2.33 5.66 0 2.24-.78 4.12-2.33 5.67m30.83-6.3v8.39h-3.26v-15.5h3.26v2.8c.52-.95 1.25-1.69 2.17-2.24.92-.54 1.92-.81 2.99-.81 1.74 0 3.15.54 4.23 1.61 1.07 1.07 1.61 2.61 1.61 4.63v9.49h-3.26v-8.5c0-2.85-1.187-4.276-3.556-4.276-1.12 0-2.1.37-2.94 1.12-.83.75-1.25 1.84-1.25 3.275m48.13 3.74c0 1.475-.53 2.654-1.6 3.536-1.07.88-2.44 1.32-4.106 1.32-1.12 0-2.29-.204-3.51-.61-1.21-.4-2.28-.98-3.21-1.72l1.57-2.53c1.81 1.36 3.56 2.04 5.24 2.04.74 0 1.32-.17 1.75-.51.43-.34.64-.77.64-1.29 0-.77-1.03-1.47-3.08-2.09-.16-.05-.27-.09-.35-.11-3.22-.87-4.83-2.33-4.83-4.36 0-1.43.56-2.58 1.68-3.45 1.114-.86 2.57-1.29 4.35-1.29 1.79 0 3.472.53 5.07 1.57l-1.22 2.42c-1.26-.83-2.63-1.25-4.1-1.25-.78 0-1.41.15-1.9.43s-.73.71-.73 1.27c0 .5.25.87.75 1.1.35.18.84.34 1.47.5.63.16 1.19.31 1.677.47.49.16.96.33 1.42.53.45.19.94.46 1.47.81 1.04.7 1.57 1.79 1.57 3.26m-339-35.13c-117.33 0-235.27-.308-350.56-.917l.01-2.24c230.58 1.22 471.74 1.22 697.4 0l.01 2.245c-112.836.61-229.54.91-346.868.91" fill="#3871c1"/></svg>
